<?xml version="1.0" encoding="utf-8"?>
<!-- Generator: Adobe Illustrator 16.0.0, SVG Export Plug-In . SVG Version: 6.00 Build 0)  -->
<!DOCTYPE svg PUBLIC "-//W3C//DTD SVG 1.1//EN" "http://www.w3.org/Graphics/SVG/1.1/DTD/svg11.dtd">
<svg version="1.1" id="Слой_1" xmlns="http://www.w3.org/2000/svg" xmlns:xlink="http://www.w3.org/1999/xlink" x="0px" y="0px"
	 width="200px" height="200px" viewBox="0 0 200 200" enable-background="new 0 0 200 200" xml:space="preserve">
<rect x="105.663" y="5.011" fill="#FF5555" width="41.515" height="24.508"/>
<path fill="#FFC107" d="M163.19,41.123H89.677c-18.855,1.254-18.772,22.026-18.772,22.026l0,0v99.254h73.604V63.148
	C144.509,63.148,144.858,42.307,163.19,41.123z"/>
<g>
	<rect x="65.766" y="64.403" fill="#FFC107" width="0.867" height="76.392"/>
</g>
<path fill="#BAEEF4" d="M160.25,39.775c-18.331,1.186-18.681,22.026-18.681,22.026v99.254H67.966V61.801
	c0,0-0.083-20.771,18.773-22.026H160.25z"/>
<rect x="77.632" y="65.705" fill="#587BC9" width="50.556" height="4.46"/>
<rect x="77.632" y="76.02" fill="#587BC9" width="43.167" height="3.16"/>
<rect x="77.632" y="84.361" fill="#587BC9" width="21.699" height="4.693"/>
<rect x="105.744" y="84.361" fill="#587BC9" width="22.444" height="4.693"/>
<rect x="77.632" y="93.399" fill="#587BC9" width="34.571" height="3.345"/>
<rect x="77.632" y="101.762" fill="#587BC9" width="38.951" height="1.859"/>
<rect x="77.632" y="110.127" fill="#587BC9" width="46.838" height="1.857"/>
<g>
	<path fill="#FFDC94" d="M99.494,128.877H77.469v-10.549h22.025V128.877z M77.794,128.551h21.375v-9.896H77.794V128.551z"/>
</g>
<rect x="104.768" y="118.49" fill="#587BC9" width="19.702" height="2.416"/>
<rect x="104.768" y="123.602" fill="#587BC9" width="13.965" height="2.418"/>
<rect x="77.632" y="135.219" fill="#587BC9" width="42.122" height="1.859"/>
<rect x="77.632" y="143.584" fill="#587BC9" width="22.188" height="1.857"/>
<polygon fill="#FFFFFF" points="122.676,16.167 122.829,19.448 124.131,19.388 123.876,13.883 118.254,14.145 118.314,15.448 
	121.712,15.29 115.723,21.863 109.492,16.186 108.614,17.15 115.809,23.705 "/>
<rect x="127.927" y="12.033" fill="#DED4CE" width="16.031" height="2.509"/>
<rect x="127.927" y="17.515" fill="#DED4CE" width="12.601" height="2.509"/>
<rect x="127.927" y="22.997" fill="#DED4CE" width="14.139" height="2.509"/>
<g>
	<polygon fill="#DED4CE" points="160.683,121.898 147.054,121.898 147.054,121.031 159.817,121.031 159.817,105.852 
		160.683,105.852 	"/>
</g>
<g>
	<polygon fill="#DED4CE" points="95.351,38.287 94.484,38.287 94.484,33.86 124.037,33.86 124.037,30.76 124.904,30.76 
		124.904,34.727 95.351,34.727 	"/>
</g>
<g>
	<polygon fill="#DED4CE" points="62.32,90.418 46.808,90.418 46.808,56.967 47.675,56.967 47.675,89.551 62.32,89.551 	"/>
</g>
<g>
	<path fill="#FFC107" d="M147.072,76.833h-0.867V66.727c-0.012-0.167-1.09-19.562,15.276-22.383l0.147,0.854
		c-15.606,2.691-14.57,21.313-14.558,21.5L147.072,76.833z"/>
</g>
<g>
	<polygon fill="#FF5555" points="196.023,96.256 195.156,96.256 195.156,79.125 176.769,79.125 176.769,78.257 196.023,78.257 	"/>
</g>
<g>
	<polygon fill="#FF5555" points="36.797,57.978 19.322,57.978 19.322,41.512 20.189,41.512 20.189,57.11 36.797,57.11 	"/>
</g>
<g>
	<polygon fill="#FF5555" points="104.568,15.785 103.7,15.785 103.7,2.818 125.384,2.818 125.384,3.685 104.568,3.685 	"/>
</g>
<g>
	<polygon fill="#FFC155" points="147.487,165.332 131.581,165.332 131.581,164.467 146.621,164.467 146.621,140.365 
		147.487,140.365 	"/>
</g>
<g>
	<path fill="#587BC9" d="M135.321,148.494h-13.87v-13.869h13.87V148.494z M122.75,147.195h11.27v-11.27h-11.27V147.195z"/>
</g>
<g>
	<polygon fill="#FFC107" points="128.603,144.463 123.726,139.867 125.213,138.289 128.701,141.578 136.328,135.311 
		137.705,136.986 	"/>
</g>
<path opacity="0.24" fill="#3F444F" d="M124.181,108.633c-10.385-17.884-33.306-23.964-51.193-13.576
	c-1.796,1.042-3.472,2.21-5.022,3.487v8.591c2.239-2.629,4.954-4.928,8.11-6.761c14.949-8.683,34.106-3.599,42.789,11.349
	c2.666,4.59,4.031,9.574,4.215,14.533c0.014,0.387,0.023,0.771,0.023,1.158c0,10.791-5.586,21.289-15.588,27.098
	c-13.299,7.721-29.93,4.553-39.549-6.768v8.6c2.262,1.867,4.721,3.443,7.313,4.711h33.036c0.772-0.379,1.532-0.789,2.288-1.227
	C128.49,149.443,134.57,126.521,124.181,108.633z"/>
<rect x="-0.856" y="168.71" transform="matrix(-0.7682 0.6402 -0.6402 -0.7682 163.3013 288.5819)" fill="#305399" width="60.526" height="10.29"/>
<rect x="52.28" y="149.54" transform="matrix(-0.7681 0.6403 -0.6403 -0.7681 193.5508 236.7944)" fill="#7DB5DB" width="3.233" height="7.81"/>
<path fill="#4BB5FF" d="M49.718,146.25c10.387,17.887,33.308,23.965,51.195,13.578c17.886-10.387,23.966-33.307,13.577-51.193
	c-10.387-17.887-33.306-23.966-51.193-13.579C45.411,105.443,39.331,128.363,49.718,146.25z M55.036,143.16
	c-4.606-7.934-5.338-17.053-2.774-25.162c2.266-7.17,7.108-13.551,14.124-17.625c14.95-8.681,34.106-3.599,42.788,11.349
	c2.665,4.59,4.033,9.574,4.218,14.531c-0.002,0,0,0.002,0,0.002c0.414,11.191-5.206,22.238-15.566,28.256
	C82.874,163.191,63.718,158.111,55.036,143.16z"/>
<path opacity="0.3" fill="#C2C2C2" d="M52.338,117.859c0,0,32.599-24.753,61.128,8.256c0,0-0.001,0,0,0
	c-0.185-4.957-1.553-9.943-4.217-14.531c-8.682-14.949-27.838-20.031-42.788-11.35C59.446,104.309,54.604,110.689,52.338,117.859z"
	/>
<path fill="#754836" d="M82.506,117.633c-1.041,0.418-0.447,2.563-0.55,6.473c-0.104,3.91-2.983,4.619-2.983,4.619
	s1.268-1.496,1.526-2.867s-2.589-4.834-1.346-7.555c0.961-2.1,3.482-0.75,3.482-0.75L82.506,117.633z"/>
<path fill="#EEA886" d="M99.078,138.561c0,0-0.513-0.176-0.814-0.121c-0.302,0.057,0.57-1.5,0.57-1.5L99.078,138.561z"/>
<g>
	<path fill="#EEA886" d="M98.833,136.939c0,0,0.807-0.709,0.934-0.813c0.126-0.105,0.583-0.15,1.109-0.156
		c0.529-0.006,1.245,0.223,1.295,0.299c0.051,0.074,0.139,0.127,0.136,0.361c-0.003,0.232-0.134,0.428-0.134,0.428
		s0.133,0.291-0.047,0.52c0,0,0.111,0.279-0.136,0.506c0,0,0.103,0.275-0.091,0.424c0,0-0.457,0.047-0.621,0.113
		c-0.164,0.064-1.121,0.094-2.043-0.018C99.237,138.604,98.213,138.52,98.833,136.939z"/>
</g>
<g>
	<path fill="#CF8C6C" d="M100.392,137.156c0,0-0.205,0.498-0.334,0.609c-0.129,0.111,0.817,0.734,0.817,0.734
		S100.993,137.422,100.392,137.156z"/>
</g>
<g>
	<path fill="#DB9C7C" d="M102.034,136.266c0,0-1.337,0.047-1.356,0.264c-0.019,0.215,0.105,0.307,0.105,0.307l-0.542,0.27
		c0,0-0.257,0.381,0.232,0.551c0,0-0.278,0.332,0.215,0.439c0,0-0.086,0.299,0.134,0.389c0.219,0.09,1.078,0.023,1.078,0.023
		s0.176-0.094,0.091-0.424c0,0,0.25-0.203,0.136-0.506c0,0,0.174-0.193,0.047-0.52c0,0,0.354-0.463-0.002-0.789
		C102.172,136.27,102.09,136.264,102.034,136.266z"/>
</g>
<g>
	<path fill="#EEA886" d="M100.672,136.516c0,0,0.221-1.244,0.152-1.787c-0.015-0.123-0.011-0.17-0.13-0.201
		c-0.121-0.033-0.32,0.395-0.453,0.77c-0.132,0.377-0.486,0.84-0.486,0.84S99.742,136.525,100.672,136.516z"/>
</g>
<g>
	<path fill="#162D40" d="M79.988,176.84c0,0,1.441,2.109,1.946,2.557c0,0,1.006,0.521,1.038,0.939
		c0.058,0.789,0.129,1.525-1.195,1.563s-2.182-0.275-2.424-1.078c-0.242-0.801-0.82-1.492-0.82-1.492v1.68h-0.299
		c0,0-0.074-1.623-0.094-1.922c-0.019-0.297-0.214-1.445,0.415-1.953C79.186,176.623,79.988,176.84,79.988,176.84z"/>
</g>
<g>
	<path fill="#EEA886" d="M82.125,179.504c0,0-0.715,0.203-1.568-0.012c-0.851-0.215-1.669-2.254-1.917-2.424l-0.221-0.822h1.66
		c0,0,0.014,0.609,0.282,1.129C80.63,177.896,82.125,179.504,82.125,179.504z"/>
</g>
<g>
	<path fill="#162D40" d="M89.354,176.051c0,0,0.216,0.512,0.625,1.043c0.299,0.393,1.231,1.996,1.642,2.109
		c0.41,0.111,1.679,0.336,1.791,1.043c0.112,0.711,0.168,1.213-1.082,1.27c-1.25,0.057-2.071,0.131-2.667-0.746
		s-1.548-1.51-1.548-1.51v2.287h-0.485c0,0-0.224-2.381-0.354-2.549s-0.466-1.996,0.69-2.947
		C89.122,175.1,89.354,176.051,89.354,176.051z"/>
</g>
<g>
	<path fill="#EEA886" d="M91.621,179.203c0,0-1.119,0.279-1.549,0c-0.428-0.279-1.887-2.744-2.371-2.893c0,0,0.469-0.951,1.653-0.26
		C89.354,176.051,91.304,178.793,91.621,179.203z"/>
</g>
<g>
	<path fill="#1D3B54" d="M79.352,141.795c0,0-1.579,2.053-2.006,4.486c-0.428,2.436,0.253,10.604,0.233,11.807
		c-0.018,1.203-1.114,5.041-0.89,7.309c0.224,2.266,1.449,11.631,1.449,11.631l2.734-0.049c0,0-0.548-10.209-0.408-11.158
		c0.14-0.951,0.585-4.998,0.641-5.391c0.057-0.393,3.116-10.75,3.116-12.506C84.221,146.17,83.157,138.932,79.352,141.795z"/>
</g>
<g>
	<path fill="#1D3B54" d="M87.28,142.598c0,0,2.592,9.895,2.899,11.266c0.309,1.373,0.924,3.162,0.896,3.414
		s-0.326,4.477-0.326,4.477l-0.736,14.381H87.28c0,0-0.878-9.148-1.017-10.996c-0.14-1.846,1.007-4.699,0.727-5.482
		c-0.279-0.785-4.504-9.822-4.504-9.822S79.287,139.725,87.28,142.598z"/>
</g>
<g>
	<path fill="#FF5555" d="M86.55,127.764c0,0,1.602,0.189,2.279,1.117s0.9,2.344,1.05,2.813c0.15,0.471,2.225,4.893,2.363,5.004
		c0.137,0.109,2.032,0.035,3.171,0.066c1.601,0.047,3.508,0.006,3.508,0.006l-0.232,2.291c0,0-7.612,0.18-8.139-0.418
		c-1.161-1.318-3.782-5.916-3.782-5.916S84.033,128.998,86.55,127.764z"/>
</g>
<g>
	<path fill="#EDDAD3" d="M84.667,127.061c0,0,1.343,0.635,1.811,0.727c0.465,0.094,2.274,2.445,2.592,3.303s0,2.145-0.653,3.654
		c-0.652,1.512-0.037,2.016-0.335,3.525c-0.299,1.512-0.561,4.711-0.504,5.551s-7.544,0.998-9.279-0.533
		c0,0,1.743-2.611,1.967-2.982c0.224-0.373,0.037-2.406-0.167-2.93c-0.207-0.521-2.353-4.725-2.353-4.725s-0.335-3.65,0.673-4.434
		c0.877-0.68,3.266-0.924,3.696-1.072C82.543,126.996,83.792,126.93,84.667,127.061z"/>
</g>
<g>
	<path fill="#D6C5BE" d="M85.098,130.055l0.815-0.957l-0.708-2.516C85.204,126.582,84.966,127.984,85.098,130.055z"/>
</g>
<g>
	<path fill="#EEA886" d="M85.309,125.512c0,0-0.268,2.463-0.211,3.266c0,0-1.396,1.398-2.982-1.633c0,0,0.667-1.248,0.164-2.951
		C81.777,122.49,85.309,125.512,85.309,125.512z"/>
</g>
<g>
	<polygon fill="#EEA886" points="85.098,128.777 85.098,130.055 83.491,128.854 	"/>
</g>
<g>
	<polygon fill="#D6C5BE" points="85.098,130.055 84.43,129.229 82.184,126.99 81.458,127.689 	"/>
</g>
<g>
	<path fill="#FF5555" d="M82.513,145.029c-0.633,3.027-5.207-0.342-5.207-0.342s2.968-4.984,1.788-8.969
		c-0.01-0.031-0.019-0.063-0.028-0.094c-0.076-0.252-0.151-0.492-0.226-0.719c-1.083-3.297-2.056-4.066-2.056-4.066
		s1.376-3.023,2.651-3.219c1.276-0.197,2.436-0.416,2.436-0.416s1.885,2.859,1.976,4.119
		C83.938,132.584,83.146,142.002,82.513,145.029z"/>
</g>
<g>
	<path fill="#FF5555" d="M89.355,131.441c0,0-0.304,2.857-0.882,4.273c0,0-0.243,3.021-0.206,4.086
		c0.038,1.063,0.289,5.082,0.289,5.082l-1.31,0.768c-0.263,0.154-0.59-0.061-0.553-0.363c0.371-3.061,1.577-14.666-1.029-17.785
		l1.045,0.309C86.71,127.811,88.864,129.818,89.355,131.441z"/>
</g>
<g>
	<polygon fill="#FAE6DE" points="85.913,129.098 86.941,129.383 85.204,126.582 	"/>
</g>
<g>
	<polygon fill="#FAE6DE" points="84.43,129.229 83.491,130.461 81.571,127.26 82.184,126.99 	"/>
</g>
<path fill="#D13F3F" d="M88.943,136.064c0,0,0.608-1.924,0.251-3.281c0,0,0.049,1.199-0.67,2.781L88.943,136.064z"/>
<path fill="#EEA886" d="M84.339,117.559c0.982-0.094,3.19,0.299,3.651,2.893c0,0-0.046,0.707-0.19,1.27
	c-0.146,0.559,0.427,2.168,0.301,2.254c-0.125,0.086-0.654,0.213-0.654,0.213s-0.491,1.809-1.117,1.824
	c-0.627,0.014-3.016-0.363-4.236-2.525C80.875,121.322,80.37,117.939,84.339,117.559z"/>
<path fill="#754836" d="M87.99,120.451c0,0-1.549,1.166-3.125,1.461c-1.576,0.295-2.431,3.043-2.431,3.043s-2.646-3.984-0.81-6.523
	C83.457,115.898,88.191,117.395,87.99,120.451z"/>
<path fill="#EEA886" d="M84.202,121.871c-0.023-0.307-0.387-0.752-0.871-0.309s0.263,1.873,0.668,1.709
	C84.406,123.109,84.227,122.188,84.202,121.871z"/>
<path fill="#A77860" d="M85.313,125.867c-0.036,0.191-0.072,0.416-0.102,0.652c-1.323-0.754-2.017-1.715-2.017-1.715
	C83.959,125.434,85.313,125.867,85.313,125.867z"/>
<polygon fill="#E8734D" points="86.529,138.908 80.962,148.549 74.773,144.977 80.099,135.195 "/>
<g>
	<g>
		<g>
			<g>
				<g>
					<path fill="#EEA886" d="M83.769,145.311c0,0-0.253,0.002-0.364-0.053c0,0-0.195-0.111-0.338-0.184
						c-0.046-0.023-0.085-0.041-0.113-0.051c-0.114-0.039-0.374-0.092-0.621-0.264c-0.246-0.17-1.117-1.18-1.117-1.18l0.411-0.625
						l0.303-0.641c0,0,1.83,0.117,2.077,0.25c0.024,0.014,0.048,0.027,0.068,0.041c0.199,0.133,0.292,0.316,0.388,0.396
						c0.035,0.031,0.366,0.354,0.354,0.49c-0.016,0.191-0.104,0.318-0.22,0.381c0,0-0.047,0.371-0.231,0.545
						c0,0-0.032,0.346-0.322,0.496C84.044,144.914,83.972,145.262,83.769,145.311z"/>
				</g>
			</g>
		</g>
	</g>
</g>
<g>
	<path fill="#FF5555" d="M80.152,127.57c0,0-1.846-0.234-2.815,1.629c-0.969,1.861-0.964,2.656-1.094,3.566
		c-0.122,0.859-0.673,3.203-0.73,3.445c-0.055,0.242-1.305,3.131-0.732,4.139c0.577,1.016,6.427,4.002,6.39,4.225
		c-0.037,0.225,1.013-2.258,1.013-2.258s-2.367-1.318-2.755-1.725c-0.63-0.66-1.959-1.373-1.686-2.189
		c0.321-0.963,1.284-4.207,1.508-4.682C79.475,133.244,81.578,128.176,80.152,127.57z"/>
</g>
<path fill="#D13F3F" d="M79.994,131.773c-0.069,1.791-0.927,3.852-0.927,3.852c-0.076-0.252-0.151-0.492-0.226-0.719
	C79.325,133.553,79.994,131.773,79.994,131.773z"/>
<g>
	<path fill="#5C544D" d="M156.978,177.85c0,0,0.193,1.359,0.218,1.564s2.16-0.119,2.16-0.119l0.173-1.621
		C159.529,177.674,157.244,177.658,156.978,177.85z"/>
</g>
<g>
	<path fill="#3C4145" d="M157.173,179.242c0,0-0.676,0.818-1.332,1.176c-0.654,0.357-1.682,0.5-2.069,0.869
		c-0.28,0.268-1.017,1.418,1.7,1.395c2.719-0.023,4.029,0.162,4.32-0.279c0.291-0.439-0.421-3.252-0.421-3.252
		S158.728,179.383,157.173,179.242z"/>
</g>
<g>
	<path fill="#5C544D" d="M141.674,177.85c0,0,0.194,1.359,0.219,1.564s2.16-0.119,2.16-0.119l0.173-1.621
		C144.226,177.674,141.941,177.658,141.674,177.85z"/>
</g>
<g>
	<path fill="#3C4145" d="M141.871,179.242c0,0-0.678,0.818-1.332,1.176s-3.063,0.652-3.449,1.021
		c-0.279,0.268-0.744,1.342,3.08,1.242c2.718-0.072,4.029,0.162,4.32-0.279c0.291-0.439-0.422-3.252-0.422-3.252
		S143.462,179.398,141.871,179.242z"/>
</g>
<g>
	<path fill="#33373B" d="M156.219,142.721c0,0,1.136,3.377,0.986,6.287s0.588,6.094,0.89,9.133
		c0.336,3.389,1.711,11.412,1.762,13.223c0.049,1.814-0.214,7.602-0.214,7.602l-2.753,0.063c0,0-2.313-14.023-2.912-15.455
		c-0.599-1.43-3.568-11.633-3.668-12.777S156.219,142.721,156.219,142.721z"/>
</g>
<g>
	<path fill="#3C4145" d="M144.644,143.322c0,0-1.512,7.975-1.711,9.756c-0.2,1.779-0.333,8.619-0.433,9.732
		c-0.1,1.111-0.665,14.564-1.198,16.217h3.521c0,0,2.701-9.779,2.701-14.406s2.088-10.059,3.435-13.111
		c1.348-3.053,4.432-3.125,5.261-8.789C156.219,142.721,145.765,141.525,144.644,143.322z"/>
</g>
<g>
	<path fill="#EEA886" d="M151.797,116.066c0,0-2.774-1.035-4.054,1.076s-1.156,6.34,0.243,6.859c1.397,0.52,3.499,0.248,4.216-1.072
		c0.716-1.322,1.361-3.234,1.331-4.51C153.501,117.143,152.527,116.436,151.797,116.066z"/>
</g>
<g>
	<path fill="#EEA886" d="M148.453,123.873c0,0,0.112,0.727-0.074,1.084c-0.184,0.359,3.49,0.369,3.49,0.369s0.299-1.949,0.863-3.596
		C153.298,120.084,148.453,123.873,148.453,123.873z"/>
</g>
<g>
	<path fill="#444444" d="M152.732,121.73c0,0-0.252,0.418-1.289,0.256c-1.034-0.162-2.299-1.539-2.73-1.691
		c-0.432-0.15-0.436-0.404-0.436-0.404l-0.271,0.395l-0.459,0.029c0,0,0.419-1.232-0.213-1.734
		c-0.632-0.504,0.656-3.988,3.977-2.828c0,0,2.55,0.703,2.458,2.154C153.675,119.355,153.304,121.008,152.732,121.73z"/>
</g>
<g>
	<path fill="#E2D2CA" d="M148.162,124.916c0,0,0.011-0.686,0.321-0.752c0.31-0.064,3.425-0.365,3.806-0.215v0.797
		C152.289,124.746,151.554,125.199,148.162,124.916z"/>
</g>
<g>
	<path fill="#EEA886" d="M148.345,119.363c0.058-0.244,0.676-0.939,0.914-0.193c0.236,0.742-0.359,1.744-0.689,1.658
		C148.237,120.744,148.199,119.98,148.345,119.363z"/>
</g>
<g>
	<path fill="#8C99E0" d="M148.162,124.916c0,0-1.709,0.613-3.686,1.453c0,0-2.274,0.85-2.521,3.361
		c-0.131,1.334-1.551,8.412-1.816,9.01c-0.266,0.6-3.415,10.221-3.526,10.42c-0.11,0.199,2.57,1.313,2.747,1.223
		c0.178-0.088,3.049-8.773,3.338-9.418c0,0,1.652-5.207,1.697-5.984c0,0,0.047,2.215,0.136,2.834
		c0.089,0.621-1.47,12.682-1.426,13.014s7.083,0.756,9.899,0.445c2.817-0.311,5.09-0.959,5.09-0.959s-2.216-9.518-2.148-10.572
		c0.148-2.299,0.917-6.629,0.917-6.629l2.297,4.33l-2.939,7.563l0.673,2.299c0,0,5.464-8.256,5.641-9.008
		c0.178-0.756-0.269-1.717-0.556-2.338c-0.289-0.619-2.183-5.348-2.626-6.014c-0.443-0.664-1.193-3.328-3.006-4.07
		c-1.514-0.621-4.057-1.129-4.057-1.129L148.162,124.916z"/>
</g>
<g>
	
		<rect x="132.476" y="142.745" transform="matrix(0.9687 0.2484 -0.2484 0.9687 40.9715 -29.9393)" fill="#D6D6D6" width="13.288" height="9.269"/>
</g>
<g>
	<path fill="#C98462" d="M135.492,151.123c0,0-0.368,0.594-0.502,0.764c-0.135,0.17,0.33,0.275,0.529,0.105
		C135.717,151.82,135.492,151.123,135.492,151.123z"/>
</g>
<g>
	<path fill="#DE9D7D" d="M138.171,153.152c0,0,0.217-0.227,0.264-0.371c0,0,0.064-0.271,0.123-0.461
		c0.019-0.061,0.036-0.111,0.051-0.145c0.063-0.137,0.237-0.416,0.295-0.783c0.057-0.367,0.217-2.014,0.217-2.014l-0.998-0.25
		l-0.801-0.17c0,0-1.73,1.727-1.822,2.063c-0.009,0.033-0.017,0.066-0.021,0.096c-0.051,0.293,0.035,0.531,0.025,0.688
		c-0.003,0.059,0.006,0.629,0.139,0.738c0.186,0.148,0.374,0.176,0.528,0.127c0,0,0.376,0.275,0.688,0.258
		c0,0,0.338,0.266,0.721,0.135C137.58,153.063,137.954,153.293,138.171,153.152z"/>
</g>
<g>
	<path fill="#8C99E0" d="M142.063,142.738c0,0-2.284,6.92-2.704,7.645c0,0-1.674-0.352-2.747-1.223l2.509-7.467L142.063,142.738z"/>
</g>
<rect x="21.429" y="26.408" fill="#FF5555" width="40.864" height="29.429"/>
<rect x="21.429" y="26.408" fill="#587BC9" width="40.809" height="2.344"/>
<rect x="105.663" y="5.011" fill="#587BC9" width="41.46" height="1.953"/>
<rect x="156.632" y="80.809" fill="#FF5555" width="36.911" height="22.812"/>
<rect x="156.632" y="80.943" fill="#587BC9" width="36.861" height="2.426"/>
<g>
	<path fill="#FFFFFF" d="M34.693,37.97c-0.127-0.142-0.315-0.295-0.562-0.459c-0.248-0.163-0.534-0.32-0.858-0.47
		c-0.326-0.15-0.683-0.279-1.072-0.386c-0.39-0.107-0.79-0.176-1.2-0.206l-0.015,4.397l0.403,0.086
		c0.764,0.187,1.454,0.395,2.069,0.623c0.615,0.229,1.135,0.506,1.559,0.833c0.425,0.328,0.751,0.729,0.984,1.204
		c0.231,0.476,0.346,1.053,0.345,1.732c-0.002,0.751-0.14,1.391-0.409,1.921c-0.271,0.531-0.645,0.972-1.12,1.324
		c-0.476,0.353-1.029,0.617-1.66,0.792c-0.631,0.175-1.308,0.269-2.03,0.28l-0.008,2.231l-1.104-0.004l0.008-2.272
		c-1.021-0.074-1.99-0.28-2.908-0.615c-0.92-0.336-1.761-0.802-2.524-1.4l1.091-2.036c0.155,0.17,0.38,0.355,0.678,0.554
		c0.297,0.199,0.643,0.392,1.039,0.577c0.396,0.185,0.831,0.35,1.305,0.493c0.473,0.144,0.966,0.244,1.475,0.303l0.014-4.398
		c-0.084-0.028-0.173-0.053-0.265-0.075c-0.093-0.022-0.181-0.046-0.266-0.075c-0.75-0.201-1.404-0.412-1.962-0.634
		c-0.56-0.221-1.021-0.488-1.389-0.801c-0.367-0.313-0.646-0.678-0.835-1.096c-0.19-0.419-0.284-0.926-0.282-1.521
		c0.002-0.693,0.124-1.309,0.367-1.847c0.242-0.538,0.583-1,1.024-1.388c0.439-0.388,0.954-0.691,1.543-0.908
		c0.588-0.219,1.236-0.354,1.945-0.409l0.007-2.145l1.104,0.003l-0.007,2.146c0.921,0.059,1.77,0.247,2.548,0.561
		c0.777,0.315,1.463,0.692,2.057,1.133L34.693,37.97z M27.68,38.499c-0.001,0.596,0.207,1.042,0.623,1.34
		c0.417,0.299,1.05,0.563,1.899,0.792l0.014-4.185c-0.864,0.04-1.502,0.239-1.914,0.599C27.89,37.406,27.683,37.891,27.68,38.499z
		 M33.797,45.573c0.001-0.623-0.244-1.095-0.74-1.416c-0.494-0.32-1.187-0.609-2.079-0.867l-0.013,4.207
		c0.906-0.011,1.604-0.179,2.094-0.503C33.549,46.669,33.795,46.196,33.797,45.573z"/>
</g>
<rect x="41.431" y="35.383" fill="#DED4CE" width="17.634" height="2.509"/>
<rect x="41.431" y="40.866" fill="#DED4CE" width="13.86" height="2.509"/>
<rect x="41.431" y="46.347" fill="#DED4CE" width="15.552" height="2.509"/>
<g>
	<g>
		<g>
			<g>
				<g>
					<g>
						<path fill="#FFFFFF" d="M164.917,95.726l-2.17-3.553c-0.178-0.291-0.086-0.671,0.204-0.85c0.292-0.178,0.673-0.086,0.85,0.205
							l1.536,2.514l4.08-2.415c0.295-0.175,0.674-0.078,0.848,0.217s0.076,0.673-0.218,0.848L164.917,95.726z"/>
					</g>
				</g>
			</g>
		</g>
	</g>
	<g>
		<path fill="#FFFFFF" d="M166.375,101.205c-4.305,0-7.807-3.501-7.807-7.805c0-4.305,3.502-7.808,7.807-7.808
			s7.807,3.502,7.807,7.808C174.181,97.704,170.679,101.205,166.375,101.205z M166.375,86.708c-3.689,0-6.691,3.001-6.691,6.692
			c0,3.689,3.002,6.691,6.691,6.691s6.691-3.002,6.691-6.691C173.066,89.709,170.064,86.708,166.375,86.708z"/>
	</g>
</g>
<rect x="177.417" y="88.822" fill="#DED4CE" width="12.602" height="2.509"/>
<rect x="177.417" y="94.304" fill="#DED4CE" width="14.139" height="2.51"/>
</svg>
