<?xml version="1.0" encoding="utf-8"?>
<!-- Generator: Adobe Illustrator 16.0.0, SVG Export Plug-In . SVG Version: 6.00 Build 0)  -->
<!DOCTYPE svg PUBLIC "-//W3C//DTD SVG 1.1//EN" "http://www.w3.org/Graphics/SVG/1.1/DTD/svg11.dtd">
<svg version="1.1" id="Layer_1" xmlns="http://www.w3.org/2000/svg" xmlns:xlink="http://www.w3.org/1999/xlink" x="0px" y="0px"
	 width="200px" height="200px" viewBox="0 0 200 200" enable-background="new 0 0 200 200" xml:space="preserve">
<path fill="#D3EAFF" d="M77.645,25.973c-4.072-2.842-12.212,5.093-4.635,5.087C80.587,31.053,80.451,27.932,77.645,25.973z"/>
<path fill="#040A10" d="M90.105,115.728l0.691-5.238c0.37-2.797-1.411-5.063-3.979-5.063H44.969l-1.361,10.302l-0.84,6.355
	l-7.861,59.508c-0.856,6.481,3.274,11.736,9.225,11.736h91.364c5.949,0,11.469-5.255,12.325-11.736l8.7-65.863H90.105z"/>
<path fill="#F5F5F5" d="M134.638,138.925c-19.304-11.402-38.608-22.806-57.913-34.208c27.641-15.054,13.584-54.739,41.225-69.793
	c19.305,11.403,38.608,22.806,57.913,34.208C148.222,84.186,162.279,123.87,134.638,138.925z"/>
<g>
	<path fill="#DFDFDF" d="M121.917,92.327c-7.458-4.404-14.914-8.809-22.372-13.214c3.745-13.681,5.673-28.434,16.619-37.86
		c7.458,4.404,14.914,8.809,22.372,13.214C127.59,63.894,125.661,78.646,121.917,92.327z"/>
</g>
<g>
	<path fill="#FFBA1F" d="M163.919,73.151c-7.897-4.665-15.794-9.33-23.691-13.995c0.744-0.791,1.537-1.552,2.384-2.282
		c7.898,4.665,15.796,9.33,23.693,13.995C165.458,71.599,164.664,72.36,163.919,73.151z"/>
</g>
<path fill="#979797" d="M150.245,70.393c-4.315-2.549-8.63-5.097-12.946-7.647c0.395-0.557,0.805-1.103,1.234-1.639
	c4.315,2.549,8.631,5.098,12.946,7.646C151.05,69.29,150.639,69.836,150.245,70.393z"/>
<path fill="#979797" d="M111.519,90.131c-4.315-2.549-8.631-5.098-12.946-7.646c0.205-0.668,0.402-1.342,0.596-2.017
	c4.314,2.549,8.63,5.098,12.945,7.647C111.92,88.79,111.723,89.463,111.519,90.131z"/>
<path fill="#DFDFDF" d="M120.35,97.572c-7.457-4.405-14.915-8.81-22.372-13.214c0.108-0.331,0.215-0.662,0.321-0.995
	c7.457,4.405,14.914,8.811,22.371,13.215C120.565,96.911,120.458,97.242,120.35,97.572z"/>
<path fill="#DFDFDF" d="M119.712,99.42c-7.457-4.405-14.915-8.81-22.372-13.214c0.117-0.326,0.232-0.652,0.344-0.98
	c7.458,4.405,14.915,8.81,22.373,13.215C119.944,98.768,119.828,99.095,119.712,99.42z"/>
<path fill="#DFDFDF" d="M158.872,80.116c-7.897-4.665-15.796-9.33-23.693-13.995c0.116-0.208,0.234-0.416,0.354-0.62
	c7.898,4.665,15.796,9.329,23.693,13.994C159.105,79.701,158.988,79.908,158.872,80.116z"/>
<path fill="#DFDFDF" d="M157.171,83.499c-7.897-4.665-15.795-9.33-23.691-13.995c0.099-0.219,0.199-0.436,0.301-0.652
	c7.897,4.665,15.794,9.33,23.691,13.995C157.37,83.063,157.27,83.28,157.171,83.499z"/>
<path fill="#DFDFDF" d="M155.722,87.028c-7.897-4.665-15.796-9.329-23.693-13.995c0.085-0.227,0.171-0.452,0.258-0.678
	c7.897,4.665,15.795,9.33,23.692,13.994C155.891,86.576,155.807,86.802,155.722,87.028z"/>
<path fill="#DFDFDF" d="M154.47,90.676c-7.897-4.665-15.795-9.33-23.691-13.995c0.073-0.233,0.147-0.465,0.224-0.697
	c7.896,4.665,15.795,9.329,23.691,13.994C154.617,90.21,154.544,90.443,154.47,90.676z"/>
<path fill="#DFDFDF" d="M153.368,94.412c-7.896-4.665-15.795-9.33-23.692-13.995c0.065-0.237,0.132-0.475,0.199-0.712
	c7.897,4.665,15.795,9.33,23.692,13.995C153.5,93.937,153.435,94.174,153.368,94.412z"/>
<path fill="#DFDFDF" d="M152.363,98.206c-7.896-4.665-15.794-9.33-23.691-13.995c0.062-0.241,0.123-0.48,0.185-0.721
	c7.897,4.665,15.795,9.33,23.692,13.995C152.487,97.726,152.425,97.965,152.363,98.206z"/>
<path fill="#DFDFDF" d="M151.407,102.027c-7.897-4.664-15.795-9.329-23.691-13.994c0.059-0.241,0.12-0.483,0.18-0.724
	c7.896,4.665,15.794,9.33,23.691,13.995C151.527,101.545,151.467,101.786,151.407,102.027z"/>
<path fill="#DFDFDF" d="M150.447,105.848c-7.897-4.665-15.794-9.33-23.691-13.995c0.062-0.24,0.123-0.48,0.184-0.72
	c7.897,4.664,15.795,9.329,23.692,13.995C150.571,105.367,150.51,105.607,150.447,105.848z"/>
<path fill="#DFDFDF" d="M149.436,109.636c-7.898-4.665-15.796-9.33-23.693-13.995c0.066-0.237,0.133-0.475,0.198-0.713
	c7.898,4.665,15.795,9.33,23.692,13.995C149.567,109.161,149.502,109.398,149.436,109.636z"/>
<path fill="#DFDFDF" d="M148.317,113.363c-7.898-4.665-15.795-9.33-23.692-13.995c0.074-0.233,0.148-0.465,0.222-0.699
	c7.896,4.665,15.794,9.33,23.692,13.995C148.466,112.896,148.392,113.129,148.317,113.363z"/>
<path fill="#DFDFDF" d="M147.045,116.998c-7.897-4.665-15.795-9.331-23.692-13.996c0.086-0.225,0.171-0.451,0.255-0.679
	c7.897,4.665,15.795,9.33,23.691,13.995C147.216,116.545,147.13,116.772,147.045,116.998z"/>
<path fill="#DFDFDF" d="M145.566,120.511c-7.897-4.665-15.796-9.329-23.692-13.995c0.102-0.217,0.2-0.435,0.297-0.653
	c7.898,4.666,15.795,9.33,23.693,13.995C145.767,120.076,145.667,120.294,145.566,120.511z"/>
<polygon fill="#DFDFDF" points="55.742,135.799 129.272,100.783 98.109,15.343 24.579,50.36 "/>
<polygon fill="#FF9320" points="54.287,136.169 127.818,101.152 94.441,14.139 20.91,49.156 "/>
<polygon fill="#FFBA1F" points="51.613,134.121 126.24,98.582 91.767,12.091 26.711,43.072 "/>
<polygon fill="#F5F5F5" points="128.284,101.158 54.754,136.174 16.773,56.417 21.413,43.341 86.086,12.543 "/>
<rect x="30.085" y="42.92" transform="matrix(0.9028 -0.43 0.43 0.9028 -24.6892 26.2839)" fill="#4BB3FF" width="31.461" height="49.706"/>
<line fill="none" stroke="#FFFFFF" stroke-linecap="round" stroke-linejoin="round" stroke-miterlimit="10" x1="48.164" y1="41.258" x2="43.151" y2="94.108"/>
<line fill="none" stroke="#FFFFFF" stroke-linecap="round" stroke-linejoin="round" stroke-miterlimit="10" x1="23.562" y1="52.975" x2="67.752" y2="82.393"/>
<rect x="53.717" y="28.758" transform="matrix(0.9029 -0.4299 0.4299 0.9029 -6.3546 33.2388)" fill="#FFBA1F" width="33.318" height="3.847"/>
<rect x="57.132" y="38.325" transform="matrix(0.9028 -0.43 0.43 0.9028 -10.5741 32.322)" fill="#979797" width="18.205" height="2.469"/>
<rect x="42.652" y="94.427" transform="matrix(0.9029 -0.43 0.43 0.9029 -36.1022 31.5457)" fill="#979797" width="18.206" height="2.468"/>
<rect x="43.27" y="94.845" transform="matrix(0.9029 -0.4299 0.4299 0.9029 -35.312 34.6412)" fill="#DFDFDF" width="31.462" height="1.235"/>
<rect x="44.268" y="96.939" transform="matrix(0.9028 -0.43 0.43 0.9028 -36.1165 35.2749)" fill="#DFDFDF" width="31.462" height="1.235"/>
<rect x="58.817" y="40.957" transform="matrix(0.9029 -0.4299 0.4299 0.9029 -10.4632 36.4713)" fill="#DFDFDF" width="33.319" height="0.866"/>
<rect x="60.783" y="45.086" transform="matrix(0.9028 -0.43 0.43 0.9028 -12.0476 37.7203)" fill="#DFDFDF" width="33.318" height="0.866"/>
<rect x="62.749" y="49.216" transform="matrix(0.9029 -0.4299 0.4299 0.9029 -13.6318 38.9634)" fill="#DFDFDF" width="33.318" height="0.864"/>
<rect x="64.716" y="53.345" transform="matrix(0.9029 -0.4299 0.4299 0.9029 -15.2161 40.2113)" fill="#DFDFDF" width="33.318" height="0.865"/>
<rect x="66.681" y="57.473" transform="matrix(0.9028 -0.43 0.43 0.9028 -16.8008 41.4599)" fill="#DFDFDF" width="33.319" height="0.866"/>
<rect x="68.648" y="61.602" transform="matrix(0.9028 -0.43 0.43 0.9028 -18.3848 42.7057)" fill="#DFDFDF" width="33.319" height="0.865"/>
<rect x="70.615" y="65.732" transform="matrix(0.9029 -0.4299 0.4299 0.9029 -19.9687 43.9504)" fill="#DFDFDF" width="33.319" height="0.864"/>
<rect x="72.581" y="69.861" transform="matrix(0.9028 -0.43 0.43 0.9028 -21.5537 45.1996)" fill="#DFDFDF" width="33.318" height="0.864"/>
<rect x="74.547" y="73.989" transform="matrix(0.9028 -0.43 0.43 0.9028 -23.1381 46.4472)" fill="#DFDFDF" width="33.32" height="0.866"/>
<rect x="76.514" y="78.118" transform="matrix(0.9029 -0.43 0.43 0.9029 -24.7218 47.6913)" fill="#DFDFDF" width="33.318" height="0.866"/>
<rect x="78.48" y="82.248" transform="matrix(0.9028 -0.43 0.43 0.9028 -26.3071 48.941)" fill="#DFDFDF" width="33.318" height="0.866"/>
<rect x="80.446" y="86.378" transform="matrix(0.9029 -0.4299 0.4299 0.9029 -27.8901 50.183)" fill="#DFDFDF" width="33.319" height="0.864"/>
<polygon fill="#DFDFDF" points="61.269,137.044 142.623,133.246 146.99,42.405 65.636,46.204 "/>
<polygon fill="#FF9320" points="59.785,136.82 141.138,133.022 144.075,39.874 62.72,43.672 "/>
<polygon fill="#FFBA1F" points="58.113,133.897 140.68,130.041 142.402,36.95 70.425,40.311 "/>
<polygon fill="#F5F5F5" points="141.567,133.209 60.213,137.007 56.093,48.764 65.436,38.507 136.99,35.166 "/>
<rect x="62.739" y="45.632" transform="matrix(0.9989 -0.0466 0.0466 0.9989 -3.2008 3.735)" fill="#4BB3FF" width="31.461" height="49.705"/>
<line fill="none" stroke="#FFFFFF" stroke-linecap="round" stroke-linejoin="round" stroke-miterlimit="10" x1="90.905" y1="46.949" x2="65.811" y2="93.731"/>
<line fill="none" stroke="#FFFFFF" stroke-linecap="round" stroke-linejoin="round" stroke-miterlimit="10" x1="63.687" y1="48.22" x2="93.03" y2="92.461"/>
<rect x="98.822" y="43.878" transform="matrix(0.9989 -0.0467 0.0467 0.9989 -2.0114 5.4384)" fill="#FFBA1F" width="33.319" height="3.847"/>
<rect x="99.12" y="51.149" transform="matrix(0.9989 -0.0466 0.0466 0.9989 -2.3253 5.1044)" fill="#979797" width="18.206" height="2.469"/>
<rect x="64.039" y="97.261" transform="matrix(0.9989 -0.0466 0.0466 0.9989 -4.5116 3.5164)" fill="#979797" width="18.206" height="2.468"/>
<rect x="64.169" y="100.502" transform="matrix(0.9989 -0.0467 0.0467 0.9989 -4.6304 3.8376)" fill="#DFDFDF" width="31.462" height="1.235"/>
<rect x="64.277" y="102.82" transform="matrix(0.9989 -0.0466 0.0466 0.9989 -4.7354 3.8426)" fill="#DFDFDF" width="31.461" height="1.234"/>
<rect x="99.374" y="57.218" transform="matrix(0.9989 -0.0466 0.0466 0.9989 -2.5628 5.4752)" fill="#DFDFDF" width="33.319" height="0.865"/>
<rect x="99.588" y="61.786" transform="matrix(0.9989 -0.0466 0.0466 0.9989 -2.7749 5.4885)" fill="#DFDFDF" width="33.318" height="0.865"/>
<rect x="99.802" y="66.354" transform="matrix(0.9989 -0.0466 0.0466 0.9989 -2.9886 5.5052)" fill="#DFDFDF" width="33.318" height="0.865"/>
<rect x="100.015" y="70.923" transform="matrix(0.9989 -0.0466 0.0466 0.9989 -3.2016 5.5203)" fill="#DFDFDF" width="33.318" height="0.865"/>
<rect x="100.228" y="75.49" transform="matrix(0.9989 -0.0467 0.0467 0.9989 -3.4165 5.5387)" fill="#DFDFDF" width="33.318" height="0.866"/>
<rect x="100.441" y="80.059" transform="matrix(0.9989 -0.0466 0.0466 0.9989 -3.6272 5.55)" fill="#DFDFDF" width="33.318" height="0.865"/>
<rect x="100.654" y="84.628" transform="matrix(0.9989 -0.0466 0.0466 0.9989 -3.8389 5.5631)" fill="#DFDFDF" width="33.318" height="0.865"/>
<rect x="100.868" y="89.197" transform="matrix(0.9989 -0.0466 0.0466 0.9989 -4.0516 5.5779)" fill="#DFDFDF" width="33.319" height="0.865"/>
<rect x="101.081" y="93.764" transform="matrix(0.9989 -0.0466 0.0466 0.9989 -4.2657 5.5946)" fill="#DFDFDF" width="33.319" height="0.866"/>
<rect x="101.295" y="98.332" transform="matrix(0.9989 -0.0466 0.0466 0.9989 -4.4787 5.6097)" fill="#DFDFDF" width="33.318" height="0.866"/>
<rect x="101.508" y="102.901" transform="matrix(0.9989 -0.0467 0.0467 0.9989 -4.6931 5.6265)" fill="#DFDFDF" width="33.318" height="0.866"/>
<rect x="101.721" y="107.47" transform="matrix(0.9989 -0.0466 0.0466 0.9989 -4.9031 5.6379)" fill="#DFDFDF" width="33.317" height="0.865"/>
<path fill="#DFDFDF" d="M121.961,121.978l-40.493-1.976v-3.549c0-3.015-2.441-5.46-5.457-5.466l-35.477-0.055v6.234l45.412,20.858"
	/>
<path fill="#8B97DE" d="M79.854,122.081v-4.811c0-2.565-2.082-4.647-4.648-4.647H33.356v9.458v5.836v54.635
	c0,5.95,4.825,10.775,10.776,10.775h91.364c5.949,0,10.774-4.825,10.774-10.775v-60.471H79.854z"/>
<rect x="40.78" y="159.179" fill="#03162D" width="42.556" height="23.449"/>
<rect x="44.733" y="162.437" fill="#FD5555" width="17.325" height="17.326"/>
<rect x="65.427" y="162.437" fill="#FD5555" width="15.17" height="3.681"/>
<rect x="65.427" y="167.329" fill="#FD5555" width="15.17" height="1.002"/>
<rect x="65.427" y="169.542" fill="#FD5555" width="15.17" height="1.002"/>
<rect x="65.427" y="173.085" fill="#FD5555" width="2.028" height="2.028"/>
<rect x="69.396" y="173.085" fill="#FD5555" width="2.028" height="2.028"/>
<rect x="73.365" y="173.085" fill="#FD5555" width="2.028" height="2.028"/>
<rect x="78.568" y="177.734" fill="#FD5555" width="2.028" height="2.028"/>
<g>
	<path fill="#FF9920" d="M110.26,157.654c11.993,12.527,31.943,12.962,44.472,0.969c12.528-11.994,12.963-31.943,0.969-44.471
		c-11.993-12.528-31.943-12.964-44.471-0.971C98.701,125.176,98.266,145.125,110.26,157.654z M116.803,119.003
		c9.317-8.92,24.157-8.597,33.077,0.723c8.92,9.316,8.597,24.156-0.722,33.075c-9.318,8.921-24.157,8.599-33.077-0.72
		C107.16,142.762,107.484,127.924,116.803,119.003z"/>
	<circle opacity="0.19" fill="#0083FF" cx="132.654" cy="136.228" r="25.007"/>
	<path opacity="0.35" fill="#FFFFFF" d="M129.912,139.028c3.734-3.732,9.79-3.732,13.524,0c3.735,3.737,3.735,9.791,0,13.526
		c-3.734,3.734-9.79,3.734-13.524,0C126.177,148.819,126.177,142.766,129.912,139.028z"/>
	<circle opacity="0.35" fill="#FFFFFF" cx="148.806" cy="137.014" r="2.568"/>
	<path opacity="0.35" fill="#FFFFFF" d="M121.16,124.733c2.064-2.065,4.548-3.455,7.178-4.177l-2.488-4.552
		c-3.027,1.016-5.873,2.724-8.284,5.135c-8.332,8.334-8.332,21.844,0,30.177l3.595-3.592
		C114.81,141.374,114.81,131.082,121.16,124.733z"/>
	<path fill="#FFBA1F" d="M111.553,157.33c11.654,11.654,30.549,11.654,42.203,0s11.654-30.549,0-42.202
		c-11.654-11.655-30.549-11.655-42.203,0C99.9,126.781,99.9,145.676,111.553,157.33z M150.337,118.546
		c9.765,9.766,9.765,25.599,0,35.364c-9.767,9.767-25.599,9.767-35.365,0c-9.764-9.766-9.764-25.599,0-35.364
		C124.738,108.78,140.57,108.78,150.337,118.546z"/>
	<g opacity="0.54">
		<path fill="#FFFFFF" d="M136.674,120.478c2.739,0.695,5.333,2.113,7.476,4.256l3.594-3.594c-3.14-3.139-7.014-5.095-11.069-5.868
			V120.478z"/>
	</g>
	<path fill="#FFBA1F" d="M188.859,80.023L188.859,80.023c2.854,2.853,2.854,7.479,0,10.332l-21.301,21.3l-10.331-10.332l21.3-21.3
		C181.38,77.17,186.006,77.17,188.859,80.023z"/>
	<path fill="#26333B" d="M159.398,100.741l8.743,8.743c1.12,1.119,1.12,2.952,0,4.072l-5.44,5.439c-1.12,1.12-2.952,1.12-4.072,0
		l-8.743-8.742c-1.12-1.12-1.12-2.952,0-4.072l5.44-5.44C156.446,99.621,158.278,99.621,159.398,100.741z"/>
</g>
<path fill="#26333B" d="M159.482,89.896h-5.289v-5.289c0-0.213-0.175-0.387-0.388-0.387s-0.388,0.174-0.388,0.387v5.289h-5.288
	c-0.213,0-0.387,0.174-0.387,0.387c0,0.213,0.174,0.387,0.387,0.387h5.288v5.29c0,0.212,0.175,0.387,0.388,0.387
	s0.388-0.174,0.388-0.387v-5.29h5.289c0.213,0,0.387-0.174,0.387-0.387C159.869,90.07,159.695,89.896,159.482,89.896z"/>
<path fill="#FFBA1F" d="M178.339,155.574h-4.133v-4.133c0-0.165-0.136-0.301-0.301-0.301c-0.167,0-0.303,0.136-0.303,0.301v4.133
	h-4.132c-0.167,0-0.303,0.136-0.303,0.303c0,0.166,0.136,0.302,0.303,0.302h4.132v4.133c0,0.165,0.136,0.301,0.303,0.301
	c0.165,0,0.301-0.136,0.301-0.301v-4.133h4.133c0.166,0,0.303-0.136,0.303-0.302C178.642,155.71,178.505,155.574,178.339,155.574z"
	/>
<path fill="#FFBA1F" d="M49.733,135.842h-5.289v-5.29c0-0.212-0.174-0.386-0.387-0.386c-0.212,0-0.387,0.174-0.387,0.386v5.29
	h-5.289c-0.213,0-0.387,0.174-0.387,0.387s0.174,0.388,0.387,0.388h5.289v5.288c0,0.213,0.174,0.388,0.387,0.388
	c0.213,0,0.387-0.175,0.387-0.388v-5.288h5.289c0.213,0,0.387-0.175,0.387-0.388S49.946,135.842,49.733,135.842z"/>
<path fill="#FFBA1F" d="M56.052,128.881h-2.476v-2.477c0-0.099-0.082-0.18-0.181-0.18s-0.181,0.081-0.181,0.18v2.477h-2.476
	c-0.1,0-0.182,0.082-0.182,0.181c0,0.101,0.082,0.182,0.182,0.182h2.476v2.476c0,0.101,0.081,0.182,0.181,0.182
	s0.181-0.081,0.181-0.182v-2.476h2.476c0.1,0,0.182-0.081,0.182-0.182C56.234,128.963,56.152,128.881,56.052,128.881z"/>
<path fill="#26333B" d="M170.714,122.407H167.9v-2.814c0-0.112-0.092-0.205-0.206-0.205c-0.112,0-0.204,0.093-0.204,0.205v2.814
	h-2.814c-0.113,0-0.206,0.092-0.206,0.204c0,0.114,0.093,0.206,0.206,0.206h2.814v2.814c0,0.112,0.092,0.206,0.204,0.206
	c0.114,0,0.206-0.094,0.206-0.206v-2.814h2.813c0.113,0,0.206-0.092,0.206-0.206C170.92,122.499,170.827,122.407,170.714,122.407z"
	/>
<path fill="#26333B" d="M177.227,115.161h-1.497v-1.495c0-0.062-0.05-0.109-0.109-0.109s-0.109,0.048-0.109,0.109v1.495h-1.496
	c-0.061,0-0.109,0.051-0.109,0.11c0,0.061,0.049,0.109,0.109,0.109h1.496v1.497c0,0.06,0.05,0.109,0.109,0.109
	s0.109-0.05,0.109-0.109v-1.497h1.497c0.06,0,0.108-0.049,0.108-0.109C177.335,115.212,177.286,115.161,177.227,115.161z"/>
<path fill="#26333B" d="M34.035,88.278h-3.451v-3.451c0-0.139-0.114-0.253-0.252-0.253c-0.139,0-0.252,0.114-0.252,0.253v3.451
	h-3.451c-0.139,0-0.252,0.114-0.252,0.252c0,0.139,0.114,0.253,0.252,0.253h3.451v3.451c0,0.139,0.113,0.253,0.252,0.253
	c0.139,0,0.252-0.114,0.252-0.253v-3.451h3.451c0.139,0,0.253-0.114,0.253-0.253C34.288,88.392,34.174,88.278,34.035,88.278z"/>
<path fill="#26333B" d="M159.362,46.565h-1.586V44.98c0-0.063-0.053-0.116-0.116-0.116s-0.116,0.053-0.116,0.116v1.585h-1.585
	c-0.063,0-0.116,0.053-0.116,0.116c0,0.064,0.053,0.117,0.116,0.117h1.585v1.586c0,0.063,0.053,0.116,0.116,0.116
	s0.116-0.052,0.116-0.116v-1.586h1.586c0.064,0,0.115-0.053,0.115-0.117C159.478,46.618,159.427,46.565,159.362,46.565z"/>
<path fill="#26333B" d="M79.92,40.627h-2.066v-2.066c0-0.083-0.068-0.151-0.151-0.151c-0.083,0-0.15,0.068-0.15,0.151v2.066h-2.067
	c-0.083,0-0.15,0.068-0.15,0.151c0,0.083,0.068,0.15,0.15,0.15h2.067v2.066c0,0.083,0.067,0.151,0.15,0.151
	c0.083,0,0.151-0.068,0.151-0.151v-2.066h2.066c0.083,0,0.151-0.068,0.151-0.15C80.071,40.695,80.003,40.627,79.92,40.627z"/>
<g>
	<path fill="#FD5555" d="M63.451,58.664c-0.752,0.354-1.611,0.455-2.428,0.23c-2.042-0.568-3.001-2.771-3.32-4.928
		c-0.205-1.394,0.506-2.514,1.749-3.143c0.951-0.481,1.918-0.934,2.896-1.358c1.663-0.725,3.52-0.002,4.39,1.682
		c0.158,0.306,0.302,0.619,0.447,0.93c0.944,2.016,0.97,3.082-0.092,4.461c-0.344,0.447-0.794,0.794-1.299,1.031L63.451,58.664z"/>
	<path fill="#FD5555" d="M44.682,34.928c-1.02-1.152-2.051-2.321-2.751-3.691c-0.701-1.37-1.046-2.988-0.616-4.465
		c0.717-2.46,3.27-3.839,5.619-4.863c1.986-0.862,4.265-1.667,6.254-0.811c2.282,0.982,3.181,3.686,3.828,6.085
		c1.473,5.466,2.947,10.934,4.421,16.399c0.296,1.101,0.582,2.322,0.057,3.334c-0.621,1.197-2.968,2.122-4.285,1.751
		c-1.48-0.418-2.92-2.887-3.921-4.019C50.419,41.409,47.551,38.168,44.682,34.928z"/>
</g>
<g>
	<path fill="#FD5555" d="M148.45,74.294c-0.645-0.524-1.108-1.255-1.26-2.088c-0.372-2.086,1.196-3.907,3.002-5.129
		c1.167-0.789,2.484-0.634,3.591,0.214c0.846,0.648,1.674,1.324,2.479,2.021c1.374,1.184,1.527,3.171,0.388,4.685
		c-0.207,0.274-0.427,0.54-0.644,0.806c-1.407,1.725-2.357,2.209-4.061,1.85c-0.552-0.116-1.061-0.371-1.492-0.724L148.45,74.294z"
		/>
	<path fill="#FD5555" d="M161.704,47.091c0.597-1.419,1.203-2.855,2.134-4.079c0.931-1.226,2.238-2.238,3.757-2.49
		c2.527-0.42,4.877,1.282,6.817,2.955c1.638,1.416,3.351,3.121,3.442,5.284c0.104,2.483-1.942,4.464-3.824,6.088
		c-4.287,3.697-8.575,7.395-12.862,11.093c-0.863,0.744-1.84,1.531-2.98,1.497c-1.348-0.04-3.198-1.754-3.436-3.103
		c-0.264-1.515,1.336-3.883,1.923-5.274C158.352,55.071,160.027,51.081,161.704,47.091z"/>
</g>
<g>
	<path fill="#FD5555" d="M103.598,55.199c6.982,2.282,7.962,9.111,5.941,14.233c-1.396,3.537-4.052,5.631-7.472,6.731
		c-0.412,0.133-0.676,0.271-0.696,0.768c-0.05,1.204-0.999,1.973-2.128,2.286c-1.331,0.37-2.606,0.336-3.586-0.803
		c-0.443-0.515-0.863-1.178-0.992-1.838c-0.309-1.583-0.07-3.205-0.271-4.812c-0.066-0.536,0.081-0.797,0.675-0.869
		c1.675-0.203,3.289-0.654,4.677-1.734c0.875-0.68,1.562-1.52,1.898-2.627c0.59-1.939-0.344-3.469-2.275-3.743
		c-1.75-0.249-3.37,0.176-4.908,1.034c-0.961,0.537-1.95,0.875-3.063,0.578c-1.829-0.489-3.486-3.307-3.047-5.208
		c0.195-0.844,0.658-1.474,1.352-1.944c2.191-1.487,4.577-2.388,7.176-2.636C99.484,54.364,102.545,54.854,103.598,55.199z"/>
	<path fill="#FD5555" d="M96.933,88.166c-0.674,0-1.34-0.22-1.862-0.668c-1.306-1.12-1.254-3.068-0.745-4.764
		c0.329-1.095,1.236-1.673,2.367-1.708C97.557,81,98.423,81,99.287,81.023c1.473,0.041,2.589,1.21,2.647,2.748
		c0.012,0.278,0.009,0.558,0.009,0.837c0,1.806-0.347,2.598-1.603,3.247c-0.406,0.21-0.856,0.311-1.31,0.311H96.933z"/>
</g>
</svg>
