<?xml version="1.0" encoding="utf-8"?>
<!-- Generator: Adobe Illustrator 16.0.0, SVG Export Plug-In . SVG Version: 6.00 Build 0)  -->
<!DOCTYPE svg PUBLIC "-//W3C//DTD SVG 1.1//EN" "http://www.w3.org/Graphics/SVG/1.1/DTD/svg11.dtd">
<svg version="1.1" id="Layer_1" xmlns="http://www.w3.org/2000/svg" xmlns:xlink="http://www.w3.org/1999/xlink" x="0px" y="0px"
	 width="200px" height="136.998px" viewBox="0 0 200 136.998" enable-background="new 0 0 200 136.998" xml:space="preserve">
<path id="XMLID_70_" fill="#FFFFFF" d="M198.554,7.221v121.48c0,2.742-2.22,4.963-4.962,4.963H6.409
	c-2.741,0-4.962-2.221-4.962-4.963V7.221c0-2.741,2.221-4.962,4.962-4.962h187.183C196.334,2.259,198.554,4.48,198.554,7.221z"/>
<path id="XMLID_64_" fill="#ECEBF2" d="M31.903,2.259v131.405H6.409c-2.741,0-4.962-2.221-4.962-4.963V7.221
	c0-2.741,2.221-4.962,4.962-4.962H31.903z"/>
<path id="XMLID_90_" fill="#4655C4" d="M31.903,44.179L31.903,44.179c-0.094,0-0.171-0.077-0.171-0.171v-6.566
	c0-0.095,0.077-0.171,0.171-0.171l0,0c0.094,0,0.171,0.077,0.171,0.171v6.566C32.074,44.102,31.997,44.179,31.903,44.179z"/>
<path id="XMLID_32_" fill="#FF5555" d="M21.79,18.385h-9.701c-0.714,0-1.292-0.579-1.292-1.292V7.392
	c0-0.714,0.579-1.292,1.292-1.292h9.701c0.714,0,1.292,0.578,1.292,1.292v9.702C23.082,17.807,22.504,18.385,21.79,18.385z"/>
<rect id="XMLID_535_" x="13.741" y="9.589" fill="none" width="6.397" height="6.011"/>
<text id="XMLID_28_" transform="matrix(1 0 0 1 14.6201 14.6807)" fill="#FFFFFF" font-family="'Montserrat-Black'" font-size="7.1708">U</text>
<rect id="XMLID_532_" x="9.524" y="38.639" fill="none" width="16.881" height="7.871"/>
<text id="XMLID_22_" transform="matrix(1 0 0 1 13.626 41.0688)" fill="#4BB5FF" font-family="'Montserrat-Black'" font-size="3.422">Home</text>
<g id="XMLID_713_">
	<g id="XMLID_54_">
		<path id="XMLID_26_" fill="#4BB5FF" d="M19.225,59.651c-0.437,0-0.803-0.31-0.888-0.721l-0.607-0.063
			c-0.203,0.472-0.667,0.783-1.197,0.783c-0.719,0-1.304-0.584-1.304-1.303s0.585-1.304,1.304-1.304
			c0.189,0,0.374,0.041,0.544,0.117l0.924-0.73c-0.013-0.06-0.02-0.122-0.02-0.185c0-0.5,0.407-0.906,0.907-0.906
			c0.5,0,0.907,0.407,0.907,0.906c0,0.5-0.407,0.908-0.907,0.908c-0.132,0-0.26-0.03-0.378-0.085l-0.83,0.658
			c0.056,0.103,0.099,0.214,0.125,0.327l0.754,0.077c0.17-0.186,0.409-0.291,0.665-0.291c0.5,0,0.907,0.407,0.907,0.906
			S19.726,59.651,19.225,59.651z M18.835,58.617l-0.009,0.135c0,0.212,0.179,0.392,0.399,0.392c0.22,0,0.399-0.179,0.399-0.399
			s-0.179-0.399-0.399-0.399c-0.136,0-0.262,0.07-0.336,0.187L18.835,58.617z M16.533,57.551c-0.439,0-0.795,0.357-0.795,0.795
			c0,0.439,0.356,0.796,0.795,0.796c0.37,0,0.688-0.25,0.775-0.609l0.027-0.114l-0.006-0.121c-0.008-0.167-0.074-0.332-0.185-0.462
			l-0.083-0.099l-0.096-0.062C16.838,57.594,16.688,57.551,16.533,57.551z M18.57,56.5l0.078,0.058
			c0.05,0.039,0.133,0.085,0.242,0.085c0.22,0,0.399-0.179,0.399-0.399c0-0.219-0.179-0.398-0.399-0.398s-0.399,0.179-0.399,0.398
			c0,0.056,0.013,0.112,0.038,0.166L18.57,56.5z"/>
	</g>
</g>
<g id="XMLID_685_">
	<g id="XMLID_52_">
		<path id="XMLID_45_" fill="#4BB5FF" d="M17.916,86.768h-0.471c-0.22,0-0.411-0.163-0.442-0.381l-0.058-0.382l-0.308,0.229
			c-0.191,0.133-0.423,0.105-0.575-0.036l-0.344-0.34c-0.158-0.159-0.176-0.41-0.043-0.586l0.23-0.309l-0.38-0.056
			c-0.218-0.031-0.383-0.221-0.383-0.442v-0.476c0-0.221,0.165-0.411,0.384-0.442l0.375-0.054l-0.231-0.311
			c-0.13-0.184-0.109-0.426,0.046-0.582l0.339-0.335c0.16-0.153,0.402-0.172,0.578-0.045l0.311,0.231l0.058-0.382
			c0.032-0.218,0.217-0.379,0.442-0.379h0.471c0.225,0,0.411,0.161,0.443,0.381l0.058,0.38l0.312-0.229
			c0.18-0.129,0.422-0.111,0.577,0.043l0.339,0.334c0.159,0.165,0.175,0.408,0.044,0.583l-0.23,0.31l0.375,0.054
			c0.219,0.031,0.385,0.221,0.385,0.442v0.476c0,0.221-0.166,0.412-0.385,0.442l-0.378,0.056l0.23,0.309
			c0.135,0.171,0.119,0.425-0.04,0.585l-0.342,0.336c-0.146,0.146-0.408,0.166-0.579,0.039l-0.309-0.228l-0.059,0.383
			C18.327,86.604,18.136,86.768,17.916,86.768z M17.498,86.259h0.366l0.113-0.741l0.141-0.051c0.041-0.016,0.08-0.03,0.116-0.049
			l0.141-0.075l0.612,0.45l0.262-0.258l-0.452-0.608l0.068-0.139c0.021-0.041,0.037-0.082,0.053-0.125l0.052-0.142l0.742-0.11v-0.37
			l-0.749-0.108l-0.048-0.151c-0.014-0.043-0.032-0.083-0.05-0.123l-0.06-0.136l0.445-0.602l-0.264-0.259l-0.604,0.444l-0.137-0.064
			c-0.037-0.017-0.076-0.035-0.116-0.048l-0.151-0.048l-0.114-0.749h-0.366l-0.112,0.738l-0.137,0.053
			c-0.043,0.017-0.085,0.033-0.126,0.054l-0.14,0.069l-0.605-0.45l-0.264,0.262l0.445,0.6l-0.061,0.136
			c-0.018,0.04-0.036,0.079-0.05,0.123l-0.048,0.151l-0.749,0.108v0.37l0.741,0.11l0.052,0.142c0.016,0.042,0.03,0.083,0.049,0.119
			l0.076,0.143l-0.455,0.61l0.263,0.26l0.601-0.444l0.136,0.06c0.041,0.019,0.082,0.037,0.123,0.051l0.148,0.049L17.498,86.259z
			 M17.684,85.333c-0.048,0-0.097-0.003-0.146-0.01c-0.045-0.004-0.094-0.015-0.143-0.028c-0.083-0.021-0.175-0.059-0.268-0.112
			c-0.051-0.03-0.099-0.063-0.142-0.098l-0.015-0.002l-0.075-0.078c-0.06-0.063-0.115-0.134-0.163-0.211l-0.037-0.068
			c-0.036-0.069-0.064-0.143-0.083-0.222c-0.023-0.081-0.037-0.177-0.037-0.275s0.013-0.195,0.039-0.287
			c0.024-0.098,0.062-0.191,0.109-0.272c0.103-0.168,0.238-0.302,0.403-0.397c0.083-0.048,0.174-0.087,0.27-0.113
			c0.122-0.036,0.278-0.045,0.421-0.029c0.019,0.002,0.037,0.005,0.055,0.01c0.046,0.009,0.073,0.015,0.101,0.024
			c0.087,0.02,0.182,0.059,0.271,0.117c0.034,0.019,0.073,0.045,0.109,0.072c0.109,0.082,0.205,0.189,0.281,0.317
			c0.048,0.08,0.085,0.171,0.113,0.278c0.024,0.089,0.037,0.186,0.037,0.281c0,0.097-0.014,0.192-0.039,0.285
			c-0.025,0.102-0.064,0.195-0.119,0.28c-0.09,0.158-0.224,0.292-0.393,0.389c-0.082,0.052-0.173,0.09-0.278,0.115
			C17.874,85.32,17.781,85.333,17.684,85.333z M17.241,84.629l0.021,0.021c0.035,0.035,0.074,0.066,0.121,0.093
			c0.047,0.027,0.1,0.05,0.143,0.061c0.025,0.006,0.047,0.012,0.07,0.014c0.085,0.011,0.165,0.006,0.232-0.012
			c0.062-0.017,0.103-0.032,0.139-0.056l0.014-0.008c0.09-0.05,0.162-0.122,0.212-0.211c0.031-0.049,0.049-0.092,0.063-0.148
			c0.015-0.055,0.022-0.104,0.022-0.155c0-0.051-0.007-0.104-0.019-0.15c-0.016-0.06-0.035-0.109-0.059-0.149
			c-0.042-0.07-0.094-0.128-0.153-0.174c-0.023-0.018-0.045-0.031-0.067-0.044c-0.047-0.029-0.088-0.046-0.137-0.058
			c-0.027-0.008-0.039-0.01-0.051-0.012c0.005,0.001-0.016-0.002-0.032-0.007c-0.071-0.008-0.164-0.004-0.226,0.015
			c-0.055,0.015-0.104,0.035-0.15,0.062c-0.092,0.053-0.167,0.126-0.223,0.219c-0.023,0.038-0.042,0.086-0.055,0.141
			c-0.015,0.053-0.022,0.105-0.022,0.157c0,0.051,0.007,0.1,0.021,0.146c0.012,0.05,0.026,0.088,0.045,0.124l0.05,0.05l0.002,0.033
			C17.213,84.597,17.227,84.614,17.241,84.629z"/>
	</g>
</g>
<g id="XMLID_24_">
	<path id="XMLID_25_" fill="#4BB5FF" d="M17.145,71.208h1.07l-0.127-0.685c0.084-0.096,0.131-0.22,0.131-0.351
		c0-0.296-0.242-0.538-0.539-0.538c-0.297,0-0.539,0.242-0.539,0.538c0,0.131,0.047,0.254,0.13,0.35L17.145,71.208z"/>
	<path id="XMLID_68_" fill="#4BB5FF" d="M19.255,68.85c-0.017-0.854-0.717-1.542-1.575-1.542c-0.857,0-1.558,0.689-1.575,1.543
		c-0.217,0.043-0.381,0.234-0.381,0.463v2.279c0,0.262,0.212,0.474,0.474,0.474h2.966c0.261,0,0.474-0.212,0.474-0.474v-2.279
		C19.637,69.085,19.473,68.894,19.255,68.85z M17.68,68.167c0.381,0,0.694,0.299,0.716,0.674h-1.432
		C16.986,68.466,17.299,68.167,17.68,68.167z M19.129,71.559h-2.897V69.35h2.897V71.559z"/>
</g>
<circle id="XMLID_23_" fill="#4BB5FF" cx="18.236" cy="48.97" r="0.692"/>
<g id="XMLID_61_">
	<path id="XMLID_30_" fill="none" stroke="#4BB5FF" stroke-width="1.3489" stroke-miterlimit="10" d="M18.594,119.244v0.998
		c0,0.326-0.264,0.59-0.589,0.59h-1.781c-0.325,0-0.588-0.264-0.588-0.59v-3.328c0-0.324,0.264-0.586,0.588-0.586h1.781
		c0.325,0,0.589,0.262,0.589,0.586v0.885"/>
	<g id="XMLID_60_">
		
			<line id="XMLID_55_" fill="none" stroke="#4BB5FF" stroke-width="1.3489" stroke-miterlimit="10" x1="17.38" y1="118.578" x2="19.725" y2="118.578"/>
		<polyline id="XMLID_59_" fill="none" stroke="#4BB5FF" stroke-width="1.3489" stroke-miterlimit="10" points="19.06,117.859 
			19.725,118.578 19.06,119.299 		"/>
	</g>
</g>
<g id="XMLID_89_">
	<g id="XMLID_87_">
		<path id="XMLID_79_" fill="none" stroke="#342F4C" stroke-width="1.3489" stroke-miterlimit="10" d="M19.1,31.189h-2.271v-1.445
			c0-0.627,0.508-1.136,1.136-1.136l0,0c0.627,0,1.135,0.508,1.135,1.136V31.189z"/>
		<path id="XMLID_86_" fill="none" stroke="#342F4C" stroke-width="1.3489" stroke-miterlimit="10" d="M19.151,31.953h-2.374
			c-0.211,0-0.382-0.17-0.382-0.381l0,0c0-0.211,0.171-0.382,0.382-0.382h2.374c0.211,0,0.382,0.171,0.382,0.382l0,0
			C19.534,31.783,19.363,31.953,19.151,31.953z"/>
		<path id="XMLID_85_" fill="none" stroke="#342F4C" stroke-width="1.3489" stroke-miterlimit="10" d="M17.965,32.441L17.965,32.441
			c-0.146,0-0.264-0.118-0.264-0.263v-0.225h0.526v0.225C18.228,32.323,18.11,32.441,17.965,32.441z"/>
	</g>
	<circle id="XMLID_88_" fill="#FF6F43" cx="17.965" cy="29.668" r="0.587"/>
</g>
<path id="XMLID_73_" fill="#8C99E0" d="M85.955,121.916H45.918c-2.502,0-4.53-2.029-4.53-4.531V64.181c0-2.501,2.028-4.53,4.53-4.53
	h40.037c2.502,0,4.53,2.029,4.53,4.53v53.204C90.485,119.887,88.457,121.916,85.955,121.916z"/>
<polyline id="XMLID_91_" fill="none" stroke="#FF6F43" stroke-width="2.0831" stroke-miterlimit="10" points="48.17,91.667 
	49.14,92.638 50.994,90.784 "/>
<polyline id="XMLID_100_" fill="none" stroke="#FF6F43" stroke-width="2.0831" stroke-miterlimit="10" points="48.17,96.858 
	49.14,97.827 50.994,95.973 "/>
<polyline id="XMLID_104_" fill="none" stroke="#FF6F43" stroke-width="2.0831" stroke-miterlimit="10" points="48.17,102.047 
	49.14,103.018 50.994,101.164 "/>
<polyline id="XMLID_108_" fill="none" stroke="#FF6F43" stroke-width="2.0831" stroke-miterlimit="10" points="48.17,107.238 
	49.14,108.207 50.994,106.352 "/>
<polyline id="XMLID_112_" fill="none" stroke="#FF6F43" stroke-width="2.0831" stroke-miterlimit="10" points="48.17,112.426 
	49.14,113.398 50.994,111.545 "/>
<rect id="XMLID_463_" x="55.972" y="63.857" fill="none" width="31.254" height="18.934"/>
<text id="XMLID_113_" transform="matrix(1 0 0 1 75.6396 71.8745)" fill="#FFFFFF" font-family="'Montserrat-Black'" font-size="11.2926">03</text>
<g>
	<path fill="#FFFFFF" d="M50.26,76.503c-0.021-0.386-0.045-0.85-0.041-1.194h-0.013c-0.094,0.324-0.209,0.669-0.349,1.051
		l-0.489,1.342h-0.271l-0.448-1.317c-0.131-0.39-0.242-0.747-0.32-1.075h-0.008c-0.008,0.345-0.029,0.809-0.053,1.223l-0.074,1.186
		h-0.34l0.193-2.767h0.456l0.472,1.338c0.115,0.34,0.209,0.644,0.279,0.932h0.012c0.07-0.279,0.168-0.583,0.292-0.932l0.493-1.338
		h0.456l0.172,2.767H50.33L50.26,76.503z"/>
	<path fill="#FFFFFF" d="M53.04,76.708c0,0.735-0.509,1.055-0.989,1.055c-0.538,0-0.953-0.394-0.953-1.022
		c0-0.665,0.436-1.055,0.985-1.055C52.653,75.686,53.04,76.101,53.04,76.708z M51.463,76.729c0,0.435,0.25,0.764,0.603,0.764
		c0.345,0,0.604-0.324,0.604-0.772c0-0.336-0.168-0.763-0.595-0.763S51.463,76.351,51.463,76.729z"/>
	<path fill="#FFFFFF" d="M53.496,76.269c0-0.206-0.004-0.374-0.017-0.538h0.32l0.021,0.329h0.008
		c0.098-0.189,0.328-0.374,0.657-0.374c0.275,0,0.702,0.164,0.702,0.846v1.186h-0.361v-1.145c0-0.32-0.119-0.587-0.459-0.587
		c-0.238,0-0.423,0.168-0.484,0.369c-0.017,0.045-0.025,0.107-0.025,0.168v1.194h-0.361V76.269z"/>
	<path fill="#FFFFFF" d="M56.194,75.161v0.57h0.517v0.275h-0.517v1.071c0,0.246,0.07,0.386,0.271,0.386
		c0.094,0,0.164-0.012,0.209-0.025l0.017,0.271c-0.07,0.029-0.181,0.049-0.32,0.049c-0.168,0-0.304-0.053-0.39-0.152
		c-0.103-0.107-0.14-0.283-0.14-0.517v-1.083h-0.308v-0.275h0.308v-0.476L56.194,75.161z"/>
	<path fill="#FFFFFF" d="M57.118,74.804h0.361v1.239h0.008c0.058-0.103,0.148-0.193,0.259-0.254
		c0.106-0.062,0.234-0.103,0.369-0.103c0.267,0,0.694,0.164,0.694,0.85v1.182h-0.361v-1.141c0-0.32-0.119-0.591-0.459-0.591
		c-0.234,0-0.419,0.164-0.484,0.361c-0.021,0.049-0.025,0.103-0.025,0.172v1.199h-0.361V74.804z"/>
	<path fill="#FFFFFF" d="M59.397,74.804h0.361v2.914h-0.361V74.804z"/>
	<path fill="#FFFFFF" d="M60.498,75.731l0.435,1.174c0.045,0.131,0.094,0.287,0.127,0.406h0.008
		c0.037-0.119,0.078-0.271,0.127-0.415l0.394-1.166h0.381l-0.542,1.417c-0.259,0.681-0.435,1.03-0.682,1.244
		c-0.176,0.156-0.353,0.217-0.443,0.234l-0.09-0.304c0.09-0.029,0.209-0.086,0.316-0.177c0.099-0.078,0.222-0.217,0.304-0.402
		c0.017-0.037,0.029-0.065,0.029-0.086s-0.008-0.049-0.025-0.094l-0.734-1.831H60.498z"/>
	<path fill="#FFFFFF" d="M47.928,79.912c0.172-0.028,0.398-0.053,0.686-0.053c0.353,0,0.611,0.082,0.776,0.23
		c0.152,0.131,0.242,0.333,0.242,0.579c0,0.25-0.074,0.447-0.213,0.591c-0.188,0.201-0.497,0.304-0.845,0.304
		c-0.107,0-0.206-0.004-0.288-0.025v1.108h-0.357V79.912z M48.285,81.246c0.078,0.021,0.177,0.029,0.295,0.029
		c0.431,0,0.694-0.209,0.694-0.591c0-0.365-0.258-0.542-0.652-0.542c-0.156,0-0.275,0.012-0.337,0.029V81.246z"/>
	<path fill="#FFFFFF" d="M50.035,81.279c0-0.234-0.004-0.435-0.017-0.62h0.316l0.013,0.39h0.016c0.09-0.267,0.308-0.435,0.55-0.435
		c0.041,0,0.07,0.004,0.103,0.012v0.341c-0.037-0.008-0.074-0.012-0.123-0.012c-0.255,0-0.435,0.193-0.484,0.464
		c-0.008,0.049-0.017,0.106-0.017,0.168v1.059h-0.357V81.279z"/>
	<path fill="#FFFFFF" d="M53.135,81.636c0,0.735-0.509,1.055-0.989,1.055c-0.538,0-0.953-0.394-0.953-1.022
		c0-0.665,0.435-1.055,0.985-1.055C52.749,80.614,53.135,81.028,53.135,81.636z M51.559,81.656c0,0.435,0.25,0.764,0.603,0.764
		c0.345,0,0.604-0.324,0.604-0.772c0-0.336-0.168-0.763-0.595-0.763S51.559,81.279,51.559,81.656z"/>
	<path fill="#FFFFFF" d="M55.302,80.659c-0.008,0.144-0.017,0.304-0.017,0.546v1.154c0,0.456-0.09,0.734-0.283,0.907
		c-0.193,0.181-0.472,0.238-0.722,0.238c-0.238,0-0.501-0.058-0.661-0.164l0.09-0.275c0.131,0.083,0.337,0.156,0.583,0.156
		c0.37,0,0.64-0.193,0.64-0.694v-0.222h-0.008c-0.111,0.185-0.324,0.333-0.632,0.333c-0.493,0-0.846-0.418-0.846-0.969
		c0-0.673,0.439-1.055,0.895-1.055c0.345,0,0.534,0.181,0.62,0.345h0.008l0.017-0.3H55.302z M54.929,81.443
		c0-0.062-0.004-0.115-0.021-0.164c-0.065-0.209-0.242-0.382-0.505-0.382c-0.345,0-0.591,0.292-0.591,0.751
		c0,0.39,0.197,0.714,0.587,0.714c0.222,0,0.423-0.14,0.5-0.37c0.021-0.062,0.029-0.131,0.029-0.193V81.443z"/>
	<path fill="#FFFFFF" d="M55.862,81.279c0-0.234-0.004-0.435-0.017-0.62h0.316l0.013,0.39h0.016c0.09-0.267,0.308-0.435,0.55-0.435
		c0.041,0,0.069,0.004,0.103,0.012v0.341c-0.037-0.008-0.074-0.012-0.123-0.012c-0.255,0-0.436,0.193-0.484,0.464
		c-0.008,0.049-0.017,0.106-0.017,0.168v1.059h-0.357V81.279z"/>
	<path fill="#FFFFFF" d="M57.365,81.718c0.008,0.489,0.32,0.689,0.681,0.689c0.259,0,0.415-0.045,0.55-0.103l0.062,0.259
		c-0.127,0.058-0.345,0.123-0.661,0.123c-0.611,0-0.977-0.402-0.977-1.001s0.353-1.071,0.932-1.071c0.648,0,0.821,0.57,0.821,0.936
		c0,0.074-0.008,0.131-0.012,0.168H57.365z M58.423,81.459c0.004-0.23-0.094-0.587-0.5-0.587c-0.365,0-0.525,0.336-0.554,0.587
		H58.423z"/>
	<path fill="#FFFFFF" d="M59.171,82.276c0.106,0.07,0.295,0.144,0.476,0.144c0.263,0,0.386-0.131,0.386-0.296
		c0-0.172-0.103-0.267-0.369-0.365c-0.357-0.127-0.525-0.324-0.525-0.562c0-0.32,0.258-0.583,0.685-0.583
		c0.201,0,0.378,0.058,0.489,0.123L60.222,81c-0.078-0.049-0.222-0.115-0.406-0.115c-0.214,0-0.333,0.123-0.333,0.271
		c0,0.164,0.119,0.238,0.377,0.336c0.345,0.131,0.521,0.304,0.521,0.599c0,0.349-0.271,0.595-0.743,0.595
		c-0.217,0-0.418-0.053-0.558-0.135L59.171,82.276z"/>
	<path fill="#FFFFFF" d="M60.797,82.276c0.106,0.07,0.295,0.144,0.476,0.144c0.263,0,0.386-0.131,0.386-0.296
		c0-0.172-0.103-0.267-0.369-0.365c-0.357-0.127-0.525-0.324-0.525-0.562c0-0.32,0.258-0.583,0.685-0.583
		c0.201,0,0.378,0.058,0.489,0.123L61.848,81c-0.078-0.049-0.222-0.115-0.406-0.115c-0.214,0-0.333,0.123-0.333,0.271
		c0,0.164,0.119,0.238,0.377,0.336c0.345,0.131,0.521,0.304,0.521,0.599c0,0.349-0.271,0.595-0.743,0.595
		c-0.217,0-0.418-0.053-0.558-0.135L60.797,82.276z"/>
</g>
<rect id="XMLID_132_" x="48.17" y="71.559" fill="#FF6F43" width="8.371" height="0.508"/>
<path id="XMLID_21_" fill="#ECEBF2" d="M122.874,16.064H44.738c-1.85,0-3.35-1.5-3.35-3.351l0,0c0-1.85,1.5-3.351,3.35-3.351h78.136
	c1.851,0,3.351,1.5,3.351,3.351l0,0C126.225,14.564,124.725,16.064,122.874,16.064z"/>
<g id="XMLID_20_">
	
		<circle id="XMLID_18_" fill="none" stroke="#342F4C" stroke-width="1.3374" stroke-linecap="round" stroke-linejoin="round" stroke-miterlimit="10" cx="44.789" cy="12.355" r="1.08"/>
	
		<line id="XMLID_19_" fill="none" stroke="#342F4C" stroke-width="1.3374" stroke-linecap="round" stroke-linejoin="round" stroke-miterlimit="10" x1="45.494" y1="13.174" x2="46.472" y2="14.151"/>
</g>
<radialGradient id="XMLID_4_" cx="167.5" cy="15.3823" r="8.2412" gradientUnits="userSpaceOnUse">
	<stop  offset="0" style="stop-color:#96949C"/>
	<stop  offset="0.2988" style="stop-color:#BFBEC3;stop-opacity:0.7012"/>
	<stop  offset="0.5975" style="stop-color:#E2E1E4;stop-opacity:0.4025"/>
	<stop  offset="0.8417" style="stop-color:#F7F7F8;stop-opacity:0.1583"/>
	<stop  offset="1" style="stop-color:#FFFFFF;stop-opacity:0"/>
</radialGradient>
<circle id="XMLID_82_" fill="url(#XMLID_4_)" cx="167.5" cy="15.383" r="8.241"/>
<circle id="XMLID_81_" fill="#D7E8F4" cx="167.5" cy="13.047" r="4.937"/>
<circle id="XMLID_222_" fill="#FFFFFF" cx="167.5" cy="13.047" r="3.136"/>
<g id="XMLID_145_">
	<path id="XMLID_157_" fill="#ECEBF2" d="M152.058,11.475h-5.918c-0.285,0-0.518-0.231-0.518-0.518l0,0
		c0-0.286,0.232-0.518,0.518-0.518h5.918c0.285,0,0.517,0.231,0.517,0.518l0,0C152.574,11.244,152.343,11.475,152.058,11.475z"/>
	<path id="XMLID_158_" fill="#ECEBF2" d="M152.058,13.429h-5.918c-0.285,0-0.518-0.232-0.518-0.518l0,0
		c0-0.286,0.232-0.518,0.518-0.518h5.918c0.285,0,0.517,0.231,0.517,0.518l0,0C152.574,13.197,152.343,13.429,152.058,13.429z"/>
	<path id="XMLID_159_" fill="#ECEBF2" d="M152.058,15.383h-5.918c-0.285,0-0.518-0.232-0.518-0.518l0,0
		c0-0.286,0.232-0.518,0.518-0.518h5.918c0.285,0,0.517,0.231,0.517,0.518l0,0C152.574,15.151,152.343,15.383,152.058,15.383z"/>
</g>
<g id="XMLID_77_">
	<path id="XMLID_72_" fill="none" stroke="#D7E8F4" stroke-miterlimit="10" d="M188.572,18.357h-8.096
		c-0.813,0-1.472-0.659-1.472-1.472V8.79c0-0.813,0.658-1.471,1.472-1.471h8.096c0.813,0,1.471,0.658,1.471,1.471v8.096
		C190.043,17.698,189.385,18.357,188.572,18.357z"/>
	<g id="XMLID_76_">
		<line id="XMLID_74_" fill="none" stroke="#D7E8F4" stroke-miterlimit="10" x1="184.523" y1="11.241" x2="184.523" y2="14.435"/>
		<line id="XMLID_75_" fill="none" stroke="#D7E8F4" stroke-miterlimit="10" x1="186.12" y1="12.837" x2="182.926" y2="12.837"/>
	</g>
</g>
<path id="XMLID_92_" fill="#ECEBF2" d="M187.263,121.916h-26.47c-2.643,0-4.785-2.145-4.785-4.787v-85.09
	c0-2.643,2.143-4.786,4.785-4.786h26.47c2.643,0,4.786,2.143,4.786,4.786v85.09C192.049,119.771,189.905,121.916,187.263,121.916z"
	/>
<path id="XMLID_284_" fill="#FFC107" d="M188.545,78h-29.033c-1.936,0-3.504-1.569-3.504-3.504V30.757
	c0-1.935,1.568-3.504,3.504-3.504h29.033c1.935,0,3.504,1.569,3.504,3.504v43.739C192.049,76.431,190.479,78,188.545,78z"/>
<g id="XMLID_246_">
	<g id="XMLID_10_">
		<path id="XMLID_162_" fill="#FFFFFF" d="M166.028,54.85h-5.944c-0.693,0-1.257-0.562-1.257-1.256v-5.943
			c0-0.694,0.563-1.256,1.257-1.256h5.944c0.692,0,1.256,0.563,1.256,1.256v5.943C167.284,54.288,166.721,54.85,166.028,54.85z"/>
		<g id="XMLID_11_">
			<g id="XMLID_12_">
				<path id="XMLID_13_" fill="#342F4C" d="M163.291,53.161h-0.471c-0.22,0-0.41-0.163-0.442-0.379L162.32,52.4l-0.308,0.227
					c-0.19,0.133-0.423,0.107-0.575-0.035l-0.345-0.34c-0.156-0.158-0.174-0.41-0.042-0.586l0.229-0.307l-0.379-0.056
					c-0.218-0.032-0.384-0.221-0.384-0.443v-0.477c0-0.22,0.166-0.41,0.384-0.441l0.375-0.054l-0.229-0.312
					c-0.13-0.182-0.108-0.425,0.046-0.582l0.339-0.335c0.16-0.153,0.402-0.17,0.577-0.045l0.312,0.232l0.058-0.382
					c0.032-0.219,0.218-0.38,0.442-0.38h0.471c0.225,0,0.411,0.161,0.443,0.382l0.058,0.379l0.31-0.229
					c0.182-0.129,0.424-0.109,0.58,0.044l0.338,0.333c0.159,0.165,0.176,0.409,0.045,0.584l-0.23,0.311l0.375,0.054
					c0.22,0.032,0.385,0.221,0.385,0.441v0.477c0,0.222-0.165,0.411-0.385,0.443l-0.377,0.056l0.229,0.308
					c0.137,0.171,0.12,0.424-0.04,0.584l-0.342,0.337c-0.146,0.146-0.407,0.167-0.579,0.039l-0.308-0.228l-0.058,0.385
					C163.701,52.998,163.511,53.161,163.291,53.161z M162.872,52.654h0.367l0.112-0.742l0.14-0.052
					c0.042-0.015,0.081-0.03,0.117-0.048l0.14-0.076l0.614,0.451l0.262-0.259l-0.453-0.607l0.069-0.14
					c0.021-0.041,0.037-0.081,0.053-0.124l0.052-0.142l0.741-0.11v-0.37l-0.749-0.108l-0.048-0.152
					c-0.014-0.042-0.032-0.083-0.051-0.123l-0.06-0.135l0.446-0.603l-0.266-0.26l-0.602,0.444l-0.138-0.064
					c-0.037-0.017-0.076-0.034-0.116-0.047l-0.15-0.047l-0.114-0.75h-0.367l-0.112,0.738l-0.136,0.054
					c-0.043,0.016-0.085,0.032-0.128,0.052l-0.139,0.069l-0.604-0.45l-0.265,0.263l0.445,0.601l-0.061,0.135
					c-0.018,0.04-0.036,0.081-0.05,0.123l-0.048,0.152l-0.748,0.108v0.37l0.74,0.11l0.052,0.142
					c0.015,0.041,0.029,0.082,0.049,0.119l0.074,0.141l-0.454,0.61l0.264,0.26l0.601-0.443l0.136,0.059
					c0.04,0.019,0.081,0.038,0.123,0.05l0.148,0.049L162.872,52.654z M163.06,51.727c-0.05,0-0.098-0.003-0.146-0.008
					c-0.045-0.005-0.094-0.016-0.143-0.029c-0.084-0.022-0.176-0.06-0.268-0.113c-0.052-0.03-0.1-0.062-0.143-0.097l-0.015-0.002
					l-0.075-0.079c-0.06-0.062-0.115-0.132-0.163-0.211l-0.037-0.067c-0.036-0.07-0.063-0.144-0.083-0.222
					c-0.022-0.082-0.037-0.178-0.037-0.276c0-0.099,0.015-0.194,0.039-0.287c0.025-0.097,0.063-0.19,0.111-0.271
					c0.103-0.169,0.237-0.302,0.402-0.398c0.083-0.048,0.175-0.087,0.27-0.112c0.122-0.036,0.279-0.045,0.422-0.029
					c0.019,0.002,0.037,0.005,0.056,0.01c0.046,0.009,0.072,0.015,0.101,0.023c0.087,0.021,0.181,0.06,0.271,0.116
					c0.032,0.02,0.073,0.045,0.107,0.073c0.11,0.081,0.205,0.189,0.283,0.316c0.048,0.081,0.084,0.171,0.112,0.279
					c0.023,0.089,0.037,0.187,0.037,0.28c0,0.097-0.014,0.193-0.039,0.285c-0.026,0.102-0.064,0.195-0.119,0.28
					c-0.089,0.158-0.223,0.292-0.393,0.388c-0.082,0.052-0.173,0.09-0.278,0.116C163.25,51.715,163.155,51.727,163.06,51.727z
					 M162.615,51.025l0.021,0.02c0.035,0.036,0.074,0.066,0.121,0.093c0.047,0.027,0.1,0.05,0.143,0.061
					c0.026,0.007,0.048,0.013,0.07,0.015c0.085,0.011,0.165,0.005,0.232-0.013c0.062-0.015,0.103-0.033,0.139-0.055l0.014-0.009
					c0.091-0.051,0.162-0.122,0.213-0.211c0.031-0.05,0.049-0.092,0.063-0.147c0.016-0.055,0.021-0.104,0.021-0.156
					c0-0.051-0.007-0.104-0.019-0.15c-0.017-0.061-0.036-0.109-0.059-0.148c-0.042-0.07-0.094-0.129-0.154-0.174
					c-0.022-0.019-0.046-0.032-0.066-0.044c-0.048-0.03-0.089-0.047-0.137-0.058c-0.027-0.009-0.039-0.01-0.051-0.012
					c0.004,0-0.017-0.003-0.031-0.007c-0.071-0.008-0.164-0.004-0.227,0.014c-0.054,0.015-0.104,0.036-0.15,0.063
					c-0.092,0.053-0.166,0.127-0.223,0.22c-0.022,0.038-0.042,0.085-0.055,0.14c-0.015,0.054-0.022,0.104-0.022,0.157
					c0,0.052,0.008,0.101,0.021,0.146c0.012,0.05,0.025,0.088,0.045,0.124l0.05,0.051l0.003,0.031
					C162.59,50.991,162.603,51.008,162.615,51.025z"/>
			</g>
		</g>
	</g>
	<g id="XMLID_245_">
		<g id="XMLID_163_">
			<g id="XMLID_164_">
				<rect id="XMLID_408_" x="156.008" y="35.278" fill="none" width="36.041" height="8.901"/>
				
					<text id="XMLID_9_" transform="matrix(1 0 0 1 166.7949 38.1934)" fill="#FFFFFF" font-family="'Montserrat-Black'" font-size="4.1064">Controls</text>
				<rect id="XMLID_406_" x="156.008" y="39.728" fill="none" width="36.041" height="2.634"/>
				
					<text id="XMLID_166_" transform="matrix(1 0 0 1 166.7383 41.4287)" opacity="0.5" fill="#FFFFFF" font-family="'Montserrat-Medium'" font-size="2.3954">Dolor Sit Amet</text>
			</g>
		</g>
		<g id="XMLID_160_">
			<path id="XMLID_143_" fill="#FFFFFF" d="M183.258,73.282h-18.459c-2.437,0-4.41-1.973-4.41-4.409l0,0
				c0-2.435,1.974-4.41,4.41-4.41h18.459c2.436,0,4.408,1.975,4.408,4.41l0,0C187.666,71.309,185.693,73.282,183.258,73.282z"/>
			<g id="XMLID_144_">
				<rect id="XMLID_36_" x="163.41" y="67.963" fill="none" width="20.316" height="4.319"/>
				<text transform="matrix(1 0 0 1 167.3008 69.6641)" fill="#342F4C" font-family="'Montserrat-Bold'" font-size="2.3954">Edit Settings</text>
			</g>
		</g>
		<g id="XMLID_161_" opacity="0.5">
			<rect id="XMLID_35_" x="156.008" y="58.534" fill="none" width="36.041" height="2.236"/>
			<text transform="matrix(1 0 0 1 164.2344 59.7485)" fill="#FFFFFF" font-family="'Montserrat-Medium'" font-size="1.711">Lorem ipsum dolor sit amet</text>
		</g>
		<g id="XMLID_205_">
			<path id="XMLID_208_" fill="#FFFFFF" d="M176.462,54.85h-5.944c-0.694,0-1.256-0.562-1.256-1.256v-5.943
				c0-0.694,0.562-1.256,1.256-1.256h5.944c0.693,0,1.256,0.563,1.256,1.256v5.943C177.718,54.288,177.155,54.85,176.462,54.85z"/>
			<g id="XMLID_218_">
				<path id="XMLID_224_" fill="#342F4C" d="M173.032,51.792h1.07l-0.128-0.684c0.085-0.096,0.131-0.22,0.131-0.351
					c0-0.297-0.24-0.539-0.538-0.539c-0.297,0-0.539,0.242-0.539,0.539c0,0.13,0.047,0.253,0.13,0.349L173.032,51.792z"/>
				<path id="XMLID_219_" fill="#342F4C" d="M175.143,49.435c-0.018-0.854-0.718-1.542-1.575-1.542s-1.559,0.688-1.575,1.543
					c-0.218,0.042-0.382,0.235-0.382,0.463v2.279c0,0.261,0.213,0.474,0.475,0.474h2.966c0.261,0,0.474-0.212,0.474-0.474v-2.279
					C175.524,49.67,175.359,49.478,175.143,49.435z M173.567,48.751c0.381,0,0.694,0.299,0.715,0.674h-1.43
					C172.873,49.051,173.186,48.751,173.567,48.751z M175.016,52.144h-2.896v-2.209h2.896V52.144z"/>
			</g>
		</g>
		<g id="XMLID_196_">
			<path id="XMLID_217_" fill="#FFFFFF" d="M186.894,54.85h-5.942c-0.694,0-1.256-0.562-1.256-1.256v-5.943
				c0-0.694,0.562-1.256,1.256-1.256h5.942c0.695,0,1.257,0.563,1.257,1.256v5.943C188.15,54.288,187.589,54.85,186.894,54.85z"/>
			<g id="XMLID_197_">
				<g id="XMLID_198_">
					<path id="XMLID_199_" fill="#342F4C" d="M185.665,52.431c-0.438,0-0.803-0.31-0.889-0.722l-0.606-0.063
						c-0.203,0.471-0.668,0.784-1.198,0.784c-0.719,0-1.304-0.585-1.304-1.304s0.585-1.304,1.304-1.304
						c0.19,0,0.376,0.04,0.544,0.118l0.925-0.731c-0.013-0.061-0.02-0.122-0.02-0.184c0-0.5,0.407-0.908,0.907-0.908
						c0.502,0,0.907,0.409,0.907,0.908s-0.405,0.907-0.907,0.907c-0.131,0-0.26-0.029-0.377-0.085l-0.831,0.658
						c0.056,0.103,0.099,0.212,0.125,0.327L185,50.909c0.17-0.186,0.409-0.293,0.665-0.293c0.499,0,0.906,0.407,0.906,0.908
						C186.571,52.024,186.164,52.431,185.665,52.431z M185.275,51.397l-0.011,0.135c0,0.211,0.18,0.39,0.4,0.39
						c0.219,0,0.397-0.179,0.397-0.398c0-0.22-0.179-0.4-0.397-0.4c-0.137,0-0.264,0.07-0.337,0.187L185.275,51.397z
						 M182.972,50.331c-0.438,0-0.795,0.356-0.795,0.795c0,0.439,0.356,0.795,0.795,0.795c0.371,0,0.688-0.249,0.775-0.607
						l0.027-0.116l-0.006-0.121c-0.01-0.166-0.073-0.33-0.185-0.462l-0.084-0.097l-0.095-0.062
						C183.277,50.374,183.127,50.331,182.972,50.331z M185.009,49.279l0.078,0.06c0.05,0.039,0.133,0.085,0.241,0.085
						c0.221,0,0.399-0.179,0.399-0.399s-0.179-0.399-0.399-0.399c-0.219,0-0.398,0.179-0.398,0.399c0,0.056,0.014,0.111,0.039,0.166
						L185.009,49.279z"/>
				</g>
			</g>
		</g>
	</g>
</g>
<path id="XMLID_243_" fill="#4655C4" d="M183.258,116.314h-18.459c-2.437,0-4.41-1.975-4.41-4.41l0,0c0-2.438,1.974-4.41,4.41-4.41
	h18.459c2.436,0,4.408,1.973,4.408,4.41l0,0C187.666,114.34,185.693,116.314,183.258,116.314z"/>
<rect id="XMLID_365_" x="163.41" y="110.994" fill="none" width="20.316" height="4.318"/>
<text id="XMLID_240_" transform="matrix(1 0 0 1 166.6299 112.6943)" fill="#FFFFFF" font-family="'Montserrat-Bold'" font-size="2.3954">More Settings</text>
<path id="XMLID_211_" fill="#FF5555" d="M171.972,103.531h-4.853c-0.486,0-0.882-0.395-0.882-0.881v-4.851
	c0-0.488,0.396-0.884,0.882-0.884h4.853c0.486,0,0.882,0.396,0.882,0.884v4.851C172.854,103.137,172.458,103.531,171.972,103.531z"
	/>
<g id="XMLID_207_">
	
		<line id="XMLID_210_" fill="none" stroke="#ECEBF2" stroke-width="1.2485" stroke-linecap="round" stroke-linejoin="round" stroke-miterlimit="10" x1="169.545" y1="99.266" x2="169.545" y2="101.182"/>
	
		<line id="XMLID_209_" fill="none" stroke="#ECEBF2" stroke-width="1.2485" stroke-linecap="round" stroke-linejoin="round" stroke-miterlimit="10" x1="170.502" y1="100.225" x2="168.587" y2="100.225"/>
</g>
<path id="XMLID_216_" fill="#FF5555" d="M180.827,103.531h-4.854c-0.487,0-0.882-0.395-0.882-0.881v-4.851
	c0-0.488,0.395-0.884,0.882-0.884h4.854c0.485,0,0.88,0.396,0.88,0.884v4.851C181.707,103.137,181.313,103.531,180.827,103.531z"/>
<g id="XMLID_213_">
	
		<line id="XMLID_214_" fill="none" stroke="#ECEBF2" stroke-width="1.2485" stroke-linecap="round" stroke-linejoin="round" stroke-miterlimit="10" x1="179.356" y1="100.225" x2="177.441" y2="100.225"/>
</g>
<g id="XMLID_203_">
	<rect id="XMLID_353_" x="156.008" y="82.909" fill="none" width="36.041" height="7.582"/>
	<text id="XMLID_251_" transform="matrix(1 0 0 1 168.4482 85.8242)"><tspan x="0" y="0" fill="#342F4C" font-family="'Montserrat-Black'" font-size="4.1064">Global </tspan><tspan x="-0.84" y="3.422" fill="#342F4C" font-family="'Montserrat-Black'" font-size="4.1064">Control</tspan></text>
	<rect id="XMLID_351_" x="156.008" y="91.016" fill="none" width="36.041" height="2.632"/>
	
		<text id="XMLID_249_" transform="matrix(1 0 0 1 166.7383 92.7168)" opacity="0.5" fill="#342F4C" font-family="'Montserrat-Medium'" font-size="2.3954">Dolor Sit Amet</text>
</g>
<rect id="XMLID_238_" x="164.401" y="78" fill="#FFFFFF" width="19.563" height="0.285"/>
<radialGradient id="XMLID_5_" cx="113.9297" cy="98.2964" r="35.8875" gradientUnits="userSpaceOnUse">
	<stop  offset="0" style="stop-color:#96949C"/>
	<stop  offset="0.2988" style="stop-color:#BFBEC3;stop-opacity:0.7012"/>
	<stop  offset="0.5975" style="stop-color:#E2E1E4;stop-opacity:0.4025"/>
	<stop  offset="0.8417" style="stop-color:#F7F7F8;stop-opacity:0.1583"/>
	<stop  offset="1" style="stop-color:#FFFFFF;stop-opacity:0"/>
</radialGradient>
<circle id="XMLID_137_" fill="url(#XMLID_5_)" cx="113.93" cy="98.297" r="35.887"/>
<radialGradient id="XMLID_6_" cx="128.9473" cy="98.2998" r="37.7261" gradientUnits="userSpaceOnUse">
	<stop  offset="0" style="stop-color:#96949C"/>
	<stop  offset="0.2988" style="stop-color:#BFBEC3;stop-opacity:0.7012"/>
	<stop  offset="0.5975" style="stop-color:#E2E1E4;stop-opacity:0.4025"/>
	<stop  offset="0.8417" style="stop-color:#F7F7F8;stop-opacity:0.1583"/>
	<stop  offset="1" style="stop-color:#FFFFFF;stop-opacity:0"/>
</radialGradient>
<circle id="XMLID_140_" fill="url(#XMLID_6_)" cx="128.948" cy="98.299" r="37.726"/>
<radialGradient id="XMLID_7_" cx="131.8291" cy="82.1968" r="40.6077" gradientUnits="userSpaceOnUse">
	<stop  offset="0" style="stop-color:#96949C"/>
	<stop  offset="0.2988" style="stop-color:#BFBEC3;stop-opacity:0.7012"/>
	<stop  offset="0.5975" style="stop-color:#E2E1E4;stop-opacity:0.4025"/>
	<stop  offset="0.8417" style="stop-color:#F7F7F8;stop-opacity:0.1583"/>
	<stop  offset="1" style="stop-color:#FFFFFF;stop-opacity:0"/>
</radialGradient>
<circle id="XMLID_142_" fill="url(#XMLID_7_)" cx="131.829" cy="82.197" r="40.607"/>
<radialGradient id="XMLID_15_" cx="120.4717" cy="82.7905" r="40.6082" gradientUnits="userSpaceOnUse">
	<stop  offset="0" style="stop-color:#96949C"/>
	<stop  offset="0.2988" style="stop-color:#BFBEC3;stop-opacity:0.7012"/>
	<stop  offset="0.5975" style="stop-color:#E2E1E4;stop-opacity:0.4025"/>
	<stop  offset="0.8417" style="stop-color:#F7F7F8;stop-opacity:0.1583"/>
	<stop  offset="1" style="stop-color:#FFFFFF;stop-opacity:0"/>
</radialGradient>
<circle id="XMLID_146_" fill="url(#XMLID_15_)" cx="120.472" cy="82.791" r="40.608"/>
<path id="XMLID_138_" fill="#FFFFFF" d="M144.568,121.916h-40.037c-2.502,0-4.53-2.029-4.53-4.531V64.181
	c0-2.501,2.028-4.53,4.53-4.53h40.037c2.502,0,4.531,2.029,4.531,4.53v53.204C149.1,119.887,147.07,121.916,144.568,121.916z"/>
<g id="XMLID_303_">
	<g id="XMLID_231_">
		<path id="XMLID_234_" fill="#4655C4" d="M123.763,81.629h-14c-1.848,0-3.344-1.497-3.344-3.345l0,0
			c0-1.847,1.496-3.344,3.344-3.344h14c1.848,0,3.345,1.498,3.345,3.344l0,0C127.107,80.133,125.61,81.629,123.763,81.629z"/>
		<rect id="XMLID_334_" x="108.711" y="77.596" fill="none" width="15.407" height="3.274"/>
		
			<text id="XMLID_232_" transform="matrix(1 0 0 1 112.3945 78.8862)" fill="#FFFFFF" font-family="'Montserrat-Bold'" font-size="1.8168">More Stats</text>
	</g>
	<g id="XMLID_256_">
		<rect id="XMLID_255_" x="107.236" y="85.542" fill="#ECEBF2" width="4.229" height="24.51"/>
		<rect id="XMLID_257_" x="113.439" y="85.542" fill="#ECEBF2" width="4.229" height="24.51"/>
		<rect id="XMLID_258_" x="119.643" y="85.542" fill="#ECEBF2" width="4.229" height="24.51"/>
		<rect id="XMLID_259_" x="125.846" y="85.542" fill="#ECEBF2" width="4.229" height="24.51"/>
		<rect id="XMLID_260_" x="132.05" y="85.542" fill="#ECEBF2" width="4.229" height="24.51"/>
		<rect id="XMLID_261_" x="138.253" y="85.542" fill="#ECEBF2" width="4.229" height="24.51"/>
	</g>
	<g id="XMLID_262_">
		<rect id="XMLID_268_" x="107.236" y="97.452" fill="#4655C4" width="4.229" height="12.601"/>
		<rect id="XMLID_267_" x="113.439" y="99.266" fill="#4655C4" width="4.229" height="10.787"/>
		<rect id="XMLID_266_" x="119.643" y="96.333" fill="#4655C4" width="4.229" height="13.72"/>
		<rect id="XMLID_265_" x="125.846" y="94.311" fill="#4655C4" width="4.229" height="15.742"/>
		<rect id="XMLID_264_" x="132.05" y="90.49" fill="#4655C4" width="4.229" height="19.563"/>
		<rect id="XMLID_263_" x="138.253" y="94.738" fill="#4655C4" width="4.229" height="15.314"/>
	</g>
	<g id="XMLID_270_">
		<g id="XMLID_272_">
			<rect id="XMLID_27_" x="106.906" y="68.961" fill="none" width="35.288" height="11.967"/>
			<text transform="matrix(1 0 0 1 106.9063 71.877)" fill="#342F4C" font-family="'Montserrat-Black'" font-size="4.1064">Statistics</text>
		</g>
		<rect id="XMLID_271_" x="107.461" y="65.719" fill="#4655C4" width="8.369" height="0.507"/>
	</g>
	<g id="XMLID_273_">
		<g id="XMLID_269_">
			<rect id="XMLID_33_" x="129.708" y="64.657" fill="none" width="19.392" height="2.634"/>
			<text transform="matrix(1 0 0 1 138.0215 66.1143)" fill="#342F4C" font-family="'Montserrat-Bold'" font-size="2.0532">6m</text>
		</g>
		<g id="XMLID_274_">
			<path id="XMLID_278_" fill="#342F4C" d="M142.822,64.655h0.821c0.347,0,0.629,0.282,0.629,0.629v0.563
				c0,0.347-0.282,0.629-0.629,0.629h-0.821c-0.348,0-0.629-0.282-0.629-0.629v-0.563C142.193,64.937,142.475,64.655,142.822,64.655
				z"/>
			<polygon id="XMLID_275_" fill="#FFFFFF" points="143.125,66.042 143.6,65.566 143.6,65.566 143.6,65.566 143.125,65.091 
				143.003,65.212 143.358,65.566 143.003,65.921 			"/>
		</g>
		<g id="XMLID_279_">
			<path id="XMLID_281_" fill="#342F4C" d="M136.117,66.477h-0.821c-0.348,0-0.628-0.282-0.628-0.629v-0.563
				c0-0.348,0.28-0.629,0.628-0.629h0.821c0.347,0,0.629,0.282,0.629,0.629v0.563C136.746,66.195,136.464,66.477,136.117,66.477z"/>
			<polygon id="XMLID_280_" fill="#FFFFFF" points="135.816,65.091 135.34,65.566 135.341,65.566 135.34,65.566 135.816,66.042 
				135.938,65.921 135.581,65.566 135.938,65.212 			"/>
		</g>
	</g>
</g>
<radialGradient id="XMLID_16_" cx="53.8037" cy="50.8115" r="23.3225" gradientUnits="userSpaceOnUse">
	<stop  offset="0" style="stop-color:#96949C"/>
	<stop  offset="0.2988" style="stop-color:#BFBEC3;stop-opacity:0.7012"/>
	<stop  offset="0.5975" style="stop-color:#E2E1E4;stop-opacity:0.4025"/>
	<stop  offset="0.8417" style="stop-color:#F7F7F8;stop-opacity:0.1583"/>
	<stop  offset="1" style="stop-color:#FFFFFF;stop-opacity:0"/>
</radialGradient>
<circle id="XMLID_244_" fill="url(#XMLID_16_)" cx="53.803" cy="50.811" r="23.323"/>
<radialGradient id="XMLID_17_" cx="67.7725" cy="50.8115" r="23.3225" gradientUnits="userSpaceOnUse">
	<stop  offset="0" style="stop-color:#96949C"/>
	<stop  offset="0.2988" style="stop-color:#BFBEC3;stop-opacity:0.7012"/>
	<stop  offset="0.5975" style="stop-color:#E2E1E4;stop-opacity:0.4025"/>
	<stop  offset="0.8417" style="stop-color:#F7F7F8;stop-opacity:0.1583"/>
	<stop  offset="1" style="stop-color:#FFFFFF;stop-opacity:0"/>
</radialGradient>
<circle id="XMLID_253_" fill="url(#XMLID_17_)" cx="67.772" cy="50.811" r="23.322"/>
<radialGradient id="XMLID_37_" cx="78.0425" cy="50.8115" r="23.3223" gradientUnits="userSpaceOnUse">
	<stop  offset="0" style="stop-color:#96949C"/>
	<stop  offset="0.2988" style="stop-color:#BFBEC3;stop-opacity:0.7012"/>
	<stop  offset="0.5975" style="stop-color:#E2E1E4;stop-opacity:0.4025"/>
	<stop  offset="0.8417" style="stop-color:#F7F7F8;stop-opacity:0.1583"/>
	<stop  offset="1" style="stop-color:#FFFFFF;stop-opacity:0"/>
</radialGradient>
<circle id="XMLID_254_" fill="url(#XMLID_37_)" cx="78.042" cy="50.811" r="23.322"/>
<path id="XMLID_62_" fill="#4655C4" d="M86.721,55.338H45.151c-2.078,0-3.764-1.686-3.764-3.765V31.017
	c0-2.079,1.686-3.764,3.764-3.764h41.569c2.079,0,3.764,1.685,3.764,3.764v20.557C90.485,53.652,88.8,55.338,86.721,55.338z"/>
<g id="XMLID_283_">
	<defs>
		<path id="XMLID_83_" d="M86.721,55.338H45.151c-2.078,0-3.764-1.686-3.764-3.765V31.017c0-2.079,1.686-3.764,3.764-3.764h41.569
			c2.079,0,3.764,1.685,3.764,3.764v20.557C90.485,53.652,88.8,55.338,86.721,55.338z"/>
	</defs>
	<clipPath id="XMLID_48_">
		<use xlink:href="#XMLID_83_"  overflow="visible"/>
	</clipPath>
	<path id="XMLID_84_" clip-path="url(#XMLID_48_)" fill="#304799" d="M30.839,53.384c0,0,4.176-15.758,19.198-11.052
		c15.021,4.705,29.013,0.615,37.844-9.15c8.832-9.765,16.208,7.651,15.343,19.988c-0.865,12.337-30.808,28.942-49.287,20.554
		C35.458,65.336,28.785,64.188,30.839,53.384z"/>
</g>
<g id="XMLID_149_">
	<g id="XMLID_151_">
		<rect id="XMLID_185_" x="45.95" y="35.278" fill="none" width="38.784" height="8.901"/>
		
			<text id="XMLID_154_" transform="matrix(1 0 0 1 56.0928 38.1934)" fill="#FFFFFF" font-family="'Montserrat-Black'" font-size="4.1064">Get Report</text>
		<rect id="XMLID_183_" x="45.95" y="39.728" fill="none" width="38.784" height="2.634"/>
		
			<text id="XMLID_152_" transform="matrix(1 0 0 1 58.0522 41.4287)" opacity="0.5" fill="#FFFFFF" font-family="'Montserrat-Medium'" font-size="2.3954">Dolor Sit Amet</text>
	</g>
</g>
<g id="XMLID_150_">
	<path id="XMLID_147_" fill="#FFFFFF" d="M74.951,51.056H55.733c-1.708,0-3.092-1.384-3.092-3.092l0,0
		c0-1.708,1.384-3.092,3.092-3.092h19.218c1.708,0,3.092,1.383,3.092,3.092l0,0C78.042,49.671,76.659,51.056,74.951,51.056z"/>
	<g id="XMLID_156_">
		<rect id="XMLID_29_" x="55.743" y="47.168" fill="none" width="19.392" height="2.635"/>
		<text transform="matrix(1 0 0 1 58.7744 48.626)" fill="#342F4C" font-family="'Montserrat-Bold'" font-size="2.0532">Download Now</text>
	</g>
</g>
<path id="XMLID_65_" fill="#FF5555" d="M145.335,55.338h-41.57c-2.078,0-3.764-1.686-3.764-3.765V31.017
	c0-2.079,1.686-3.764,3.764-3.764h41.57c2.078,0,3.765,1.685,3.765,3.764v20.557C149.1,53.652,147.413,55.338,145.335,55.338z"/>
<g id="XMLID_285_">
	<defs>
		<path id="XMLID_287_" d="M145.335,55.338h-41.57c-2.078,0-3.764-1.686-3.764-3.765V31.017c0-2.079,1.686-3.764,3.764-3.764h41.57
			c2.078,0,3.765,1.685,3.765,3.764v20.557C149.1,53.652,147.413,55.338,145.335,55.338z"/>
	</defs>
	<clipPath id="XMLID_49_">
		<use xlink:href="#XMLID_287_"  overflow="visible"/>
	</clipPath>
	<path id="XMLID_292_" clip-path="url(#XMLID_49_)" fill="#DB5131" d="M89.452,53.384c0,0,4.177-15.758,19.198-11.052
		c15.023,4.705,29.014,0.615,37.844-9.15c8.832-9.765,16.21,7.651,15.345,19.988c-0.866,12.337-30.809,28.942-49.288,20.554
		C94.072,65.336,87.398,64.188,89.452,53.384z"/>
</g>
<rect id="XMLID_99_" x="115.4" y="46.285" fill="none" width="18.3" height="6.793"/>
<text id="XMLID_124_" transform="matrix(1 0 0 1 118.2305 50.6577)" fill="#FFFFFF" font-family="'Montserrat-Black'" font-size="6.1596">4223</text>
<g id="XMLID_282_">
	<g id="XMLID_114_">
		<path id="XMLID_117_" fill="#FFFFFF" d="M105.711,45.074h-2.212c-0.937,0-1.695-0.758-1.695-1.694v-1.519
			c0-0.936,0.759-1.694,1.695-1.694h2.212c0.936,0,1.694,0.758,1.694,1.694v1.519C107.405,44.316,106.646,45.074,105.711,45.074z"/>
		<polygon id="XMLID_118_" fill="#FF6F43" points="104.899,41.339 103.618,42.62 103.618,42.621 103.618,42.621 104.899,43.901 
			105.225,43.576 104.268,42.621 105.225,41.664 		"/>
	</g>
	<g id="XMLID_120_">
		<path id="XMLID_122_" fill="#FFFFFF" d="M143.196,40.167h2.212c0.937,0,1.696,0.758,1.696,1.694v1.519
			c0,0.936-0.76,1.694-1.696,1.694h-2.212c-0.936,0-1.695-0.758-1.695-1.694v-1.519C141.501,40.925,142.261,40.167,143.196,40.167z"
			/>
		<polygon id="XMLID_121_" fill="#FF6F43" points="144.009,43.901 145.289,42.621 145.289,42.621 145.289,42.62 144.009,41.339 
			143.684,41.664 144.639,42.621 143.684,43.576 		"/>
	</g>
</g>
<g id="XMLID_130_">
	<g id="XMLID_125_">
		<rect id="XMLID_42_" x="105.331" y="33.459" fill="none" width="38.781" height="8.902"/>
		
			<text id="XMLID_123_" transform="matrix(1 0 0 1 113.4619 36.375)" fill="#FFFFFF" font-family="'Montserrat-Black'" font-size="4.1064">Lorem Ipsum</text>
		<rect id="XMLID_40_" x="105.331" y="37.912" fill="none" width="38.781" height="2.632"/>
		
			<text id="XMLID_126_" transform="matrix(1 0 0 1 117.4316 39.6123)" opacity="0.5" fill="#FFFFFF" font-family="'Montserrat-Medium'" font-size="2.3954">Dolor Sit Amet</text>
	</g>
	<rect id="XMLID_119_" x="120.472" y="42.019" fill="#FFFFFF" width="8.498" height="0.342"/>
</g>
<polygon id="XMLID_229_" fill="#4655C4" points="64.157,127.482 65.438,128.762 65.438,128.762 65.439,128.762 66.719,127.482 
	66.395,127.156 65.438,128.111 64.482,127.156 "/>
<rect id="XMLID_8_" x="40.764" y="20.96" fill="none" width="51.911" height="4.271"/>
<text id="XMLID_134_" transform="matrix(1 0 0 1 47.8506 22.3599)" fill="#ECEBF2" font-family="'Montserrat-Bold'" font-size="1.9713">Home           Global           Account           Settings </text>
<rect x="54.721" y="111.975" fill="#D7E8F4" width="23.851" height="0.994"/>
<rect x="54.721" y="91.215" fill="#D7E8F4" width="28.449" height="0.992"/>
<rect x="54.721" y="107.287" fill="#D7E8F4" width="28.449" height="0.992"/>
<rect x="54.721" y="96.333" fill="#D7E8F4" width="28.449" height="0.992"/>
<rect x="54.721" y="101.686" fill="#D7E8F4" width="28.449" height="0.992"/>
</svg>
