<?xml version="1.0" encoding="utf-8"?>
<!-- Generator: Adobe Illustrator 16.0.0, SVG Export Plug-In . SVG Version: 6.00 Build 0)  -->
<!DOCTYPE svg PUBLIC "-//W3C//DTD SVG 1.1//EN" "http://www.w3.org/Graphics/SVG/1.1/DTD/svg11.dtd">
<svg version="1.1" xmlns="http://www.w3.org/2000/svg" xmlns:xlink="http://www.w3.org/1999/xlink" x="0px" y="0px" width="200px"
	 height="161.665px" viewBox="0 0 200 161.665" enable-background="new 0 0 200 161.665" xml:space="preserve">
<g id="background">
</g>
<g id="object">
	<g>
		<g>
			<polygon fill="#292949" points="117.11,123.286 128.055,119.614 125.279,138.522 126.104,154.925 126.136,155.036 
				126.109,155.038 126.111,155.073 123.97,155.216 123.969,155.214 123.889,155.22 119.536,140.503 117.457,124.896 
				117.457,124.896 			"/>
		</g>
		<g>
			<polygon fill="#292949" points="124.059,155.966 126.276,155.972 126.788,157.858 126.731,157.874 126.746,157.876 
				123.021,159.94 121.273,160.085 121.109,158.089 121.59,157.757 			"/>
		</g>
	</g>
	<g>
		<g>
			<polygon fill="#292949" points="108.599,123.401 110.919,155.976 113.06,156.136 115.715,138.657 119.948,121.298 			"/>
		</g>
		<g>
			<polygon fill="#292949" points="110.902,156.731 108.018,158.261 108.243,159.606 113.339,158.987 113.096,157.048 			"/>
		</g>
	</g>
	<g>
		<g>
			<path fill="#FF5555" d="M131.039,128.749c0.229-5.506-4.69-23.018-4.69-23.018h0.002c-0.521-1.645-0.917-3.318-1.155-4.998
				c-0.169-1.193-3.748-14.77-3.512-14.789c-2.466,0.182-7.219-0.402-9.046,1.35c-0.052,0.051-0.102,0.104-0.148,0.156
				c-1.425,1.623-2.164,4.912-2.837,6.936c-0.886,2.658-1.564,5.385-2.028,8.146c-0.405,2.416-0.646,4.855-0.816,7.299
				c-0.146,2.1-0.031,4.188-0.102,6.254c-0.08,2.287-0.766,4.766-1.277,6.992c-0.516,2.238-1.17,4.453-2.074,6.568
				c2.448,1.084,5.175,1.377,7.852,1.387c2.678,0.01,5.351-0.248,8.027-0.207c2.264,0.035,4.555,0.281,6.772-0.172
				C127.77,130.292,129.397,129.507,131.039,128.749L131.039,128.749z"/>
		</g>
	</g>
	<g>
		<g>
			<path fill="#EAC5B0" d="M135.492,92.153c0.645,0.121,2.323-0.328,2.709-0.92c0.89-1.367-1.222-0.947-1.985-0.967
				c0.088-0.264,0.181-0.516,0.214-0.787c0.031-0.25-2.234,0.396-2.453,0.633c-0.523,0.57-0.284,1-0.237,1.721
				C134.323,91.925,134.908,92.044,135.492,92.153z"/>
		</g>
	</g>
	<g>
		<polygon fill="#FF5555" points="118.539,97.317 127.806,101.575 135.488,92.271 133.222,90.401 128.144,95.519 122.019,89.565 
			116.184,89.819 		"/>
	</g>
	<g>
		<polygon fill="#FF5555" points="112.489,87.45 110.901,88.677 103.889,100.948 108.771,102.827 111.653,92.183 112.904,89.429 		
			"/>
	</g>
	<g>
		<path fill="#474EBB" d="M116.137,95.948l-4.017-4.736c-0.094-0.109-0.253-0.137-0.376-0.066l0,0l-3.19,1.828
			c-0.178,0.104-0.202,0.35-0.047,0.484l4.901,4.232c0.096,0.082,0.234,0.096,0.343,0.031L116.137,95.948z"/>
	</g>
	<g>
		<polygon fill="#EAC5B0" points="112.382,97.161 113.273,94.28 112.059,93.845 111.011,95.685 110.531,95.212 110.069,97.771 
			111.271,98.392 		"/>
	</g>
	<g>
		<g>
			<path fill="#FF5555" d="M110.032,96.677c-1.35,1.186-2.719,2.355-3.975,3.641c-0.567,0.58-1.327,0.322-0.995,0.322l1.628,3.881
				c2.081-0.693,3.473-3.01,5.232-6.166C111.293,97.796,110.663,97.235,110.032,96.677z"/>
		</g>
	</g>
	<g>
		<g>
			<path fill="#292949" d="M117.682,79.866c-1.255,0.043-2.916,0.863-3.401,2.107c-0.233,0.6-0.115,1.201-0.392,1.834
				c-0.538,1.246,0.749,3.393-0.94,4.064c-0.868,0.346-1.845,0.049-2.729-0.252c-0.107-0.037-0.22-0.074-0.298-0.158
				c-0.126-0.137-0.117-0.357-0.037-0.525c0.081-0.168,0.22-0.301,0.345-0.439c1.308-1.449,1.39-3.793,2.076-5.561
				c0.686-1.766,1.937-3.441,3.858-3.922c0.815,0.719,1.339,1.438,1.408,2.521L117.682,79.866z"/>
		</g>
		<g>
			<path fill="#EAC5B0" d="M114.982,87.507c-1.101-0.678-1.702-1.988-1.771-3.279c-0.071-1.291,0.326-2.564,0.853-3.744
				c1.759-3.924,6.724-1.99,7.402,1.689C122.059,85.38,118.184,89.474,114.982,87.507z"/>
		</g>
		<g>
			<path fill="#292949" d="M120.631,90.646c-0.523-0.445-1.033-0.904-1.268-1.623c-0.38-1.164,0.098-2.813,0.207-3.996
				c0.115-1.248,0.203-2.613-0.513-3.643c-0.467-0.672-1.124-0.936-1.883-1.127c-0.52-0.133-0.586,0.061-0.961-0.324
				c-0.287-0.293-0.424-1.004-0.414-1.396c0.019-0.662,0.43-1.268,0.964-1.662c0.821-0.604,1.671-0.801,2.645-0.594
				c3.415,0.729,5.488,3.348,5.661,6.893c0.083,1.705-0.678,3.398-0.55,5.051c0.079,1.02,0.537,1.795,0.545,2.861
				c0.02,2.771,0.673,6.463-0.077,9.145c-0.027,0.1-0.065,0.209-0.157,0.258c-0.185,0.1-0.374-0.119-0.472-0.307
				c-0.563-1.088-1.127-2.176-1.69-3.264c-0.223-0.428-0.446-0.861-0.541-1.332c-0.237-1.176,0.339-2.486-0.213-3.551
				C121.614,91.454,121.116,91.056,120.631,90.646z"/>
		</g>
	</g>
	<g>
		
			<rect x="80.772" y="30.09" transform="matrix(0.7666 0.6421 -0.6421 0.7666 51.9215 -40.1232)" fill="#587BC9" width="0.757" height="42.535"/>
	</g>
	<g>
		
			<rect x="15.969" y="60.786" transform="matrix(0.9537 0.3008 -0.3008 0.9537 20.3582 -9.8893)" fill="#587BC9" width="52.648" height="0.757"/>
	</g>
	<g>
		<circle fill="#FFC107" cx="17.193" cy="53.279" r="9.019"/>
	</g>
	<g>
		
			<rect x="30.574" y="41.062" transform="matrix(0.3549 0.9349 -0.9349 0.3549 76.0653 -27.3539)" fill="#587BC9" width="54.559" height="0.757"/>
	</g>
	<g>
		
			<rect x="47.175" y="25.149" transform="matrix(0.923 0.3848 -0.3848 0.923 15.3619 -25.7186)" fill="#587BC9" width="49.545" height="0.758"/>
	</g>
	<g>
		
			<rect x="116.48" y="-1.971" transform="matrix(0.442 0.897 -0.897 0.442 86.4348 -91.6134)" fill="#587BC9" width="0.757" height="51.285"/>
	</g>
	<g>
		
			<rect x="90.609" y="49.548" transform="matrix(0.8519 0.5237 -0.5237 0.8519 43.767 -54.9234)" fill="#587BC9" width="56.779" height="0.758"/>
	</g>
	<g>
		
			<rect x="164.876" y="18.746" transform="matrix(0.6263 0.7796 -0.7796 0.6263 98.45 -111.2469)" fill="#587BC9" width="0.758" height="56.628"/>
	</g>
	<g>
		<circle fill="#FFC107" cx="96.686" cy="32.825" r="15.975"/>
	</g>
	<g>
		<circle fill="#FFC107" cx="187.323" cy="29.293" r="11.213"/>
	</g>
	<g>
		<circle fill="#8C99E0" cx="49.381" cy="16.218" r="12.089"/>
	</g>
	<g>
		<circle fill="#FF5555" cx="139.864" cy="12.346" r="8.862"/>
	</g>
	<g>
		<circle fill="#8C99E0" cx="142.443" cy="59.338" r="23.774"/>
	</g>
	<g>
		<circle fill="#FF5555" cx="66.097" cy="63.156" r="13.431"/>
	</g>
	<g>
		<path fill="#B97262" d="M92.752,75.577c0,0,0.575-1.229,0.584-1.248c0.213-0.457-0.435-2.057-0.548-2.574
			c-0.064-0.297-1.385,0.535-1.485,0.727c-0.173,0.328-0.026,1.271-0.057,1.682l-0.68,0.391l0.246,0.977L92.752,75.577z"/>
	</g>
	<g>
		<polygon fill="#305399" points="83.57,123.556 84.115,136.218 82.515,157.747 80.121,157.919 77.212,138.364 73.187,121.817 		"/>
	</g>
	<g>
		<polygon fill="#292949" points="80.249,159.524 83.844,159.524 83.993,158.339 82.704,157.448 80.114,157.632 		"/>
	</g>
	<g>
		<polygon fill="#305399" points="66.619,119.79 66.093,129.362 67.652,157.819 70.05,157.94 73.644,139.274 76.813,118.806 		"/>
	</g>
	<g>
		<polygon fill="#292949" points="69.952,159.618 66.453,159.765 66.097,158.755 67.458,157.524 70.05,157.653 		"/>
	</g>
	<g>
		<g>
			<path fill="#8CABEF" d="M80.56,90.882l-7.482-0.801c0,0-4.163,0.443-6.987,10.328c-1.571,5.5-2.049,14.164-2.164,20.77
				c0.176,0.943,1.203,5.07,5.544,4.371c7.454-1.203,11.422-2.406,14.669-1.805c2.765,0.602,2.531-3.207,2.227-6.111l-1.102-8.99
				L80.56,90.882z"/>
		</g>
	</g>
	<path fill="#B97262" d="M79.115,81.567c-1.886-0.414-3.827-0.787-5.714-0.414c-0.414,0.082-0.858,0.227-1.082,0.584
		c-0.087,0.137-0.132,0.297-0.175,0.455c-0.477,1.77-1.081,4.395,0.084,6.027c0.223,0.311,0.521,0.557,0.842,0.76
		c0.429,0.266,0.904,0.449,1.395,0.547c-0.102,0.439-0.243,0.871-0.422,1.285c0.432,0.65,2.446,0.729,2.818,0.105
		c0.021-0.541,0.041-1.08,0.062-1.619c0.246-0.102,0.482-0.221,0.705-0.367c0.86-0.566,1.427-1.428,1.757-2.391
		c0.359-1.047,0.863-2.043,1.191-3.111c0.12-0.389,0.214-0.834,0.009-1.186c-0.218-0.373-0.688-0.502-1.111-0.596
		C79.354,81.622,79.234,81.595,79.115,81.567z"/>
	<path fill="#333333" d="M79.941,86.485c0.906-0.932,1.966-2.232,2.048-3.412c0.068-0.979-0.067-2.311-0.615-3.154
		c-0.513-0.791-1.822-1.223-2.601-1.682c-0.734-0.432-1.469-0.861-2.203-1.293c-0.153-0.09-0.31-0.182-0.484-0.213
		c-0.206-0.035-0.417,0.018-0.619,0.07c-1.736,0.447-3.471,0.896-5.207,1.346c-0.333,0.086-0.713,0.213-0.836,0.533
		c-0.075,0.195-0.03,0.416,0.015,0.619c0.196,0.9,0.575,1.822,0.668,2.734c0.144,0.721,0.117,1.365,0.643,1.893
		c0.496,0.496,1.155,0.766,1.552,1.375c0.286,0.438,0.396,0.965,0.621,1.438c1.016,2.143,5.131,1.572,6.555,0.205
		C79.623,86.804,79.779,86.651,79.941,86.485z"/>
	<g>
		<polygon fill="#8CABEF" points="77.65,91.86 84.76,89.261 90.546,75.306 93.011,75.452 90.334,91.104 86.713,94.489 76.35,99.595 
					"/>
	</g>
	<g>
		<g>
			<g>
				<path fill="#B97262" d="M53.111,84.282c-0.347-0.496-0.608-2.082-0.256-2.635c0.813-1.271,1.264,0.67,1.57,1.307
					c0.189-0.174,0.368-0.35,0.584-0.48c0.198-0.121,0.517,2.035,0.4,2.311c-0.28,0.658-0.734,0.621-1.36,0.855
					C53.749,85.181,53.426,84.733,53.111,84.282z"/>
			</g>
		</g>
		<g>
			<polygon fill="#8CABEF" points="69.969,98.597 58.569,96.376 53.59,85.536 55.734,83.866 61.111,91.427 66.948,91.339 
				72.339,91.722 			"/>
		</g>
	</g>
	<g>
		<path fill="#EAC5B0" d="M46.132,92.337c0,0,0.63-1.201,0.641-1.221c0.234-0.445-0.081-2.861-0.169-3.385
			c-0.051-0.297-1.668,1.26-1.779,1.447c-0.187,0.32-0.083,1.27-0.132,1.678l-0.697,0.359l0.202,0.986L46.132,92.337z"/>
	</g>
	<g>
		<polygon fill="#292949" points="18.591,156.489 18.401,157.964 21.162,159.819 22.826,158.534 21.541,156.868 18.781,155.015 		
			"/>
	</g>
	<g>
		<g>
			<polygon fill="#8CABEF" points="18.498,155.995 20.626,137.185 18.065,116.126 18.641,111.646 30.081,111.212 30.494,118.503 
				28.573,137.214 21.349,156.956 			"/>
		</g>
	</g>
	<g>
		<polygon fill="#4BB5FF" points="31.155,90.399 35.236,91.231 40.492,96.739 43.996,91.866 46.652,92.042 41.116,103.153 
			34.159,99.595 		"/>
	</g>
	<g>
		<g>
			<polygon fill="#8CABEF" points="38.475,113.319 38.505,132.302 34.685,156.737 31.934,156.712 30.422,134.114 26.884,111.495 			
				"/>
		</g>
		<g>
			<polygon fill="#292949" points="31.938,157.87 34.897,159.388 36.399,157.915 34.927,156.413 31.953,156.384 			"/>
		</g>
	</g>
	<g>
		<g>
			<path fill="#4BB5FF" d="M16.881,119.776c0.026-0.824,0.072-1.51,0.079-1.756c0.059-2.205,0.255-4.408,0.532-6.598
				c0.247-1.965,0.56-6.838,0.896-8.791c0.277-1.609,1.244-5.631,1.942-7.125c1.737-3.717,1.201-4.059,8.831-5.162
				c3.344-0.484,4.134,1.6,6.868,3.994c0.27,0.238,0.255,1.645,0.318,2.018c0.11,0.656,0.228,1.313,0.363,1.965
				c0.106,0.512,0.224,1.023,0.355,1.529h0c0,0,2.295,10.445,3.813,12.664c1.518,2.219,4.653,5.32-0.592,7.213
				c-0.929,0.301-1.865,0.588-2.832,0.74c0,0-4.291-0.477-6.497-0.461c-2.031,0.016-4.071,0.221-6.069,0.566
				c-1.336,0.221-2.699,0.547-3.894,1.17c-1.14,0.596-1.962,1.471-3.119,2.088c-0.11,0.059-0.229,0.119-0.354,0.104
				C16.857,123.841,16.826,121.507,16.881,119.776z"/>
		</g>
	</g>
	<g>
		<g>
			<path fill="#EAC5B0" d="M28.476,91.306c-0.312,0.295-1.161,0.627-2.176,0.551c-0.205-0.018-0.382-0.154-0.439-0.352
				c-0.162-0.553-0.287-1.115-0.373-1.686c-0.753-0.029-1.648-0.146-1.985-0.822c-0.106-0.211-0.138-0.451-0.167-0.688
				c-0.125-0.973-0.249-1.947-0.373-2.92c-0.043-0.336-0.085-0.684,0.004-1.012c0.157-0.574,0.685-0.965,1.216-1.236
				c1.355-0.688,3.01-0.857,4.408-0.26c0.372,0.158,0.731,0.377,0.973,0.699c0.373,0.5,0.413,1.166,0.439,1.789
				c0.024,0.574,0.047,1.15,0.071,1.725c0.027,0.662,0.009,1.43-0.51,1.84c-0.276,0.219-0.657,0.297-0.885,0.564
				C28.277,89.97,28.572,90.692,28.476,91.306z"/>
		</g>
		<g>
			<path fill="#292949" d="M33.904,79.548c0.07-0.273,0.153-0.543,0.258-0.803c0.228-0.566,0.561-1.094,0.702-1.686
				c0.141-0.594,0.035-1.305-0.461-1.66c-0.32-0.229-0.737-0.264-1.131-0.258c-1.295,0.014-2.586,0.385-3.693,1.061
				c-1.054,0.643-1.93,1.439-3.213,1.363c-1.206-0.072-1.937,0.332-2.943,1.082c-1.09,0.813-2.701,1.42-3.618,2.377
				c-0.384,0.4-0.629,0.916-0.781,1.449c-0.523,1.844,0.124,3.969,1.586,5.209c0.328,0.277,0.69,0.514,1.063,0.73
				c0.77,0.447,1.698,1.008,2.563,0.996c-0.2-0.715-1.535-2.756-1.168-3.506c0.582-1.189,2.638-1.469,3.782-1.572
				c1.247-0.111,2.546,0.398,3.762,0.219c0.875-0.131,1.815-0.867,2.393-1.518C33.72,82.229,33.65,80.548,33.904,79.548z"/>
		</g>
	</g>
	<g>
		<polygon fill="#4BB5FF" points="22.487,91.978 16.484,93.521 9.255,82.282 6.204,83.106 11.29,99.282 22.993,100.692 		"/>
	</g>
	<g>
		<path fill="#D67086" d="M42.885,90.522l2.768,0.605c0.271,0.059,0.545-0.092,0.639-0.354l2.429-6.75
			c0.113-0.314-0.075-0.656-0.4-0.727l-3.347-0.742c-0.289-0.064-0.577,0.111-0.654,0.396l-1.85,6.887
			C42.387,90.144,42.577,90.454,42.885,90.522z"/>
	</g>
	<g>
		<path fill="#EAC5B0" d="M6.932,83.015c0,0-1.027-1.207-1.043-1.227c-0.381-0.447-0.341-2.283-0.424-2.859
			c-0.047-0.33,1.564,0.313,1.736,0.5c0.293,0.318,0.501,1.357,0.685,1.789l0.817,0.293l0.123,1.092L6.932,83.015z"/>
	</g>
	<g>
		<path fill="#FFFFFF" d="M16.726,61.248c2.207,0.142,4.263-0.624,5.803-1.976c-0.202-0.764-0.447-1.51-0.732-2.212
			c-0.48-1.184-1.375-2.128-2.466-2.672c0.009-0.014,0.019-0.026,0.027-0.039c0.474-0.762,0.618-1.646,0.61-2.509
			c-0.007-0.819-0.154-1.665-0.655-2.356c-0.5-0.692-1.412-1.199-2.351-1.114c-1.008,0.091-1.82,0.836-2.165,1.668
			c-0.345,0.831-0.31,1.738-0.242,2.616c0.049,0.631,0.222,1.27,0.522,1.804c-0.663,0.4-1.25,0.988-1.812,1.711
			c-0.574,0.741-0.55,0.775-0.912,1.648c-0.177,0.429-0.354,0.874-0.506,1.362C13.146,60.359,14.838,61.126,16.726,61.248z"/>
	</g>
	<g>
		<path fill="#FFFFFF" d="M48.921,26.618c2.917,0.187,5.635-0.825,7.67-2.611c-0.267-1.009-0.59-1.996-0.968-2.924
			c-0.635-1.565-1.818-2.813-3.259-3.533c0.011-0.018,0.025-0.034,0.036-0.052c0.625-1.007,0.816-2.176,0.806-3.314
			c-0.008-1.085-0.204-2.201-0.865-3.116c-0.661-0.914-1.866-1.585-3.108-1.473c-1.333,0.121-2.405,1.105-2.861,2.204
			c-0.456,1.099-0.41,2.297-0.32,3.459c0.065,0.833,0.293,1.678,0.69,2.384c-0.877,0.529-1.653,1.306-2.394,2.263
			c-0.759,0.979-0.728,1.024-1.205,2.179c-0.235,0.567-0.468,1.154-0.67,1.799C44.189,25.444,46.426,26.458,48.921,26.618z"/>
	</g>
	<g>
		<path fill="#FFFFFF" d="M65.415,75.103c3.138,0.201,6.06-0.887,8.25-2.809c-0.288-1.084-0.636-2.146-1.042-3.145
			c-0.684-1.684-1.955-3.025-3.505-3.799c0.012-0.02,0.027-0.037,0.04-0.055c0.672-1.083,0.877-2.341,0.867-3.566
			c-0.009-1.166-0.219-2.367-0.931-3.35c-0.711-0.983-2.007-1.705-3.342-1.584c-1.434,0.129-2.587,1.189-3.078,2.372
			c-0.49,1.181-0.44,2.471-0.344,3.719c0.07,0.895,0.315,1.805,0.742,2.564c-0.943,0.568-1.777,1.404-2.575,2.434
			c-0.815,1.053-0.782,1.102-1.296,2.342c-0.252,0.611-0.503,1.242-0.72,1.936C60.326,73.841,62.731,74.931,65.415,75.103z"/>
	</g>
	<g>
		<path fill="#FFFFFF" d="M186.759,38.477c2.709,0.174,5.23-0.765,7.121-2.424c-0.248-0.937-0.55-1.852-0.899-2.714
			c-0.59-1.453-1.688-2.611-3.026-3.279c0.011-0.016,0.024-0.031,0.035-0.048c0.581-0.934,0.757-2.02,0.748-3.077
			c-0.008-1.007-0.189-2.043-0.804-2.893c-0.613-0.848-1.731-1.471-2.884-1.367c-1.238,0.111-2.234,1.026-2.656,2.046
			c-0.424,1.02-0.381,2.133-0.297,3.21c0.06,0.773,0.271,1.557,0.64,2.213c-0.813,0.491-1.534,1.212-2.223,2.101
			c-0.703,0.908-0.675,0.95-1.118,2.021c-0.218,0.526-0.434,1.071-0.621,1.671C182.367,37.387,184.442,38.329,186.759,38.477z"/>
	</g>
	<g>
		<path fill="#FFFFFF" d="M95.895,46.605c3.787,0.243,7.313-1.069,9.958-3.389c-0.347-1.31-0.767-2.591-1.257-3.796
			c-0.824-2.032-2.36-3.651-4.231-4.586c0.015-0.023,0.033-0.043,0.047-0.067c0.812-1.306,1.059-2.824,1.046-4.303
			c-0.012-1.408-0.265-2.858-1.123-4.045c-0.858-1.187-2.422-2.057-4.034-1.912c-1.73,0.157-3.123,1.437-3.715,2.862
			c-0.592,1.427-0.532,2.983-0.415,4.49c0.084,1.082,0.38,2.178,0.895,3.095c-1.138,0.687-2.146,1.694-3.107,2.937
			c-0.985,1.271-0.944,1.33-1.564,2.828c-0.305,0.736-0.607,1.498-0.869,2.336C89.753,45.083,92.656,46.397,95.895,46.605z"/>
	</g>
	<g>
		<path fill="#FFFFFF" d="M139.41,19.716c2.166,0.139,4.185-0.612,5.697-1.939c-0.198-0.749-0.439-1.482-0.719-2.171
			c-0.472-1.163-1.351-2.089-2.422-2.624c0.009-0.013,0.019-0.025,0.027-0.039c0.464-0.748,0.606-1.616,0.599-2.462
			c-0.007-0.805-0.151-1.635-0.643-2.314c-0.49-0.679-1.386-1.177-2.308-1.093c-0.99,0.089-1.787,0.821-2.126,1.637
			c-0.339,0.816-0.305,1.706-0.237,2.568c0.047,0.62,0.218,1.247,0.512,1.772c-0.65,0.393-1.227,0.969-1.778,1.68
			c-0.563,0.728-0.539,0.761-0.896,1.619c-0.173,0.42-0.347,0.857-0.496,1.336C135.896,18.844,137.557,19.597,139.41,19.716z"/>
	</g>
	<g>
		<path fill="#FFFFFF" d="M141.159,80.769c6.123,0.393,11.824-1.73,16.098-5.48c-0.561-2.117-1.241-4.189-2.031-6.137
			c-1.333-3.283-3.815-5.901-6.841-7.413c0.024-0.037,0.054-0.071,0.076-0.108c1.313-2.112,1.712-4.565,1.693-6.957
			c-0.02-2.275-0.43-4.619-1.817-6.538c-1.387-1.919-3.915-3.327-6.521-3.091c-2.798,0.252-5.049,2.321-6.007,4.626
			c-0.956,2.305-0.858,4.821-0.67,7.258c0.135,1.748,0.614,3.521,1.447,5.003c-1.84,1.11-3.469,2.739-5.024,4.748
			c-1.593,2.056-1.526,2.15-2.529,4.571c-0.492,1.191-0.98,2.424-1.404,3.777C131.229,78.306,135.923,80.431,141.159,80.769z"/>
	</g>
	<g id="XMLID_892_">
		<g id="XMLID_894_">
			<g>
				<path fill="#292949" d="M175.499,155.181c0.264-0.291,0.572-0.449,0.92-0.395c0.334,0.053,0.635,0.279,0.772,0.582
					c0.094,0.207,0.112,0.436,0.132,0.662c0.097,1.166,0.088,3.934-1.466,4.332c-0.651,0.168-1.192-0.297-1.366-0.883
					C174.228,158.597,174.617,156.151,175.499,155.181z"/>
			</g>
		</g>
		<g id="XMLID_893_">
			<g>
				<path fill="#EAC5B0" d="M174.946,137.591l0.082,7.111c-0.095,3.16,0.398,6.336,0.304,9.494
					c-0.021,0.727-0.211,1.492-0.027,2.213c0.179,0.703,0.75,0.83,1.338,0.473c0.787-0.479,0.661-1.594,0.791-2.408
					c0.36-2.236,0.783-4.463,1.159-6.697c0.186-1.096-0.195-2.631-0.113-3.738c0-0.002,1.149-5.961,1.149-5.961L174.946,137.591z"/>
			</g>
		</g>
	</g>
	<g id="XMLID_891_">
		<g>
			<polygon fill="#8CABEF" points="183.072,126.099 179.978,139.849 179.319,152.833 174.412,152.724 173.077,116.403 
				182.592,116.577 			"/>
		</g>
	</g>
	<g id="XMLID_886_">
		<g id="XMLID_888_">
			<g id="XMLID_890_">
				<g>
					<path fill="#292949" d="M168.479,154.921c0.275-0.275,0.588-0.414,0.933-0.34c0.331,0.072,0.621,0.318,0.745,0.629
						c0.084,0.213,0.095,0.443,0.104,0.67c0.047,1.174-0.081,3.943-1.646,4.25c-0.657,0.127-1.175-0.367-1.325-0.965
						C167.066,158.267,167.559,155.843,168.479,154.921z"/>
				</g>
			</g>
			<g id="XMLID_889_">
				<g>
					<path fill="#EAC5B0" d="M171.066,138.589l-0.417,7.1c-0.033,1.973-0.297,3.932-0.501,5.893
						c-0.188,1.82,0.105,3.715-0.846,5.371c-0.298,0.52-0.902,0.865-1.323,0.234c-0.325-0.486-0.132-1.297-0.193-1.85
						c-0.255-2.25-0.572-4.494-0.842-6.742c-0.133-1.104,0.319-2.619,0.289-3.73c0-0.002-0.867-6.008-0.867-6.008L171.066,138.589z"
						/>
				</g>
			</g>
		</g>
		<g id="XMLID_887_">
			<g>
				<polygon fill="#8CABEF" points="164.855,125.259 164.455,138.606 166.55,152.103 171.543,152.253 171.323,137.646 
					173.964,125.53 174.852,117.603 166.929,116.667 				"/>
			</g>
		</g>
	</g>
	<g id="XMLID_885_">
		<g>
			<polygon fill="#305399" points="171.122,89.353 179.656,89.149 184.604,98.351 182.846,106.972 182.532,117.286 170.358,117.452 
				166.353,116.802 167.417,105.78 166.808,91.058 			"/>
		</g>
	</g>
	<g id="XMLID_884_">
		<g>
			<polygon fill="#305399" points="179.939,89.784 186.867,100.335 185.826,106.214 175.097,113.647 173.077,111.882 
				180.25,102.813 179.973,97.083 			"/>
		</g>
	</g>
	<g id="XMLID_879_">
		<g id="XMLID_883_">
			<g>
				<path fill="#EAC5B0" d="M172.24,81.388c1.681-3.582,6.439-1.658,7.095,1.764c0.428,2.23-1.543,4.854-3.848,5.232
					c-0.02,0.084-0.266,0.811-0.273,0.879c-0.039,0.346-0.118,0.682-0.207,1.025c-0.033,0.125-1.951-0.463-2.165-0.527
					c-0.074-0.025-0.157-0.055-0.192-0.123c-0.064-0.131,0.332-1.127,0.361-1.264c0.035-0.158,0.069-0.318,0.103-0.477
					c-1.046-0.658-1.618-1.881-1.687-3.07C171.357,83.632,171.735,82.466,172.24,81.388z"/>
			</g>
		</g>
		<g id="XMLID_880_">
			<g id="XMLID_882_">
				<g>
					<path fill="#292949" d="M175.806,78.374c0.235,0.295,0.298,0.678,0.335,1.045c0.022,0.219,0.037,0.443-0.031,0.65
						c-0.272,0.826-1.105,0.689-1.782,0.893c-0.836,0.25-1.59,0.793-2.114,1.457c-0.82,1.039-0.66,2.506-0.509,3.766
						c0.054,0.443,0.187,1.109-0.191,1.459c-0.384,0.355-1.166,0.211-1.553-0.035c-0.354-0.225-0.624-0.6-1.027-0.713
						c-0.426-0.119-1.032,0.008-1.191-0.412c-0.044-0.117-0.035-0.252-0.095-0.361c-0.204-0.369-0.843-0.031-1.155-0.309
						c-0.192-0.172-0.156-0.49-0.059-0.732c0.097-0.244,0.242-0.484,0.221-0.744c-0.018-0.225-0.158-0.414-0.234-0.625
						c-0.15-0.414-0.027-0.922,0.295-1.223c0.602-0.561,1.623-0.332,2.259-0.852c0.331-0.271,0.494-0.695,0.65-1.098
						c0.155-0.402,0.337-0.824,0.686-1.07c0.431-0.303,0.993-0.184,1.427-0.553c0.254-0.217,0.44-0.514,0.72-0.695
						c0.367-0.242,1.051-0.383,1.487-0.479C174.632,77.591,175.362,77.813,175.806,78.374z"/>
				</g>
			</g>
			<g id="XMLID_881_">
				<g>
					<path fill="#292949" d="M178.271,84.642c-0.108,1.227-0.86,2.486-0.412,3.623c0.452,1.148,1.851,1.498,3.053,1.686
						c0.197,0.031,2.726,0.525,2.742,0.479c0.282-0.832,0.573-1.68,1.1-2.381c0.526-0.699,1.338-1.24,2.198-1.201
						c-0.243-0.068-0.334-0.385-0.278-0.635c0.056-0.252,0.212-0.467,0.314-0.703c0.252-0.58,0.146-1.299-0.262-1.77
						c-0.812-0.939-2.486-0.766-3.155-1.814c-0.416-0.652-0.265-1.514-0.438-2.273c-0.333-1.467-1.85-1.93-2.938-2.693
						c-1.15-0.805-2.26-1.299-3.696-1.215c-1.779,0.102-3.271,1.742-2.776,3.488c0.633,2.242,4.109,2.428,4.522,4.68
						C178.29,84.153,178.294,84.397,178.271,84.642z"/>
				</g>
			</g>
		</g>
	</g>
	<g id="XMLID_877_">
		<g>
			<polygon fill="#FFFFFF" points="177.132,89.304 174.965,107.784 173.019,107.784 171.165,89.149 			"/>
		</g>
	</g>
	<g id="XMLID_875_">
		<g>
			<polygon fill="#EAC5B0" points="173.022,113.048 173.069,114.487 170.529,115.413 169.064,114.302 169.063,112.626 
				170.478,112.548 170.521,112.179 170.984,111.882 			"/>
		</g>
	</g>
	<g>
		<path fill="#305399" d="M171.165,89.149l-4.813,0.26c0,0-5.401,2.656-5.759,2.457c-0.356-0.199-6.193-11.885-6.193-11.885
			l-2.858,0.928l3.572,13.369l3.455,3.57l9.767-1.625L171.165,89.149z"/>
	</g>
	<g>
		<path fill="#EAC5B0" d="M154.167,80.079c0,0,0-1.355,0-1.377c0-0.504-1.266-1.68-1.588-2.102
			c-0.184-0.238-1.027,1.072-1.037,1.289c-0.018,0.371,0.517,1.164,0.662,1.547l-0.45,0.643l0.637,0.781L154.167,80.079z"/>
	</g>
</g>
</svg>
