<?xml version="1.0" encoding="utf-8"?>
<!-- Generator: Adobe Illustrator 16.0.0, SVG Export Plug-In . SVG Version: 6.00 Build 0)  -->
<!DOCTYPE svg PUBLIC "-//W3C//DTD SVG 1.1//EN" "http://www.w3.org/Graphics/SVG/1.1/DTD/svg11.dtd">
<svg version="1.1" id="Layer_1" xmlns="http://www.w3.org/2000/svg" xmlns:xlink="http://www.w3.org/1999/xlink" x="0px" y="0px"
	 width="200px" height="165px" viewBox="0 0 200 165" enable-background="new 0 0 200 165" xml:space="preserve">
<path fill="#D5E6F2" d="M2.12,77.648c0-26.573,33.881-83.357,82.073-75.673c34.63,5.524,20.248,43.875,84.475,58.165
	c50.018,11.127,35.675,82.295-34.561,86.156C56.188,150.578,2.12,127.464,2.12,77.648"/>
<path fill="#FFFFFF" d="M180.13,49.194c0,18.068-14.647,32.715-32.716,32.715c-18.067,0-32.713-14.647-32.713-32.715
	c0-18.067,14.646-32.714,32.713-32.714C165.482,16.48,180.13,31.127,180.13,49.194"/>
<path fill="#F3F5F4" d="M182.779,48.412c0,18.069-14.646,32.715-32.715,32.715c-18.068,0-32.715-14.646-32.715-32.715
	c0-18.068,14.646-32.715,32.715-32.715C168.134,15.697,182.779,30.344,182.779,48.412"/>
<circle fill="none" stroke="#70927F" stroke-width="0.25" stroke-miterlimit="10" cx="147.416" cy="49.194" r="32.714"/>
<polygon fill="#EAC5B0" points="149.557,79.425 144.146,79.425 144.572,67.565 149.289,67.565 "/>
<polygon fill="#FFC107" points="146.435,47.462 140.797,66.904 142.732,68.825 140.797,71.164 151.063,72.312 "/>
<polygon fill="#FFC107" points="149.557,79.85 165.52,79.85 171.027,45.088 162.169,44.532 152.219,45.088 146.435,47.462 "/>
<polygon fill="#EAC5B0" points="154.916,50.27 162.168,44.532 159.513,35.743 151.809,36.754 "/>
<polygon fill="#E0B199" points="153.393,43.649 156.943,39.222 151.808,36.754 "/>
<path fill="#EAC5B0" d="M146.591,32.078c-0.356,4.044,0.974,8.998,5.017,9.354c4.043,0.358,8.934-4.451,9.289-8.493
	c0.357-4.043,1.851-10.762-3.631-11.247C149.3,20.988,146.948,28.037,146.591,32.078"/>
<path fill="none" stroke="#422E2D" stroke-miterlimit="10" d="M153.917,28.49c0,0,0.179,1.398,1.803,2.256"/>
<path fill="none" stroke="#422E2D" stroke-miterlimit="10" d="M147.799,28.735c0,0,1.047,0.345,1.936-0.245"/>
<path fill="#422E2D" d="M153.239,31.911c0,0.568,0.253,1.029,0.567,1.029c0.313,0,0.568-0.461,0.568-1.029
	c0-0.568-0.255-1.028-0.568-1.028C153.492,30.883,153.239,31.343,153.239,31.911"/>
<path fill="#422E2D" d="M148.15,31.276c0,0.568,0.256,1.029,0.569,1.029c0.314,0,0.569-0.461,0.569-1.029s-0.255-1.028-0.569-1.028
	C148.406,30.248,148.15,30.708,148.15,31.276"/>
<path fill="#E0B199" d="M150.519,31.911c0,0-0.433,1.723-2.462,1.592C148.057,33.503,150.623,36.791,150.519,31.911"/>
<path fill="#422E2D" d="M162.169,34.586c5.021-6.007,6.934-7.302,0-12.112c0,0-0.677-4.568-6.642-3.097
	c-9.193,2.267-7.504,3.097-7.803,8.106c0,0,4.957,0.636,8.957-1.702c0,0,0.141,2.815,1.786,4.252l-0.285,3.012L162.169,34.586z"/>
<path fill="none" stroke="#422E2D" stroke-miterlimit="10" d="M162.169,22.474c0,0,0.604-1.259,0-2.573"/>
<path fill="none" stroke="#422E2D" stroke-miterlimit="10" d="M161.765,23.167c0,0,2.183-0.974,2.364-1.978"/>
<path fill="#E0B199" d="M158.695,33.239c-0.59,1.565-0.084,3.206,1.131,3.666c1.214,0.459,2.681-0.437,3.271-2.001
	c0.592-1.565,0.087-3.206-1.129-3.666C160.754,30.779,159.289,31.674,158.695,33.239"/>
<polygon fill="#FFB84F" points="163.608,45.088 161.765,40.432 151.471,42.829 154.375,51.596 "/>
<polygon fill="#FFD788" points="151.809,43.852 157.572,43.543 152.219,45.088 "/>
<polygon fill="#FFC107" points="171.027,45.088 172.338,70.814 164.238,75.062 163.608,45.088 "/>
<path fill="#A5BBAA" d="M160.842,40.868l-2.697-0.841c-0.32-0.1-0.5-0.439-0.4-0.76l2.15-6.899c0.101-0.32,0.44-0.498,0.762-0.398
	l2.696,0.841c0.321,0.1,0.499,0.44,0.398,0.761l-2.15,6.898C161.501,40.79,161.161,40.967,160.842,40.868"/>
<path fill="#E8DFCF" d="M161.575,41.098l-2.833-0.883c-0.32-0.1-0.498-0.441-0.397-0.76l2.15-6.899
	c0.1-0.32,0.438-0.499,0.759-0.398l2.835,0.883c0.318,0.099,0.497,0.439,0.397,0.759l-2.15,6.9
	C162.236,41.019,161.896,41.196,161.575,41.098"/>
<path fill="#A5BBAA" d="M161.818,33.45c-0.07,0.225-0.311,0.351-0.534,0.282c-0.227-0.071-0.353-0.31-0.282-0.536
	c0.071-0.225,0.31-0.351,0.535-0.28C161.762,32.985,161.888,33.226,161.818,33.45"/>
<path fill="#EAC5B0" d="M170.706,69.715l-7.788-29.018l-1.184,0.536c0,0-1.104,22.422,3.948,30.98L170.706,69.715z"/>
<path fill="#EAC5B0" d="M162.918,40.697l2.313-5.078c0,0-6.092,1.443-3.497,5.614L162.918,40.697z"/>
<path fill="#EAC5B0" d="M165.231,35.62l-2.711-2.371c0,0-0.956,1.584,2.225,2.676L165.231,35.62z"/>
<path fill="#B14330" d="M161.729,37.589l1.539-1.007l-1.607-1.996c0,0-0.571,1.033,0.896,2.082L161.729,37.589z"/>
<path fill="#EAC5B0" d="M164.745,35.924l-2.857-2.266c0,0-0.825,1.442,2.416,2.444L164.745,35.924z"/>
<polygon fill="#FFD788" points="149.557,79.85 146.435,47.462 151.471,79.85 "/>
<path fill="none" d="M125.25,45.927c0,18.068,14.647,32.715,32.716,32.715c18.069,0,32.716-14.647,32.716-32.715
	s-14.646-32.715-32.716-32.715C139.897,13.212,125.25,27.859,125.25,45.927"/>
<rect x="57.192" y="136.025" fill="#86593E" width="26.022" height="3.819"/>
<polygon fill="#B58E67" points="93.159,158.596 89.918,158.596 74.656,116.077 77.896,116.077 "/>
<polygon fill="#B58E67" points="67.024,158.596 70.265,158.596 74.081,116.077 70.839,116.077 "/>
<polygon fill="#B58E67" points="47.946,158.596 51.187,158.596 66.449,116.077 63.208,116.077 "/>
<path fill="#FFB84F" d="M78.951,85.999H52.049c-0.573,0-1.039,0.465-1.039,1.039v27.77c0,0.912,0.74,1.65,1.652,1.65h28.809v-27.94
	C81.471,87.127,80.343,85.999,78.951,85.999"/>
<path fill="#FFB84F" d="M89.804,120.516H64.269v-4.058h25.535c1.121,0,2.029,0.909,2.029,2.029S90.924,120.516,89.804,120.516"/>
<path fill="#FFD788" d="M53.2,112.102V87.716c0-0.948-0.769-1.717-1.717-1.717c-0.949,0-1.718,0.769-1.718,1.717v24.707
	c0,4.469,3.624,8.093,8.093,8.093h5.947c1.121,0,2.029-0.908,2.029-2.028s-0.908-2.029-2.029-2.029h-6.248
	C55.15,116.458,53.2,114.508,53.2,112.102"/>
<path fill="#7DB3D9" d="M80.741,116.077H67.057c-6.402,0-10.952-6.23-9.003-12.33l2.26-7.068l20.069-2.425L80.741,116.077z"/>
<polygon fill="#EFEBDF" points="82.785,67.887 88.554,88.438 82.785,88.438 76.717,78.162 "/>
<path fill="#EDBCA4" d="M88.289,87.494l14.794,2.861l-0.401,1.233c0,0-13.128,3.129-19.897-3.15L88.289,87.494z"/>
<path fill="#EDBCA4" d="M103.083,90.354l6.364-0.579l-1.764,1.588c-1.399,1.26-3.495,1.353-5.002,0.224L103.083,90.354z"/>
<path fill="#5F281C" d="M109.448,89.776l1.155,2.6c0,0-1.68,0.381-1.648-2.156L109.448,89.776z"/>
<path fill="#5F281C" d="M108.04,90.115l1.047,2.744C109.087,92.858,107.151,93.076,108.04,90.115"/>
<path fill="#5F281C" d="M109.448,89.776l2.161,1.712c0,0-1.457,0.771-2.312-1.374L109.448,89.776z"/>
<rect x="79.497" y="91.624" fill="#FFFFFF" width="26.875" height="1.908"/>
<path fill="#FFFFFF" d="M82.785,67.887l-6.384-2.575h-7.535l-9.633,2.864l4.331,18.303l-3.952,9.878h18.66L76.84,86.021l0.06-0.182
	c0.341-1.043,1.111-1.87,2.091-2.364c1.668-0.84,2.635-1.972,2.772-3.175c0.061-0.535,0.012-1.15-0.109-1.8
	c-0.545-2.935-0.397-5.956,0.533-8.793L82.785,67.887z"/>
<path fill="#EFEBDF" d="M79.328,84.034c1.043-0.525,1.965-1.663,2.255-3.024c0,0-2.288,2.055-10.222,1.316
	c-9.153-0.853-3.443,5.911-6.711,14.031h13.622L76.84,86.021l0.06-0.182C77.242,84.797,78.349,84.527,79.328,84.034"/>
<polygon fill="#EAC5B0" points="75.242,70.355 68.866,65.313 72.244,58.475 77.973,58.475 "/>
<polygon fill="#EDBCA4" points="76.58,64.536 73.46,60.644 77.974,58.474 "/>
<path fill="#422E2D" d="M71.923,44.436c0,0,1.497-1.232,3.369-1.232c1.634,0,5.833,1.725,7.394,5.668
	c1.562,3.944,2.151,7.279,0.593,11.749l-6.892-2.146L71.923,44.436z"/>
<path fill="#EAC5B0" d="M82.56,54.364c0.314,3.554-0.856,7.909-4.409,8.223s-8.857-3.913-9.171-7.466
	c-0.313-3.553-0.621-9.461,4.197-9.887C80.178,44.615,82.245,50.811,82.56,54.364"/>
<path fill="none" stroke="#422E2D" stroke-miterlimit="10" d="M79.755,51.501c0,0,0.989-0.514,1.789,0.179"/>
<path fill="#422E2D" d="M68.529,54.563c0,0,8.363-0.096,10.208-7.394c0,0,1.272,0.218,3.026,2.188c0,0-0.84-4.313-7.811-4.313
	C66.845,45.043,68.529,54.563,68.529,54.563"/>
<path fill="none" stroke="#422E2D" stroke-miterlimit="10" d="M78.607,46.621c0,0,1.377,5.684-7.545,7.579"/>
<path fill="#422E2D" d="M71.923,53.24c0,0-1.375,4.346,0.695,8.475c0,0-6.795,0.889-11.274-4.129
	c-0.111-4.53,2.153-8.924,4.997-11.845c2.379-2.446,9.139-3.243,10.854,1.428C77.195,47.169,72.533,47.033,71.923,53.24"/>
<path fill="none" stroke="#422E2D" stroke-miterlimit="10" d="M83.941,60.926c0,0,3.167-8.868-3.752-14.813"/>
<path fill="none" stroke="#422E2D" stroke-miterlimit="10" d="M60.646,56.931c0,0,0.694-13.727,12.476-12.719"/>
<path fill="#422E2D" d="M76.717,54.217c0,0.499-0.225,0.904-0.5,0.904c-0.275,0-0.5-0.405-0.5-0.904c0-0.5,0.225-0.904,0.5-0.904
	C76.493,53.313,76.717,53.718,76.717,54.217"/>
<path fill="#422E2D" d="M81.188,53.659c0,0.499-0.224,0.904-0.5,0.904c-0.276,0-0.5-0.405-0.5-0.904c0-0.5,0.224-0.905,0.5-0.905
	C80.964,52.754,81.188,53.16,81.188,53.659"/>
<path fill="#EDBCA4" d="M79.107,54.217c0,0,0.381,1.514,2.165,1.399C81.272,55.616,79.015,58.506,79.107,54.217"/>
<path fill="#EDBCA4" d="M71.946,55.384c0.521,1.375,0.076,2.818-0.993,3.222s-2.356-0.383-2.877-1.759
	c-0.52-1.375-0.075-2.817,0.994-3.222C70.138,53.221,71.425,54.009,71.946,55.384"/>
<rect x="68.787" y="48.804" fill="#709480" width="1.009" height="5.396"/>
<rect x="68.116" y="48.804" fill="#B4C6B6" width="1.008" height="5.396"/>
<path fill="#709480" d="M70.371,50.02v-2.613c0-1.117,0.659-2.228,1.616-2.805c0.5-0.302,1.916-1.183,1.916-1.183
	s-2.457,0.002-3.548,0.421l-0.288,0.11c-1.153,0.443-1.914,1.551-1.914,2.786v3.284H70.371z"/>
<path fill="#B4C6B6" d="M69.699,50.02v-2.613c0-1.117,0.624-2.14,1.615-2.653l2.588-1.335l-0.792-0.066
	c-1.165-0.099-2.336,0.068-3.428,0.488l-0.287,0.11c-1.154,0.443-1.915,1.551-1.915,2.786v3.284H69.699z"/>
<path fill="#B4C6B6" d="M71.923,55.443c0,1.576-1.278,2.855-2.854,2.855c-1.576,0-2.854-1.279-2.854-2.855
	c0-1.576,1.278-2.853,2.854-2.853C70.645,52.59,71.923,53.868,71.923,55.443"/>
<path fill="#F1EADF" d="M71.361,55.443c0,1.576-1.278,2.855-2.854,2.855c-1.576,0-2.854-1.279-2.854-2.855
	c0-1.576,1.278-2.853,2.854-2.853C70.083,52.59,71.361,53.868,71.361,55.443"/>
<path fill="#B4C6B6" d="M70.298,55.443c0,0.989-0.802,1.792-1.791,1.792s-1.791-0.803-1.791-1.792c0-0.988,0.802-1.79,1.791-1.79
	S70.298,54.456,70.298,55.443"/>
<path fill="#F1EADF" d="M69.321,55.443c0,0.45-0.364,0.814-0.813,0.814c-0.449,0-0.813-0.364-0.813-0.814
	c0-0.448,0.364-0.812,0.813-0.812C68.957,54.631,69.321,54.995,69.321,55.443"/>
<polygon fill="#F1EADF" points="78.657,61.158 71.865,60.375 68.32,55.582 68.694,55.306 72.118,59.938 78.71,60.696 "/>
<path fill="#B4C6B6" d="M78.807,61.392h-1.667c-0.166,0-0.3-0.134-0.3-0.3v-0.654c0-0.165,0.134-0.298,0.3-0.298h1.667
	c0.165,0,0.299,0.134,0.299,0.298v0.654C79.106,61.258,78.972,61.392,78.807,61.392"/>
<polygon fill="#EFEBDF" points="64.049,79.199 62.748,83.031 61.977,80.382 "/>
<polygon fill="#FFFFFF" points="59.233,68.176 51.012,88.684 57.803,88.684 64.048,79.199 "/>
<path fill="#B7C9B9" d="M95.444,93.532h-5.891c0-1.626,1.318-2.945,2.945-2.945C94.125,90.587,95.444,91.906,95.444,93.532"/>
<path fill="#EAC5B0" d="M58.774,87.21l28.588,3.145l-0.401,1.233c0,0-22.311,7.62-35.948-2.904L58.774,87.21z"/>
<path fill="#EAC5B0" d="M87.362,90.354l6.364-0.579l-1.763,1.588c-1.399,1.26-3.496,1.353-5.002,0.224L87.362,90.354z"/>
<path fill="#EAC5B0" d="M93.726,89.776l1.155,2.6c0,0-1.678,0.381-1.648-2.156L93.726,89.776z"/>
<path fill="#EAC5B0" d="M92.318,90.115l1.048,2.744C93.366,92.858,91.429,93.076,92.318,90.115"/>
<path fill="#EAC5B0" d="M93.726,89.776l2.164,1.712c0,0-1.459,0.771-2.313-1.374L93.726,89.776z"/>
<path fill="#587BC7" d="M120.208,85.198H94.022c-1.64,0-2.943-1.377-2.852-3.015l1.024-17.006c0.084-1.512,1.335-2.695,2.85-2.695
	h26.186c1.641,0,2.943,1.377,2.85,3.015l-1.022,17.007C122.975,84.016,121.724,85.198,120.208,85.198"/>
<path fill="#8B97DE" d="M121.849,85.198H95.662c-1.64,0-2.943-1.377-2.851-3.015l1.022-17.006c0.085-1.512,1.336-2.695,2.852-2.695
	h26.185c1.641,0,2.943,1.377,2.852,3.015l-1.023,17.007C124.613,84.016,123.362,85.198,121.849,85.198"/>
<path fill="#587BC7" d="M112.756,78.77h-8.171l3.431,12.542c0.113,0.412-0.196,0.817-0.624,0.817h-7.974v1.433h9.197h5.456
	c1.368,0,2.361-1.3,2.002-2.62L112.756,78.77z M112.13,89.057c-1.021,0-1.849-0.826-1.849-1.848c0-1.02,0.828-1.848,1.849-1.848
	c1.02,0,1.848,0.828,1.848,1.848C113.978,88.23,113.149,89.057,112.13,89.057"/>
<path fill="#587BC7" d="M111.285,73.849h-4.679c-1.116,0-2.021,0.905-2.021,2.021v2.898h8.722v-2.898
	C113.307,74.754,112.401,73.849,111.285,73.849"/>
<path fill="#E3E3E3" d="M112.628,73.849h-4.68c-1.115,0-2.021,0.905-2.021,2.021v2.898h8.721v-2.898
	C114.648,74.754,113.744,73.849,112.628,73.849"/>
<path fill="#E3E3E3" d="M117.961,90.829l-3.285-12.059h-8.748l0.493,1.805h-0.004l3.085,11.327c0.221,0.809-0.359,1.6-1.181,1.661
	h0.294h1.343h4.082h1.831C117.299,93.563,118.336,92.206,117.961,90.829 M112.802,89.057c-1.021,0-1.849-0.826-1.849-1.848
	c0-1.02,0.827-1.848,1.849-1.848c1.02,0,1.847,0.828,1.847,1.848C114.648,88.23,113.821,89.057,112.802,89.057"/>
<path fill="#8B97DE" d="M112.628,73.849h-4.68c-1.115,0-2.021,0.905-2.021,2.021v2.898h8.721v-2.898
	C114.648,74.754,113.744,73.849,112.628,73.849"/>
<path fill="#8B97DE" d="M117.961,90.829l-3.285-12.059h-8.748l0.493,1.805h-0.004l3.085,11.327c0.221,0.809-0.359,1.6-1.181,1.661
	h0.294h1.343h4.082h1.831C117.299,93.563,118.336,92.206,117.961,90.829 M112.802,89.057c-1.021,0-1.849-0.826-1.849-1.848
	c0-1.02,0.827-1.848,1.849-1.848c1.02,0,1.847,0.828,1.847,1.848C114.648,88.23,113.821,89.057,112.802,89.057"/>
<path fill="none" stroke="#F3F5F4" stroke-linecap="round" stroke-linejoin="round" stroke-miterlimit="10" d="M117.961,90.829
	l-3.285-12.059h-0.027v-2.9c0-1.116-0.904-2.021-2.021-2.021h-4.68"/>
<path fill="none" stroke="#F3F5F4" stroke-linecap="round" stroke-linejoin="round" stroke-miterlimit="10" d="M114.677,78.77
	l3.284,12.059c0.376,1.377-0.662,2.734-2.09,2.734"/>
<path fill="#D1CEC7" d="M96.296,77.648c-0.004,0-0.009,0-0.012,0c-0.114-0.007-0.201-0.103-0.194-0.217l0.564-10.053
	c0.006-0.113,0.102-0.203,0.216-0.193c0.114,0.006,0.201,0.103,0.194,0.217L96.5,77.454C96.495,77.563,96.403,77.648,96.296,77.648"
	/>
<path fill="#D1CEC7" d="M97.636,77.648c-0.004,0-0.008,0-0.012,0c-0.113-0.007-0.2-0.103-0.193-0.217l0.563-10.053
	c0.006-0.113,0.101-0.203,0.216-0.193c0.113,0.006,0.2,0.103,0.194,0.217L97.84,77.454C97.834,77.563,97.743,77.648,97.636,77.648"
	/>
<path fill="#D1CEC7" d="M98.976,77.648c-0.004,0-0.008,0-0.011,0c-0.115-0.007-0.201-0.103-0.194-0.217l0.564-10.053
	c0.006-0.113,0.1-0.203,0.217-0.193c0.112,0.006,0.199,0.103,0.193,0.217l-0.563,10.052C99.174,77.563,99.083,77.648,98.976,77.648"
	/>
<path fill="#D1CEC7" d="M100.315,77.648c-0.004,0-0.008,0-0.012,0c-0.114-0.007-0.201-0.103-0.194-0.217l0.564-10.053
	c0.006-0.113,0.104-0.203,0.217-0.193c0.114,0.006,0.2,0.103,0.193,0.217l-0.563,10.052
	C100.515,77.563,100.424,77.648,100.315,77.648"/>
<path fill="#D1CEC7" d="M101.655,77.648c-0.004,0-0.008,0-0.012,0c-0.113-0.007-0.2-0.103-0.193-0.217l0.563-10.053
	c0.006-0.113,0.104-0.203,0.216-0.193c0.114,0.006,0.201,0.103,0.195,0.217l-0.564,10.052
	C101.854,77.563,101.764,77.648,101.655,77.648"/>
<path fill="#D1CEC7" d="M117.201,77.648c-0.005,0-0.009,0-0.012,0c-0.113-0.007-0.201-0.103-0.194-0.217l0.564-10.053
	c0.006-0.113,0.104-0.203,0.217-0.193c0.114,0.006,0.201,0.103,0.194,0.217l-0.565,10.052
	C117.4,77.563,117.311,77.648,117.201,77.648"/>
<path fill="#D1CEC7" d="M118.541,77.648c-0.004,0-0.008,0-0.013,0c-0.112-0.007-0.199-0.103-0.192-0.217l0.564-10.053
	c0.006-0.113,0.103-0.203,0.215-0.193c0.114,0.006,0.201,0.103,0.194,0.217l-0.563,10.052
	C118.739,77.563,118.649,77.648,118.541,77.648"/>
<path fill="#D1CEC7" d="M119.882,77.648c-0.005,0-0.009,0-0.013,0c-0.112-0.007-0.2-0.103-0.193-0.217l0.564-10.053
	c0.005-0.113,0.101-0.203,0.216-0.193c0.112,0.006,0.199,0.103,0.193,0.217l-0.563,10.052
	C120.08,77.563,119.988,77.648,119.882,77.648"/>
<path fill="#D1CEC7" d="M121.221,77.648c-0.003,0-0.008,0-0.012,0c-0.113-0.007-0.2-0.103-0.194-0.217l0.564-10.053
	c0.007-0.113,0.101-0.203,0.218-0.193c0.112,0.006,0.199,0.103,0.192,0.217l-0.563,10.052
	C121.42,77.563,121.329,77.648,121.221,77.648"/>
<path fill="#D1CEC7" d="M122.561,77.648c-0.004,0-0.008,0-0.01,0c-0.115-0.007-0.202-0.103-0.195-0.217l0.563-10.053
	c0.007-0.113,0.104-0.203,0.218-0.193c0.112,0.006,0.199,0.103,0.193,0.217l-0.564,10.052
	C122.761,77.563,122.669,77.648,122.561,77.648"/>
<path fill="#7DB3D9" d="M93.699,101.497h-9.15l-4.515,48.881h1.414c10.617-28.402,13.665-41.182,14.54-46.157
	C96.24,102.799,95.144,101.497,93.699,101.497"/>
<path fill="#8B97DE" d="M80.207,148.516c0,0,10.136-26.123,7.526-43.776c-0.167-1.124-3.184-3.242-3.184-3.242L80.207,148.516z"/>
<path fill="#7DB3D9" d="M84.839,101.497H77.07l-18.245,47.019l1.143,1.862c13.148-20.211,25.153-38.146,27.639-44.907
	C88.317,103.542,86.895,101.497,84.839,101.497"/>
<path fill="#8B97DE" d="M74.081,109.654c-4.442,1.089-9.12-0.455-10.032-3.239c-1.037-3.158,1.604-4.918,1.604-4.918l-1.947-5.228
	l-3.392,0.409l-2.26,7.068c-1.949,6.1,2.601,12.33,9.003,12.33h4.355l-12.587,32.438C77.705,118.473,74.081,109.654,74.081,109.654"
	/>
<polygon fill="#587BC7" points="60.096,97.359 80.415,97.359 80.504,101.497 58.774,101.497 "/>
<polygon fill="#EAC5B0" points="81.449,150.378 81.449,156.203 85.096,156.6 80.333,156.6 80.035,153.037 78.353,150.831 
	80.207,148.516 "/>
<path fill="#E8DFCF" d="M85.096,156.6l-0.568,1.996h-3.764c-0.648,0-1.174-0.525-1.174-1.172v-3.929l-1.924-2.502l2.542-2.478
	l0.125,8.084H85.096z"/>
<polygon fill="#E8DFCF" points="77.665,150.993 77.665,158.596 78.989,151.836 "/>
<polygon fill="#EAC5B0" points="60.067,150.378 60.067,156.203 63.715,156.6 58.951,156.6 58.653,153.037 56.971,150.831 
	58.825,148.516 "/>
<path fill="#E8DFCF" d="M63.714,156.6l-0.569,1.996h-3.764c-0.648,0-1.174-0.525-1.174-1.172v-3.929l-1.925-2.502l2.542-2.478
	l0.126,8.084H63.714z"/>
<polygon fill="#E8DFCF" points="56.284,150.993 56.284,158.596 57.607,151.836 "/>
<path fill="#FF5555" d="M55.399,158.596H43.502c-1.884,0-3.412-1.527-3.412-3.411V97.359h18.72v57.825
	C58.81,157.068,57.283,158.596,55.399,158.596"/>
<path fill="#8B97DE" d="M52.729,158.596H40.831c-1.884,0-3.412-1.527-3.412-3.411V97.359h18.72v57.825
	C56.139,157.068,54.612,158.596,52.729,158.596"/>
<path fill="#FF5555" d="M127.919,158.596H116.02c-1.884,0-3.411-1.527-3.411-3.411V97.359h18.721v57.825
	C131.329,157.068,129.802,158.596,127.919,158.596"/>
<path fill="#8B97DE" d="M125.246,158.596H113.35c-1.885,0-3.412-1.527-3.412-3.411V97.359h18.722v57.825
	C128.659,157.068,127.131,158.596,125.246,158.596"/>
<path fill="#8B97DE" d="M31.844,99.429h94.965c1.193,0,2.162-0.969,2.162-2.163v-1.57c0-1.194-0.969-2.163-2.162-2.163H31.844
	c-1.194,0-2.162,0.969-2.162,2.163v1.57C29.682,98.46,30.65,99.429,31.844,99.429"/>
<path fill="#FF5555" d="M74.859,99.429h66.266c1.192,0,2.162-0.969,2.162-2.163v-1.57c0-1.194-0.97-2.163-2.162-2.163H74.859
	c-1.195,0-2.163,0.969-2.163,2.163v1.57C72.696,98.46,73.664,99.429,74.859,99.429"/>
<rect x="37.419" y="99.429" fill="#587BC7" width="18.72" height="3.447"/>
<rect x="109.938" y="99.429" fill="#587BC7" width="18.721" height="3.447"/>
<path fill="#FFFFFF" d="M134.895,36.803l-4.78-3.827H99.857c-2.015,0-3.649-1.635-3.649-3.65V24.32c0-2.015,1.634-3.649,3.649-3.649
	h31.389c2.016,0,3.648,1.634,3.648,3.649V36.803z"/>
<path fill="#FD5555" d="M134.895,36.803l-4.78-3.827H99.857c-2.015,0-3.649-1.635-3.649-3.65V24.32c0-2.015,1.634-3.649,3.649-3.649
	h31.389c2.016,0,3.648,1.634,3.648,3.649V36.803z"/>
<line fill="none" stroke="#FFFFFF" stroke-width="0.25" stroke-miterlimit="10" x1="100.525" y1="23.714" x2="121.716" y2="23.714"/>
<line fill="none" stroke="#FFFFFF" stroke-width="0.25" stroke-miterlimit="10" x1="100.525" y1="26.53" x2="121.716" y2="26.53"/>
<line fill="none" stroke="#FFFFFF" stroke-width="0.25" stroke-miterlimit="10" x1="100.525" y1="29.344" x2="121.716" y2="29.344"/>
<path fill="#4BB3FF" d="M87.914,53.916l4.779-3.827h30.258c2.015,0,3.648-1.633,3.648-3.649v-5.005c0-2.015-1.634-3.65-3.648-3.65
	H91.563c-2.016,0-3.649,1.635-3.649,3.65V53.916z"/>
<path fill="none" stroke="#70927F" stroke-width="0.25" stroke-miterlimit="10" d="M87.914,53.916l4.779-3.827h30.258
	c2.015,0,3.648-1.633,3.648-3.649v-5.005c0-2.015-1.634-3.65-3.648-3.65H91.563c-2.016,0-3.649,1.635-3.649,3.65V53.916z"/>
<line fill="none" stroke="#FFFFFF" stroke-width="0.25" stroke-miterlimit="10" x1="122.283" y1="40.827" x2="101.093" y2="40.827"/>
<line fill="none" stroke="#FFFFFF" stroke-width="0.25" stroke-miterlimit="10" x1="122.283" y1="43.643" x2="101.093" y2="43.643"/>
<line fill="none" stroke="#FFFFFF" stroke-width="0.25" stroke-miterlimit="10" x1="122.283" y1="46.458" x2="101.093" y2="46.458"/>
<path fill="#FD5555" d="M164.25,29.677l0.155-0.035c2.443,1.464,4.032,1.393,4.831,0.149l0.024-0.039
	c0.678-1.055,0.341-2.31-1.017-3.182c-1.188-0.763-2.507-0.865-4.031-0.485l-0.444-2.417c1.892-0.541,3.852-0.481,5.887,0.827
	c2.64,1.694,3.486,4.316,1.973,6.672l-0.024,0.037c-1.526,2.375-3.932,2.347-6.252,1.362l-1.158,1.386l-1.528-0.98L164.25,29.677z
	 M161.103,34.204l2.526,1.622l-1.672,2.602l-2.525-1.623L161.103,34.204z"/>
<path fill="#46B70B" d="M34.119,116.215L34.119,116.215c-2.698,0-4.885,2.187-4.885,4.885v31.544c0,0.705,0.572,1.277,1.277,1.277
	h7.215c0.705,0,1.276-0.572,1.276-1.277V121.1C39.003,118.401,36.816,116.215,34.119,116.215"/>
<path fill="#46B70B" d="M38.44,135.523h-3.215c-1.33,0-2.407-1.078-2.407-2.406c0-1.33,1.078-2.408,2.407-2.408h3.215
	c1.79,0,3.245-1.457,3.245-3.246v-3.368c0-1.33,1.078-2.407,2.408-2.407c1.329,0,2.407,1.077,2.407,2.407v3.368
	C46.5,131.907,42.885,135.523,38.44,135.523"/>
<path fill="#46B70B" d="M33.339,141.865h-3.369c-4.444,0-8.06-3.614-8.06-8.06v-3.215c0-1.329,1.077-2.406,2.407-2.406
	c1.329,0,2.408,1.077,2.408,2.406v3.215c0,1.79,1.455,3.246,3.245,3.246h3.369c1.33,0,2.408,1.077,2.408,2.407
	C35.747,140.788,34.669,141.865,33.339,141.865"/>
<rect x="31.338" y="121.696" fill="#F3F5F4" width="0.401" height="1.674"/>
<rect x="36.455" y="119.185" fill="#F3F5F4" width="0.401" height="1.675"/>
<rect x="33.604" y="128.917" fill="#F3F5F4" width="0.401" height="1.674"/>
<rect x="35.025" y="123.847" fill="#F3F5F4" width="0.401" height="1.675"/>
<rect x="37.217" y="138.177" fill="#F3F5F4" width="0.401" height="1.675"/>
<rect x="42.688" y="123.258" fill="#F3F5F4" width="0.401" height="1.675"/>
<rect x="31.338" y="134.23" fill="#F3F5F4" width="0.401" height="1.674"/>
<rect x="31.757" y="141.384" fill="#F3F5F4" width="0.401" height="1.674"/>
<rect x="35.524" y="133.848" fill="#F3F5F4" width="0.401" height="1.675"/>
<rect x="23.32" y="134.188" fill="#F3F5F4" width="0.401" height="1.675"/>
<rect x="25.245" y="131.062" fill="#F3F5F4" width="0.401" height="1.676"/>
<rect x="26.128" y="135.862" fill="#F3F5F4" width="0.401" height="1.675"/>
<rect x="37.571" y="127.464" fill="#F3F5F4" width="0.401" height="1.675"/>
<rect x="43.524" y="129.754" fill="#F3F5F4" width="0.401" height="1.674"/>
<path fill="#FF5555" d="M42.395,144.655H26.017c-0.442,0-0.784,0.391-0.725,0.829l1.697,12.704c0.173,1.298,1.28,2.267,2.589,2.267
	h9.538c1.332,0,2.45-1.001,2.597-2.323l1.41-12.663C43.17,145.035,42.831,144.655,42.395,144.655"/>
<polygon fill="#587BC7" points="42.36,152.313 42.646,149.738 25.858,149.738 26.203,152.313 "/>
<path fill="#F3F5F4" d="M30.237,79.199c0,2.245-1.819,4.063-4.063,4.063s-4.062-1.818-4.062-4.063c0-2.244,1.818-4.063,4.062-4.063
	S30.237,76.955,30.237,79.199"/>
<circle fill="none" stroke="#70927F" stroke-width="0.25" stroke-miterlimit="10" cx="26.174" cy="79.199" r="4.063"/>
<path fill="#F3F5F4" d="M156.997,88.684c0,2.243-1.818,4.063-4.063,4.063c-2.243,0-4.063-1.819-4.063-4.063
	c0-2.244,1.819-4.063,4.063-4.063C155.179,84.622,156.997,86.44,156.997,88.684"/>
<circle fill="none" stroke="#70927F" stroke-width="0.25" stroke-miterlimit="10" cx="152.935" cy="88.684" r="4.063"/>
<path fill="#F3F5F4" d="M150.321,114.465c0,1.122-0.909,2.03-2.03,2.03c-1.122,0-2.032-0.908-2.032-2.03s0.91-2.031,2.032-2.031
	C149.412,112.434,150.321,113.343,150.321,114.465"/>
<circle fill="none" stroke="#70927F" stroke-width="0.25" stroke-miterlimit="10" cx="148.29" cy="114.465" r="2.031"/>
<polygon fill="#F3F5F4" points="176.135,51.075 174.57,57.504 169.704,52.638 "/>
<polygon fill="none" stroke="#70927F" stroke-width="0.25" stroke-miterlimit="10" points="176.135,51.075 174.57,57.504 
	169.704,52.638 "/>
<polygon fill="#F3F5F4" points="67.672,32.94 62.021,36.381 62.021,29.5 "/>
<polygon fill="none" stroke="#70927F" stroke-width="0.25" stroke-miterlimit="10" points="67.672,32.94 62.021,36.381 62.021,29.5 
	"/>
<polygon fill="#F3F5F4" points="176.534,112.434 170.882,115.874 170.882,108.992 "/>
<polygon fill="none" stroke="#70927F" stroke-width="0.25" stroke-miterlimit="10" points="176.534,112.434 170.882,115.874 
	170.882,108.992 "/>
<path fill="#FFFFFF" d="M182.741,99.88h-26.834c-1.641,0-2.973-1.331-2.973-2.972V91.6c0-1.642,1.332-2.971,2.973-2.971h26.834
	c1.641,0,2.973,1.33,2.973,2.971v5.308C185.714,98.549,184.382,99.88,182.741,99.88"/>
<path fill="#FD5555" d="M182.741,99.88h-26.834c-1.641,0-2.973-1.331-2.973-2.972V91.6c0-1.642,1.332-2.971,2.973-2.971h26.834
	c1.641,0,2.973,1.33,2.973,2.971v5.308C185.714,98.549,184.382,99.88,182.741,99.88z"/>
<line fill="none" stroke="#FFFFFF" stroke-width="0.25" stroke-miterlimit="10" x1="179.919" y1="91.439" x2="158.729" y2="91.439"/>
<line fill="none" stroke="#FFFFFF" stroke-width="0.25" stroke-miterlimit="10" x1="179.919" y1="94.253" x2="158.729" y2="94.253"/>
<line fill="none" stroke="#FFFFFF" stroke-width="0.25" stroke-miterlimit="10" x1="179.919" y1="97.068" x2="158.729" y2="97.068"/>
<path fill="#FFFFFF" d="M50.272,63.811H23.438c-1.642,0-2.972-1.331-2.972-2.972v-5.307c0-1.642,1.331-2.972,2.972-2.972h26.833
	c1.642,0,2.972,1.331,2.972,2.972v5.307C53.244,62.48,51.914,63.811,50.272,63.811"/>
<path fill="#4BB3FF" d="M50.272,63.811H23.438c-1.642,0-2.972-1.331-2.972-2.972v-5.307c0-1.642,1.331-2.972,2.972-2.972h26.833
	c1.642,0,2.972,1.331,2.972,2.972v5.307C53.244,62.48,51.914,63.811,50.272,63.811z"/>
<line fill="none" stroke="#FFFFFF" stroke-width="0.25" stroke-miterlimit="10" x1="47.45" y1="55.371" x2="26.26" y2="55.371"/>
<line fill="none" stroke="#FFFFFF" stroke-width="0.25" stroke-miterlimit="10" x1="47.45" y1="58.186" x2="26.26" y2="58.186"/>
<line fill="none" stroke="#FFFFFF" stroke-width="0.25" stroke-miterlimit="10" x1="47.45" y1="61" x2="26.26" y2="61"/>
</svg>
