<?xml version="1.0" encoding="utf-8"?>
<!-- Generator: Adobe Illustrator 16.0.0, SVG Export Plug-In . SVG Version: 6.00 Build 0)  -->
<!DOCTYPE svg PUBLIC "-//W3C//DTD SVG 1.1//EN" "http://www.w3.org/Graphics/SVG/1.1/DTD/svg11.dtd">
<svg version="1.1" id="Layer_1" xmlns="http://www.w3.org/2000/svg" xmlns:xlink="http://www.w3.org/1999/xlink" x="0px" y="0px"
	 width="200px" height="200px" viewBox="0 0 200 200" enable-background="new 0 0 200 200" xml:space="preserve">
<path fill="#8C99E0" d="M116.48,25.176c8.664,3.704,18.052,5.508,27.426,6.932c17.635,2.68,35.979,7.19,39.678,27.397
	c2.12,11.578-2.29,23.871-10.434,32.37c-6.398,6.68-15.448,12.125-17.053,21.235c-1.365,7.766,3.379,15.54,2.463,23.372
	c-0.9,7.71-7.424,13.247-13.601,17.95c-23.52,17.913-91.377,20.521-117.438-4.811C-5.547,117.478,0.426,58.236,31.897,33.82
	C63.768,9.097,91.327,14.422,116.48,25.176z"/>
<path fill="#D7E8F4" d="M161.125,183.398c2.402-0.653,3.705-1.351,3.705-2.071c0-3.738-34.717-6.77-77.539-6.77
	c-42.823,0-77.538,3.031-77.538,6.77c0,1.823,8.271,3.479,21.713,4.696c-2.402,0.652-3.706,1.349-3.706,2.071
	c0,3.739,34.716,6.77,77.54,6.77c42.821,0,77.535-3.03,77.535-6.77C182.836,186.271,174.566,184.615,161.125,183.398z"/>
<path fill="#EAC3B2" d="M76.245,62.288c0,0,2.189-3.029,1.421-5.369c-0.768-2.339-2.889-1.337-3.135,0.092
	c-0.246,1.431-0.204,1.528-0.414,1.917c-0.21,0.387-0.417,0.501-0.237-0.125c0.18-0.625,0.242-1.783-0.247-1.449
	c-0.489,0.333-1.011,2.612-0.309,4.017C74.028,62.777,76.245,62.288,76.245,62.288z"/>
<path fill="#F77B00" d="M55.07,91.071c3.609-2.042,10.147-5.455,16.341-12.146c6.194-6.69,5.289-16.75,5.289-16.75l-3.902-1.24
	c0,0-4.215,11.009-6.694,13.491c-2.48,2.481-13.985,4.494-16.895,6.952C43.326,86.35,49.4,94.281,55.07,91.071z"/>
<path fill="#305399" d="M55.07,91.071c3.609-2.042,10.147-5.455,16.341-12.146c6.194-6.69,5.289-16.75,5.289-16.75l-3.902-1.24
	c0,0-4.215,11.009-6.694,13.491c-2.48,2.481-13.985,4.494-16.895,6.952C43.326,86.35,49.4,94.281,55.07,91.071z"/>
<path opacity="0.76" fill="#FFC400" d="M91.397,129.517c-18.13-33.257-6.761-45.336-6.761-45.336h6.761h0.106h6.76
	c0,0,11.37,12.079-6.76,45.336v0.197c-0.019-0.032-0.035-0.064-0.053-0.098c-0.019,0.033-0.036,0.065-0.054,0.098V129.517z"/>
<path opacity="0.46" fill="#F77B00" d="M91.653,116.685c-12.998-23.844-4.847-32.504-4.847-32.504h4.847h0.077h4.847
	c0,0,8.15,8.66-4.847,32.504v0.144c-0.014-0.024-0.026-0.048-0.039-0.071c-0.014,0.023-0.026,0.047-0.039,0.071V116.685z"/>
<path opacity="0.46" fill="#DB3537" d="M91.64,103.358c-7.669-14.068-2.859-19.178-2.859-19.178h2.859h0.045h2.86
	c0,0,4.809,5.109-2.86,19.178v0.084c-0.008-0.013-0.014-0.028-0.023-0.041c-0.007,0.013-0.015,0.028-0.022,0.041V103.358z"/>
<path fill="#B2B2B2" d="M79.992,81.678h22.672v2.813h-0.081c0.052,0.04,0.081,0.082,0.081,0.125c0,0.589-5.077,1.064-11.337,1.064
	c-6.26,0-11.335-0.476-11.335-1.064c0-0.042,0.029-0.085,0.08-0.125h-0.08V81.678z"/>
<path fill="#DDDDDD" d="M77.355,77.421h27.946v3.467h-0.099c0.062,0.05,0.099,0.102,0.099,0.154c0,0.725-6.257,1.311-13.974,1.311
	s-13.972-0.585-13.972-1.311c0-0.052,0.036-0.104,0.099-0.154h-0.099V77.421z"/>
<path fill="#F7F7F7" d="M74.294,72.462h34.067v4.226h-0.121c0.077,0.062,0.121,0.125,0.121,0.188c0,0.884-7.626,1.6-17.034,1.6
	c-9.408,0-17.033-0.716-17.033-1.6c0-0.063,0.044-0.125,0.121-0.188h-0.121V72.462z"/>
<ellipse fill="#5B5B5B" cx="91.327" cy="72.462" rx="17.034" ry="1.598"/>
<path fill="#FFC107" d="M62.793,31.705L62.793,31.705L62.793,31.705c0-16.191,13.468-29.238,29.813-28.547
	c14.471,0.613,26.326,12.19,27.271,26.642c0.315,4.818-0.576,9.393-2.384,13.473c-1.854,4.803-5.309,10.722-11.709,17.006
	c0,0-4.848,5.992-4.599,11.231c0.038,0.771-0.606,1.405-1.379,1.405h-8.44h-0.448h-8.44c-0.772,0-1.416-0.634-1.379-1.405
	c0.25-5.239-4.598-11.231-4.598-11.231C60.84,44.902,62.793,31.705,62.793,31.705z"/>
<polyline fill="none" stroke="#333333" stroke-width="0.6323" stroke-miterlimit="10" points="79.717,38.023 87.297,73.33 
	93.636,73.35 98.781,50.994 "/>
<path fill="none" stroke="#333333" stroke-width="0.6323" stroke-miterlimit="10" d="M78.872,43.202c0,0,1.578-2.614,2.806,0.083
	c1.413,3.104,1.236-0.267,3.697,0c3.221,0.352,1.77,8.159,3.405,6.066c2.104-2.694,4.071-2.113,4.438,1.568
	c0.479,4.781,2.64,4.833,3.506,3.252c1.18-2.152,2.774-2.024,2.901,1.291"/>
<path opacity="0.33" fill="#FFC400" d="M62.793,31.705c0-9.202,4.355-17.382,11.11-22.608c-2.328,4.136-3.406,8.916-3.657,13.994
	C69.625,35.635,74.294,59.74,98.275,64.3h0.097h0.448h4.373c-1.096,2.078-2.104,4.683-2.01,7.132
	c0.031,0.815-0.647,1.482-1.462,1.482h-8.355h-0.448h-8.355c-0.819,0-1.492-0.672-1.461-1.49c0.195-5.22-4.601-11.146-4.601-11.146
	C60.84,44.902,62.793,31.705,62.793,31.705z"/>
<path opacity="0.41" fill="#FFC400" d="M93.465,6.463c0,0,25.001,1.43,21.734,30.556C115.199,37.019,115.418,16.08,93.465,6.463z"/>
<path fill="#333333" d="M128.275,175.109c0,0,0.324,1.665-1.179,3.795c-1.507,2.128-5.773,4.026-4.756,5.671
	c0.813,1.312,8.424-2.187,11.458-3.651c0.782-0.376,1.213-1.235,1.027-2.081c-0.296-1.337-0.981-3.265-2.563-4.371
	C129.671,172.657,128.275,175.109,128.275,175.109z"/>
<path opacity="0.41" fill="#333333" d="M128.275,175.109c0,0,0.324,1.665-1.179,3.795c-1.507,2.128-5.773,4.026-4.756,5.671
	c0.813,1.312,8.424-2.187,11.458-3.651c0.782-0.376,1.213-1.235,1.027-2.081c-0.296-1.337-0.981-3.265-2.563-4.371
	C129.671,172.657,128.275,175.109,128.275,175.109z"/>
<path fill="#295FA6" d="M125.396,109.092c0,0-3.422,7.705-5.478,13.886c-1.882,5.648-2.913,13.496-3.978,18.116
	c-0.448,1.935-0.361,3.954,0.246,5.845l10.458,32.522l7.958-2.027c0,0-1.718-25.313-4.057-28.728
	c-2.342-3.416-3.651-5.054-3.651-5.054s5.835-12.561,6.772-17.709c0.936-5.15,0.936-13.888,0.936-13.888L125.396,109.092z"/>
<path fill="#4BB5FF" d="M125.396,109.092c0,0-3.386,7.717-5.478,13.886c-2.245,6.617-2.913,13.496-3.978,18.116
	c-0.448,1.935-0.361,3.954,0.246,5.845l10.458,32.522l7.958-2.027c0,0-1.718-25.313-4.057-28.728
	c-2.342-3.416-3.651-5.054-3.651-5.054s5.835-12.561,6.772-17.709c0.936-5.15,0.936-13.888,0.936-13.888L125.396,109.092z"/>
<path opacity="0.13" fill="#295FA6" d="M129.542,119.66l2.913,6.627l-0.153,4.329c-2.092,5.934-5.406,13.036-5.406,13.036
	s1.31,1.638,3.651,5.054c0.589,0.857,1.138,3.103,1.629,5.978c-3.2-6.547-9.276-11.031-9.276-11.031
	C127.062,136.548,129.542,119.66,129.542,119.66z"/>
<path fill="#EAC3B2" d="M142.021,74.026l4.394,0.252c0,0-2.374,5.664-1.593,8.811c0,0-4.269,0.899-7.645-1.382
	c0,0,2.26-5.714,2.012-7.43C138.945,72.563,142.021,74.026,142.021,74.026z"/>
<path opacity="0.66" fill="#EAC3B2" d="M142.021,74.026l4.394,0.252c0,0-2.374,5.664-1.593,8.811c0,0-4.269,0.899-7.645-1.382
	c0,0,2.26-5.714,2.012-7.43C138.945,72.563,142.021,74.026,142.021,74.026z"/>
<ellipse transform="matrix(-0.6929 -0.721 0.721 -0.6929 188.418 221.3189)" fill="#EAC3B2" cx="141.341" cy="70.534" rx="6.265" ry="8.276"/>
<path opacity="0.66" fill="#EAC3B2" d="M143.155,73.259c2.725-3.359,3.008-7.694,0.754-9.999c1.316,0.111,2.511,0.615,3.399,1.54
	c2.397,2.495,1.668,7.084-1.627,10.251c-3.01,2.892-7.112,3.589-9.628,1.792C138.446,76.973,141.182,75.688,143.155,73.259z"/>
<path fill="#333333" d="M135.787,176.49c0,0-0.221,1.682-2.325,3.22c-2.104,1.541-6.753,1.983-6.31,3.867
	c0.354,1.502,8.679,0.604,12.022,0.183c0.862-0.11,1.543-0.785,1.634-1.647c0.148-1.36,0.112-3.406-1.036-4.958
	C137.892,174.608,135.787,176.49,135.787,176.49z"/>
<path fill="#5BC3FC" d="M131.223,107.442c0,0-2.746,16.534-2.545,35.534c0.067,6.451,5.557,35.011,5.557,35.011h7.105
	c0,0,3.061-30.156-0.825-34.862c0,0,8.041-18.215,5.77-29.167C144.936,107.442,131.223,107.442,131.223,107.442z"/>
<path fill="#4BB5FF" d="M138.957,177.89c0,0,1.237-30.286-2.925-34.748c0,0,6.93-18.668,4.005-29.463
	c-0.918-3.388-5.158-4.757-8.963-5.296c0.093-0.607,0.148-0.94,0.148-0.94s13.713,0,15.062,6.516
	c2.271,10.952-5.77,29.167-5.77,29.167c3.886,4.706,0.825,34.862,0.825,34.862h-3.999L138.957,177.89z"/>
<path fill="#FF5555" d="M144.422,81.368c-1.293,0.223-3.758,0.164-7.306-1.767c0,0-5.797,1.445-8.645,11.515
	c-2.851,10.07-4.93,17.192-4.383,19.604c0.547,2.408,11.075,6.825,19.447,2.461c6.191-3.229,3.78-25.194,2.373-30.837
	C145.743,81.677,145.1,81.253,144.422,81.368z"/>
<path fill="#EAC3B2" d="M143.712,120.352c0,0-0.667,3.418-2.751,4.385c-2.079,0.966-2.748-1.114-1.932-2.192
	c0.818-1.077,1.45-1.376,1.582-1.766c0.13-0.391-0.464-0.339-0.775,0.183c-0.313,0.52-1.061,1.299-1.146,0.753
	c-0.082-0.546,0.516-2.236,1.921-2.651C142.015,118.646,143.712,120.352,143.712,120.352z"/>
<path opacity="0.26" fill="#DB3537" d="M146.313,101.976l-3.911-8.116c0,0,1.647,9.39,0.604,12.459
	c-1.044,3.067-5.312,8.712-5.312,8.712l8.279-1.965L146.313,101.976z"/>
<path fill="#FF5555" d="M144.422,81.805c0,0,4.368-0.264,5.647,3.679c1.277,3.946,2.947,11.138,2.288,20.231
	c-0.659,9.096-8.623,15.303-8.623,15.303l-3.571-2.002c0,0,5.164-10.599,5.282-14.104c0.12-3.506-4.319-13.658-4.188-17.465
	C141.478,81.093,144.422,81.805,144.422,81.805z"/>
<path fill="#513216" d="M148.751,63.171c-0.951-0.053-1.896-0.228-2.735-0.679c-0.458-0.247-0.964-0.573-1.482-1.006
	c-1.725-1.444-6.042-1.061-6.269,1.197c-0.226,2.257,0.829,5.48,7.007,7.35c1.208,0.365,0.795,1.825-0.752,3.904
	c-4.873,6.549-1.883,16.224,0.663,19.851c2.542,3.627,7.48,8.134,15.713,6.535c9.494-1.845,7.931-11.271,3.771-13.4
	c-4.163-2.13,0.362-8.103-4.299-10.444c-4.046-2.033-6.188-3.884-5.894-6.578C154.82,66.736,151.87,63.342,148.751,63.171z"/>
<path fill="#EAC3B2" d="M134.53,62.944c0,0,7.55-2.323,9.332,1.931c0,0,0.322,0.672-1.181,0.598
	c-1.502-0.073-5.449-0.671-7.461-0.086C133.208,65.974,134.53,62.944,134.53,62.944z"/>
<path fill="#FF5555" d="M129.69,89.416c0,0-7.902-10.32-9.435-19.854c-0.128-0.796,0.228-1.591,0.9-2.034
	c1.995-1.309,6.898-5.092,15.539-5.617l0.527,3.309c0,0-5.617,4.507-9.257,4.751c0,0,5.341,8.968,8.258,9.476
	C139.136,79.955,129.69,89.416,129.69,89.416z"/>
<path fill="#EAC3B2" d="M144.224,71.146c0,0,1.054-1.872,2.291-0.961c1.234,0.91,0.506,4.948-2.134,3.921"/>
<g opacity="0.39">
	<path fill="#513216" d="M154.657,97.729c9.258-0.702,8.814-9.86,5.086-12.355c-3.732-2.493,1.247-7.682-2.936-10.434
		c-3.632-2.388-5.467-4.39-4.889-6.926c0.31-1.351-0.024-2.818-0.756-4.071c2.051,1.21,3.564,3.642,3.311,5.958
		c-0.295,2.693,1.848,4.545,5.894,6.578c4.661,2.342,0.136,8.314,4.299,10.444c4.16,2.129,5.724,11.555-3.771,13.4
		c-6.087,1.182-10.372-0.974-13.22-3.645C149.6,97.493,151.897,97.938,154.657,97.729z"/>
</g>
<path opacity="0.66" fill="#EAC3B2" d="M144.224,71.146c0,0,1.054-1.872,2.291-0.961c1.234,0.91,0.506,4.948-2.134,3.921"/>
<path opacity="0.26" fill="#DB3537" d="M120.36,70.136c1.757,5.9,5.941,11.136,11.823,12.96c0,0-2.138,2.176-3.021,5.604
	C127.413,86.264,121.827,78.01,120.36,70.136z"/>
<path fill="#333333" d="M70.003,176.12c0,0-0.186,1.686,1.49,3.683c1.676,1.996,6.085,3.535,5.206,5.259
	c-0.701,1.373-8.573-1.482-11.721-2.689c-0.809-0.311-1.31-1.131-1.193-1.99c0.182-1.355,0.706-3.334,2.189-4.567
	C68.409,173.791,70.003,176.12,70.003,176.12z"/>
<path fill="#295FA6" d="M67.399,110.089c0,0,4.048,7.396,6.612,13.385c2.341,5.473,4.021,13.209,5.467,17.725
	c0.605,1.893,0.686,3.912,0.237,5.846l-7.727,33.277l-8.099-1.362c0,0-0.387-25.366,1.662-28.965c2.05-3.597,3.22-5.338,3.22-5.338
	s-6.857-12.034-8.217-17.087c-1.359-5.055-2.083-13.762-2.083-13.762L67.399,110.089z"/>
<path fill="#7DB5DB" d="M67.399,110.089c0,0,4.048,7.396,6.612,13.385c2.341,5.473,4.021,13.209,5.467,17.725
	c0.605,1.893,0.686,3.912,0.237,5.846l-7.727,33.277l-8.099-1.362c0,0-0.387-25.366,1.662-28.965c2.05-3.597,3.22-5.338,3.22-5.338
	s-6.857-12.034-8.217-17.087c-1.359-5.055-2.083-13.762-2.083-13.762L67.399,110.089z"/>
<path fill="#EAC3B2" d="M49.596,72.875l-5.032,0.289c0,0,2.719,6.486,1.825,10.09c0,0,4.888,1.028,8.751-1.583
	c0,0-2.586-6.544-2.304-8.509C53.118,71.2,49.596,72.875,49.596,72.875z"/>
<path opacity="0.66" fill="#EAC3B2" d="M49.596,72.875l-5.032,0.289c0,0,2.719,6.486,1.825,10.09c0,0,4.888,1.028,8.751-1.583
	c0,0-2.586-6.544-2.304-8.509C53.118,71.2,49.596,72.875,49.596,72.875z"/>
<ellipse transform="matrix(0.8605 -0.5095 0.5095 0.8605 -27.6873 35.4284)" fill="#EAC3B2" cx="50.837" cy="68.262" rx="7.173" ry="9.477"/>
<path opacity="0.66" fill="#EAC3B2" d="M48.002,70.71c-1.979-4.539,1.036-10.09,4.228-11.942c-1.488-0.281-4.958,0.591-6.221,1.34
	c-3.41,2.018-4.011,7.305-1.344,11.809c2.435,4.11,6.748,6.136,10.074,4.924C52.059,76.253,49.433,73.996,48.002,70.71z"/>
<path fill="#333333" d="M55.718,176.216c0,0,0.165,1.688,2.214,3.299s6.682,2.209,6.176,4.075c-0.404,1.49-8.695,0.313-12.024-0.224
	c-0.854-0.138-1.514-0.838-1.577-1.701c-0.101-1.364,0.006-3.407,1.204-4.919C53.679,174.265,55.718,176.216,55.718,176.216z"/>
<path fill="#7DB5DB" d="M62.617,108.514c0,0,2.185,16.618,1.341,35.601c-0.287,6.445-6.74,34.802-6.74,34.802l-7.101-0.241
	c0,0-2.036-30.242,2.006-34.813c0,0-7.421-18.477-4.781-29.346C48.912,108.049,62.617,108.514,62.617,108.514z"/>
<path opacity="0.13" fill="#295FA6" d="M52.502,178.66c0,0-0.211-30.311,4.1-34.63c0,0-6.293-18.892-3.004-29.582
	c1.031-3.354,5.315-4.579,9.134-4.99c-0.071-0.609-0.115-0.944-0.115-0.944s-13.705-0.465-15.275,6.002
	c-2.64,10.869,4.781,29.346,4.781,29.346c-4.042,4.571-2.006,34.813-2.006,34.813l3.995,0.136L52.502,178.66z"/>
<path fill="#305399" d="M47.542,81.074c1.294,0.223,3.76,0.163,7.307-1.767c0,0,5.796,1.444,8.645,11.515
	c2.849,10.07,6.448,20.624,5.901,23.033c-0.548,2.411-17.182,10.15-22.693,2.484c-3.308-4.599-2.053-28.647-0.646-34.29
	C46.221,81.383,46.864,80.959,47.542,81.074z"/>
<path opacity="0.47" fill="#F77B00" d="M63.663,89.875l2.772,12.335c0,0-17.765-10.628-17.636-14.228
	C48.929,84.384,63.663,89.875,63.663,89.875z"/>
<path fill="#EAC3B2" d="M87.334,86.738c0,0,3.694-0.569,4.821-2.758c1.126-2.188-1.076-2.996-2.267-2.167
	c-1.191,0.831-1.231,0.929-1.655,1.051c-0.424,0.123-0.649,0.056-0.079-0.256c0.572-0.311,1.441-1.08,0.858-1.192
	c-0.581-0.114-2.569,1.113-3.076,2.602C85.429,85.503,87.334,86.738,87.334,86.738z"/>
<path fill="#305399" d="M51.973,91.872c3.988,1.135,11.008,3.395,20.121,3.108c9.114-0.289,15.639-7.996,15.639-7.996l-1.855-3.65
	c0,0-10.799,4.73-14.307,4.707c-3.508-0.023-13.02-6.802-16.813-7.147C47.087,80.195,45.706,90.086,51.973,91.872z"/>
<path fill="#513216" d="M45.191,58.963c3.5-2.06,8.316-2.162,8.774-3.486c0,0,0.135,1.113-1.133,2.572c0,0,2.053-1.604,2.308-3.252
	c0,0,4.37,5.824-2.184,8.9c-2.911,1.366-4.679,0.725-5.573,1.677c-1.076,1.145-2.22,3.895-0.895,7.248
	c1.693,4.291-0.809,5.221-0.809,5.221S35.305,64.781,45.191,58.963z"/>
<path fill="#EAC3B2" d="M46.369,67.178c0,0-1.551-1.908-2.771-0.641c-1.219,1.268,0.389,5.682,3.168,4.011"/>
<path opacity="0.66" fill="#EAC3B2" d="M46.369,67.178c0,0-1.551-1.908-2.771-0.641c-1.219,1.268,0.389,5.682,3.168,4.011"/>
<g opacity="0.29">
	<path fill="#513216" d="M45.458,59.761c1.581-1.271,3.56-2.105,5.174-2.793c-1.683,0.445-3.721,0.982-5.441,1.996
		c-9.887,5.817,0.488,18.879,0.488,18.879s0.826-0.312,1.208-1.393C43.885,72.891,38.764,65.137,45.458,59.761z"/>
</g>
<path fill="#8C99E0" d="M167.794,108.111c5.189-8.067,15.938-10.399,24.007-5.209c8.065,5.19,4.751,12.305-0.44,20.372
	c-5.19,8.066-10.289,14.033-18.357,8.842C164.935,126.926,162.604,116.179,167.794,108.111z"/>
</svg>
