<?xml version="1.0" encoding="utf-8"?>
<!-- Generator: Adobe Illustrator 16.0.0, SVG Export Plug-In . SVG Version: 6.00 Build 0)  -->
<!DOCTYPE svg PUBLIC "-//W3C//DTD SVG 1.1//EN" "http://www.w3.org/Graphics/SVG/1.1/DTD/svg11.dtd">
<svg version="1.1" xmlns="http://www.w3.org/2000/svg" xmlns:xlink="http://www.w3.org/1999/xlink" x="0px" y="0px" width="200px"
	 height="161px" viewBox="0 0 200 161" enable-background="new 0 0 200 161" xml:space="preserve">
<g id="background">
	<circle fill="#8C99E0" cx="101.711" cy="81.385" r="77.572"/>
</g>
<g id="object">
	<g>
		<g>
			<path fill="#F7F7F7" d="M136.071,148.833H63.347V44.192h80.712v97.824C144.06,145.781,140.483,148.833,136.071,148.833z"/>
			<rect x="63.327" y="44.192" fill="#587BC9" width="80.578" height="4.858"/>
		</g>
		<g>
			<g>
				<path fill="#9EA6AD" d="M123.707,101.741c1.086,0,1.086-1.229,0-1.229c-13.482,0-26.964,0-40.446,0
					c-1.087,0-1.087,1.229,0,1.229l0,0H123.707z"/>
			</g>
		</g>
		<g>
			<path fill="#D7E8F4" d="M101.861,52.421c-6.481,0-12.281,2.871-16.213,7.404l16.213,14.049l16.213-14.049
				C114.143,55.292,108.342,52.421,101.861,52.421z"/>
			<path fill="#305399" d="M124.643,70.73l-21.236,3.054v21.453c11.857,0,21.454-9.594,21.454-21.453
				C124.86,72.747,124.783,71.729,124.643,70.73z"/>
			<path fill="#7DB5DB" d="M85.671,59.897c-7.644,9.066-6.491,22.588,2.575,30.231c0.794,0.667,1.623,1.264,2.476,1.799
				l11.352-18.202L85.671,59.897z"/>
			<path fill="#587BC9" d="M102.045,95.207c-4.021,0.003-8.054-1.121-11.598-3.405l11.6-18.049L102.045,95.207z"/>
			<path fill="#3B455A" d="M125.732,69.55c-0.595-4.176-2.389-7.959-5.021-10.996l-16.213,14.048L125.732,69.55z"/>
		</g>
		<g>
			<g>
				<rect x="72.836" y="125.148" fill="#587BC9" width="7.881" height="18.982"/>
				<rect x="72.836" y="117.798" fill="#D7E8F4" width="7.881" height="8.919"/>
			</g>
			<g>
				<rect x="124.721" y="126.004" fill="#587BC9" width="7.882" height="18.983"/>
				<rect x="124.721" y="109.983" fill="#D7E8F4" width="7.934" height="17.593"/>
			</g>
			<g>
				<rect x="107.427" y="124.505" fill="#587BC9" width="7.88" height="20.055"/>
				<rect x="107.427" y="122.722" fill="#D7E8F4" width="7.88" height="13.31"/>
			</g>
			<g>
				<rect x="90.131" y="117.52" fill="#587BC9" width="7.881" height="26.933"/>
				<rect x="90.131" y="107.093" fill="#D7E8F4" width="7.881" height="21.541"/>
			</g>
		</g>
		<g>
			<g>
				<path fill="#FFFFFF" d="M66.406,47.995c-0.57,0-1.036-0.463-1.036-1.035s0.465-1.036,1.036-1.036
					c0.572,0,1.037,0.464,1.037,1.036S66.978,47.995,66.406,47.995z M66.406,46.097c-0.475,0-0.863,0.388-0.863,0.863
					c0,0.475,0.388,0.864,0.863,0.864c0.477,0,0.864-0.39,0.864-0.864C67.27,46.484,66.882,46.097,66.406,46.097z"/>
			</g>
			<g>
				<path fill="#FFFFFF" d="M69.602,47.995c-0.571,0-1.036-0.463-1.036-1.035s0.464-1.036,1.036-1.036s1.037,0.464,1.037,1.036
					S70.173,47.995,69.602,47.995z M69.602,46.097c-0.477,0-0.864,0.388-0.864,0.863c0,0.475,0.387,0.864,0.864,0.864
					c0.476,0,0.863-0.39,0.863-0.864C70.465,46.484,70.078,46.097,69.602,46.097z"/>
			</g>
			<g>
				<path fill="#FFFFFF" d="M72.798,47.995c-0.571,0-1.037-0.463-1.037-1.035s0.465-1.036,1.037-1.036
					c0.572,0,1.037,0.464,1.037,1.036S73.37,47.995,72.798,47.995z M72.798,46.097c-0.476,0-0.863,0.388-0.863,0.863
					c0,0.475,0.387,0.864,0.863,0.864c0.476,0,0.863-0.39,0.863-0.864C73.661,46.484,73.273,46.097,72.798,46.097z"/>
			</g>
		</g>
	</g>
	<path opacity="0.07" fill="#2E4661" d="M65.52,151.88H14.071V72.422h56.227v74.681C70.298,149.74,68.159,151.88,65.52,151.88z"/>
	<g>
		<path fill="#4BB5FF" d="M61.306,149.656H7.684V66.411h60.583v76.285C68.267,146.541,65.151,149.656,61.306,149.656z"/>
	</g>
	<rect x="14.113" y="73.057" fill="#FFFFFF" width="49.045" height="31.014"/>
	<path fill="#D7E8F4" d="M45.181,83.813c0.204,0.41,0.556,0.763,1.222,1.011c1.242,0.465,2.911,0.13,3.628-0.911
		c1.196-1.737,0.859-4.225,2.147-6.03c0.522-0.734,1.32-1.328,2.26-1.596c0.939-0.269,2.017-0.189,2.853,0.27
		c1.362,0.751,1.833,2.302,1.847,3.707c0.026,2.701-0.353,5.496-0.839,8.161c-0.236,1.289-0.598,2.614-1.534,3.635
		c-1.268,1.382-3.355,1.958-5.353,2.266c-5.053,0.779-10.234,0.304-15.335-0.175c-4.104-0.385-8.207-0.77-12.31-1.155
		c-1.157-0.107-4.563,0.068-5.255-0.734c-0.676-0.783-0.145-3.435,0.25-4.253c0.881-1.822,3.29-2.852,5.55-2.735
		c5.1,0.261,3.083-5.065,4.715-7.595c0.868-1.342,2.777-2.307,4.421-1.748c1.569,0.534,2.224,2.108,2.997,3.415
		c0.401,0.679,0.971,1.383,1.829,1.527c1.459,0.251,2.676-1.23,4.16-1.175c0.879,0.034,1.627,0.627,2.007,1.32
		C44.959,81.961,44.78,83.002,45.181,83.813z"/>
	<path fill="#FF5555" d="M59.952,102.389c-0.002,0,0.007-2.232,0.009-2.354c0.012-3.332,0.011-6.663,0.016-9.994
		c0.003-3.183,0.266-6.365,0.215-9.539c-0.023-1.469-0.658-2.236-2.205-1.844c-1.523,0.389-2.916,1.292-3.874,2.54
		c-0.65,0.844-1.189,1.902-2.199,2.241c-1.805,0.61-3.281-1.423-4.901-2.422c-1.745-1.077-4.174-0.896-5.739,0.428
		c-1.892,1.6-2.326,4.366-3.927,6.256c-1.762,2.081-4.963,2.786-7.437,1.638c-1.016-0.473-1.89-1.209-2.891-1.711
		c-3.972-1.989-9.494,0.876-10.153,5.269v9.091C16.866,101.986,60.032,102.469,59.952,102.389z"/>
	<rect x="14.915" y="108.8" fill="#305399" width="3.686" height="3.686"/>
	<rect x="14.915" y="114.248" fill="#587BC9" width="3.686" height="3.688"/>
	<rect x="21.646" y="109.922" fill="#F7F7F7" width="10.739" height="1.12"/>
	<rect x="21.487" y="115.851" fill="#F7F7F7" width="10.738" height="1.122"/>
	<rect x="15.396" y="124.223" fill="#F7F7F7" width="46.801" height="1.209"/>
	<rect x="15.396" y="127.743" fill="#FFC107" width="20.836" height="16.608"/>
	<rect x="39.437" y="127.901" fill="#587BC9" width="22.76" height="7.233"/>
	<rect x="39.196" y="137.038" fill="#305399" width="22.76" height="7.233"/>
	<path fill="#FF5555" d="M42.031,32.008H3.74c-0.147,0-0.267,0.131-0.267,0.291v20.284c0,5.002,3.721,9.056,8.31,9.056H27.66
		l6.491,9.107c0.174,0.244,0.557,0.124,0.562-0.176l0.133-8.932h7.185c0.147,0,0.267-0.131,0.267-0.291V32.299
		C42.297,32.139,42.178,32.008,42.031,32.008z"/>
	<g>
		<rect x="8.488" y="36.855" fill="#D7E8F4" width="23.851" height="0.994"/>
		<rect x="8.487" y="44.433" fill="#D7E8F4" width="28.448" height="0.993"/>
		<rect x="8.487" y="52.011" fill="#D7E8F4" width="28.448" height="0.993"/>
	</g>
	<g>
		<g>
			<path fill="#587BC9" d="M66.943,41.519H38.542V21.387h26.595l5.695,6.016v9.958C70.833,39.657,69.092,41.519,66.943,41.519z"/>
			<polygon fill="#EAC5B0" points="70.811,27.45 65.092,27.594 65.092,21.387 			"/>
		</g>
		<g>
			<rect x="46.331" y="26.611" fill="#7DB5DB" width="18.119" height="0.863"/>
			<rect x="43.461" y="30.781" fill="#7DB5DB" width="20.989" height="0.863"/>
			<rect x="43.461" y="34.951" fill="#7DB5DB" width="20.989" height="0.863"/>
		</g>
	</g>
	<g>
		<g>
			<path fill="#EAC5B0" d="M124.147,81.813c-0.106,0-0.2-0.079-0.216-0.188c-0.041-0.295-0.066-0.595-0.078-0.893
				c-0.006-0.12,0.09-0.221,0.208-0.227c0.124-0.003,0.224,0.09,0.228,0.211c0.013,0.282,0.037,0.567,0.075,0.849
				c0.017,0.12-0.066,0.229-0.186,0.245C124.17,81.813,124.158,81.813,124.147,81.813z"/>
		</g>
		<g>
			<path fill="#EAC5B0" d="M124.17,79.206c-0.012,0-0.022-0.001-0.033-0.001c-0.119-0.019-0.2-0.129-0.184-0.249
				c0.086-0.575,0.229-1.154,0.422-1.727c0.037-0.114,0.162-0.176,0.275-0.137c0.115,0.038,0.178,0.163,0.138,0.277
				c-0.184,0.547-0.319,1.103-0.401,1.651C124.369,79.129,124.275,79.206,124.17,79.206z M125.262,75.918
				c-0.033,0-0.066-0.009-0.1-0.024c-0.106-0.056-0.147-0.188-0.094-0.295c0.263-0.51,0.569-1.02,0.914-1.515
				c0.068-0.1,0.205-0.124,0.303-0.056c0.1,0.068,0.125,0.205,0.057,0.304c-0.334,0.48-0.631,0.975-0.883,1.467
				C125.418,75.874,125.34,75.918,125.262,75.918z M127.232,73.055c-0.052,0-0.104-0.019-0.144-0.054
				c-0.09-0.079-0.101-0.218-0.022-0.31c0.379-0.433,0.791-0.858,1.225-1.269c0.088-0.083,0.226-0.079,0.309,0.009
				c0.082,0.089,0.078,0.227-0.009,0.31c-0.424,0.398-0.825,0.815-1.192,1.239C127.354,73.029,127.293,73.055,127.232,73.055z
				 M129.762,70.666c-0.065,0-0.128-0.029-0.172-0.085c-0.075-0.094-0.059-0.23,0.037-0.305c0.457-0.361,0.938-0.706,1.43-1.028
				c0.102-0.064,0.238-0.038,0.304,0.063c0.064,0.103,0.038,0.237-0.065,0.303c-0.479,0.315-0.951,0.653-1.398,1.006
				C129.857,70.65,129.811,70.666,129.762,70.666z M132.672,68.756c-0.076,0-0.152-0.041-0.191-0.113
				c-0.058-0.107-0.02-0.239,0.086-0.298c0.508-0.278,1.034-0.548,1.564-0.798c0.108-0.052,0.238-0.006,0.288,0.104
				c0.054,0.108,0.007,0.239-0.103,0.291c-0.521,0.247-1.037,0.512-1.539,0.787C132.744,68.747,132.708,68.756,132.672,68.756z
				 M135.817,67.263c-0.087,0-0.168-0.051-0.204-0.138c-0.045-0.111,0.01-0.239,0.121-0.284c0.535-0.216,1.088-0.423,1.644-0.614
				c0.112-0.04,0.237,0.021,0.276,0.136c0.04,0.114-0.021,0.238-0.135,0.277c-0.547,0.188-1.092,0.393-1.621,0.605
				C135.871,67.258,135.846,67.263,135.817,67.263z M139.107,66.128c-0.094,0-0.182-0.062-0.207-0.157
				c-0.035-0.117,0.034-0.237,0.146-0.271c0.555-0.159,1.125-0.308,1.697-0.442c0.117-0.028,0.234,0.045,0.262,0.161
				c0.029,0.117-0.045,0.235-0.161,0.265c-0.567,0.133-1.128,0.279-1.675,0.438C139.149,66.126,139.129,66.128,139.107,66.128z
				 M166.967,65.509l-0.178-0.001c-0.121,0-0.218-0.098-0.216-0.221c0.001-0.12,0.093-0.218,0.22-0.216h0.174
				c0.539,0,1.062-0.02,1.549-0.057c0.118-0.009,0.225,0.082,0.232,0.202c0.012,0.12-0.08,0.225-0.201,0.234
				C168.051,65.49,167.52,65.509,166.967,65.509z M165.051,65.441c-0.004,0-0.008,0-0.014,0c-0.52-0.032-1.09-0.082-1.744-0.146
				c-0.118-0.013-0.206-0.119-0.195-0.239c0.012-0.121,0.117-0.209,0.238-0.196c0.648,0.064,1.213,0.111,1.729,0.145
				c0.121,0.007,0.213,0.111,0.204,0.231C165.262,65.354,165.165,65.441,165.051,65.441z M142.496,65.325
				c-0.103,0-0.194-0.071-0.213-0.176c-0.023-0.119,0.055-0.234,0.174-0.257c0.563-0.105,1.143-0.203,1.727-0.288
				c0.118-0.019,0.229,0.064,0.248,0.184c0.017,0.12-0.067,0.231-0.184,0.247c-0.578,0.085-1.152,0.182-1.711,0.287
				C142.525,65.325,142.511,65.325,142.496,65.325z M170.256,65.223c-0.102,0-0.191-0.072-0.213-0.177
				c-0.023-0.118,0.055-0.232,0.174-0.255c0.576-0.112,1.129-0.26,1.65-0.439c0.115-0.04,0.238,0.02,0.279,0.135
				c0.039,0.113-0.021,0.237-0.135,0.278c-0.541,0.187-1.115,0.34-1.712,0.454C170.285,65.222,170.271,65.223,170.256,65.223z
				 M161.584,65.112c-0.009,0-0.018,0-0.024-0.001l-0.519-0.057c-0.402-0.044-0.806-0.085-1.211-0.125
				c-0.119-0.011-0.209-0.118-0.196-0.238c0.012-0.121,0.118-0.207,0.238-0.196c0.405,0.04,0.812,0.082,1.216,0.125l0.52,0.057
				c0.119,0.013,0.206,0.121,0.192,0.241C161.789,65.03,161.694,65.112,161.584,65.112z M145.941,64.818
				c-0.109,0-0.205-0.084-0.217-0.194c-0.014-0.121,0.073-0.228,0.194-0.241c0.566-0.062,1.153-0.115,1.742-0.157
				c0.118-0.009,0.226,0.082,0.231,0.203c0.011,0.119-0.079,0.224-0.201,0.231c-0.582,0.044-1.164,0.096-1.727,0.157
				C145.957,64.817,145.949,64.818,145.941,64.818z M158.115,64.777c-0.006,0-0.012,0-0.018-0.002
				c-0.585-0.046-1.166-0.086-1.732-0.121c-0.121-0.007-0.213-0.11-0.205-0.23c0.008-0.121,0.11-0.212,0.23-0.206
				c0.568,0.035,1.156,0.076,1.742,0.123c0.121,0.011,0.21,0.115,0.2,0.236C158.324,64.69,158.229,64.777,158.115,64.777z
				 M154.641,64.568c-0.005,0-0.008,0-0.011,0c-0.586-0.022-1.169-0.038-1.735-0.047c-0.119-0.002-0.217-0.102-0.217-0.223
				c0.002-0.121,0.102-0.22,0.223-0.215c0.568,0.009,1.157,0.024,1.746,0.047c0.121,0.006,0.215,0.107,0.211,0.228
				C154.854,64.477,154.757,64.568,154.641,64.568z M149.414,64.563c-0.116,0-0.215-0.092-0.217-0.209
				c-0.006-0.121,0.088-0.224,0.208-0.228c0.571-0.024,1.157-0.038,1.749-0.046c0.118,0.002,0.219,0.095,0.22,0.215
				c0.002,0.121-0.095,0.221-0.216,0.223c-0.585,0.006-1.168,0.021-1.735,0.045C149.421,64.563,149.416,64.563,149.414,64.563z
				 M173.533,64.079c-0.076,0-0.152-0.042-0.193-0.115c-0.057-0.106-0.016-0.238,0.092-0.296c0.489-0.266,0.971-0.575,1.432-0.924
				c0.096-0.073,0.232-0.055,0.307,0.043c0.072,0.095,0.055,0.232-0.043,0.304c-0.479,0.364-0.978,0.687-1.49,0.961
				C173.603,64.07,173.568,64.079,173.533,64.079z M176.307,61.991c-0.057,0-0.113-0.021-0.154-0.064
				c-0.086-0.084-0.086-0.224,0-0.309c0.393-0.391,0.775-0.822,1.139-1.281c0.076-0.095,0.213-0.11,0.308-0.038
				c0.094,0.076,0.111,0.215,0.035,0.309c-0.374,0.473-0.769,0.916-1.175,1.32C176.419,61.971,176.362,61.991,176.307,61.991z
				 M178.473,59.273c-0.04,0-0.081-0.012-0.117-0.035c-0.102-0.064-0.131-0.2-0.066-0.303c0.303-0.467,0.594-0.967,0.871-1.486
				c0.055-0.107,0.188-0.146,0.295-0.092c0.105,0.058,0.146,0.189,0.089,0.297c-0.279,0.529-0.578,1.039-0.888,1.52
				C178.615,59.237,178.545,59.273,178.473,59.273z"/>
		</g>
		<g>
			<path fill="#EAC5B0" d="M180.114,56.193c-0.027,0-0.059-0.007-0.087-0.02c-0.11-0.048-0.16-0.178-0.113-0.288
				c0.117-0.26,0.23-0.529,0.338-0.799c0.044-0.112,0.174-0.166,0.285-0.121s0.167,0.174,0.121,0.284
				c-0.111,0.274-0.226,0.548-0.343,0.813C180.279,56.144,180.199,56.193,180.114,56.193z"/>
		</g>
	</g>
	<g>
		<path fill="#FF5555" d="M190.914,38.776L190,59.499l-6.842-7.182c0,0,7.785-14.123,7.839-13.889l-0.3-0.251
			c0.23-0.064-8.326,13.603-8.326,13.603l-9.604-2.489l17.668-10.87L190.914,38.776z"/>
	</g>
	<rect x="138.432" y="105.884" opacity="0.07" fill="#2E4661" width="40.38" height="29.192"/>
	<rect x="139.809" y="104.19" fill="#FFC107" width="40.657" height="29.279"/>
	<rect x="139.809" y="104.19" fill="#587BC9" width="40.602" height="2.331"/>
	<path opacity="0.03" fill="#272525" d="M180.381,111.553v-0.091h-4.991v-4.896h-0.09v4.896h-5.983v-4.896h-0.09v4.896h-5.982
		v-4.896h-0.09v4.896h-5.982v-4.896h-0.092v4.896h-5.982v-4.896h-0.09v4.896h-5.982v-4.896h-0.09v4.896h-4.982v0.091h4.982v5.534
		h-4.982v0.09h4.982v5.533h-4.982v0.09h4.982v5.532h-4.982v0.092h4.982v5.148h0.09v-5.148h5.982v5.148h0.09v-5.148h5.982v5.148
		h0.092v-5.148h5.982v5.148h0.09v-5.148h5.982v5.148h0.09v-5.148h5.983v5.148h0.09v-5.148h4.991v-0.092h-4.991V122.8h4.991v-0.09
		h-4.991v-5.533h4.991v-0.09h-4.991v-5.534H180.381z M169.227,111.553v5.534h-5.982v-5.534H169.227z M157.172,117.177h5.982v5.533
		h-5.982V117.177z M157.08,122.71h-5.982v-5.533h5.982V122.71z M163.244,117.177h5.982v5.533h-5.982V117.177z M163.154,111.553
		v5.534h-5.982v-5.534H163.154z M157.08,111.553v5.534h-5.982v-5.534H157.08z M145.025,111.553h5.982v5.534h-5.982V111.553z
		 M145.025,117.177h5.982v5.533h-5.982V117.177z M145.025,128.332V122.8h5.982v5.532H145.025z M151.098,128.332V122.8h5.982v5.532
		H151.098z M157.172,128.332V122.8h5.982v5.532H157.172z M163.244,128.332V122.8h5.982v5.532H163.244z M175.3,128.332h-5.983V122.8
		h5.983V128.332z M175.3,122.71h-5.983v-5.533h5.983V122.71z M175.3,117.087h-5.983v-5.534h5.983V117.087z"/>
	<path fill="#F7F7F7" d="M176.089,110.274c-0.684,0-1.237,0.557-1.237,1.24c0,0.347,0.139,0.658,0.369,0.883
		c-1.438,1.239-2.877,2.479-4.316,3.716c-0.109,0.096-0.219,0.189-0.326,0.284c-0.213-0.172-0.484-0.274-0.778-0.274
		c-0.686,0-1.241,0.555-1.241,1.24c0,0.436,0.227,0.819,0.566,1.038c-0.316,0.762-0.629,1.52-0.946,2.276
		c-0.134,0.323-0.269,0.647-0.401,0.971c-0.09-0.021-0.186-0.031-0.281-0.031c-0.459,0-0.857,0.247-1.072,0.616
		c-1.389-0.879-2.779-1.757-4.17-2.635c-1.027-0.651-2.059-1.303-3.088-1.952c0.057-0.144,0.089-0.298,0.089-0.461
		c0-0.685-0.554-1.241-1.239-1.241c-0.685,0-1.24,0.557-1.24,1.241c0,0.086,0.008,0.171,0.025,0.254
		c-1.947,0.795-3.897,1.591-5.846,2.386c-0.191,0.077-0.382,0.156-0.574,0.233c-0.188-0.439-0.627-0.747-1.137-0.747
		c-0.686,0-1.24,0.557-1.24,1.241c0,0.355,0.15,0.675,0.39,0.902c-0.29,0.328-0.58,0.656-0.867,0.985
		c-1.381,1.567-2.765,3.135-4.146,4.703c-0.197-0.132-0.436-0.211-0.693-0.211c-0.684,0-1.242,0.555-1.242,1.239
		c0,0.687,0.559,1.241,1.242,1.241s1.24-0.555,1.24-1.241c0-0.264-0.084-0.509-0.225-0.711c1.18-1.338,2.359-2.677,3.538-4.017
		c0.512-0.581,1.025-1.163,1.536-1.743c0.145,0.06,0.301,0.092,0.467,0.092c0.684,0,1.239-0.555,1.239-1.24
		c0-0.017,0-0.033-0.002-0.05c0.028-0.012,0.056-0.022,0.083-0.033c2.137-0.872,4.273-1.744,6.408-2.615
		c0.219,0.343,0.605,0.572,1.043,0.572c0.359,0,0.684-0.154,0.908-0.398c0.936,0.591,1.869,1.181,2.803,1.771
		c1.515,0.957,3.03,1.915,4.543,2.873c-0.008,0.061-0.016,0.121-0.016,0.184c0,0.687,0.557,1.241,1.242,1.241
		c0.685,0,1.24-0.555,1.24-1.241c0-0.428-0.217-0.807-0.547-1.029c0.449-1.082,0.9-2.167,1.351-3.25
		c0.083,0.018,0.169,0.027,0.26,0.027c0.687,0,1.239-0.555,1.239-1.24c0-0.229-0.062-0.441-0.17-0.624
		c0.256-0.22,0.51-0.438,0.765-0.658c1.09-0.938,2.18-1.877,3.269-2.815c0.236-0.203,0.471-0.403,0.705-0.607
		c0.15,0.062,0.312,0.098,0.481,0.098c0.688,0,1.241-0.556,1.241-1.241C177.33,110.831,176.777,110.274,176.089,110.274z"/>
	<g>
		<g>
			<polygon fill="#F7F7F7" points="183.898,91.275 179.037,99.067 151.432,81.676 156.295,73.885 			"/>
			<path fill="#305399" d="M193.41,102.564l-0.055,0.09c-1.535,2.458-4.273,3.518-6.118,2.367l-21.188-13.006l5.568-9.366
				l21.234,13.382C194.694,97.182,194.945,100.105,193.41,102.564z"/>
		</g>
		<polygon opacity="0.2" fill="#BBBCBF" points="153.362,82.839 154.699,83.812 166.795,80.673 156.717,74.242 		"/>
	</g>
	<path fill="#4BB5FF" d="M147.742,40.927c-12.954-8.088-30.012-4.142-38.1,8.813c-8.087,12.953-4.142,30.011,8.813,38.099
		c12.952,8.088,30.012,4.142,38.098-8.812C164.643,66.071,160.697,49.013,147.742,40.927z M153.277,76.98
		c-6.959,11.144-21.631,14.538-32.775,7.58c-11.146-6.957-14.539-21.632-7.582-32.775c6.958-11.144,21.631-14.538,32.776-7.581
		C156.84,51.161,160.232,65.835,153.277,76.98z"/>
	<circle opacity="0.5" fill="#D7E8F4" cx="133.099" cy="64.383" r="23.788"/>
	<g>
		<g opacity="0.22">
			<path fill="#FFFFFF" d="M115.956,63.424c-0.116-7.586,4.813-14.448,12.13-16.553c7.299-2.101,15.254,1.121,19.093,7.671
				c1.083,1.848,4.027,0.303,2.942-1.546c-4.42-7.54-13.185-11.445-21.729-9.627c-8.423,1.792-14.638,9.031-15.648,17.491
				c-0.098,0.817-0.123,1.644-0.11,2.467C112.667,65.462,115.99,65.574,115.956,63.424L115.956,63.424z"/>
		</g>
		<circle opacity="0.31" fill="#FFFFFF" cx="150.987" cy="59.649" r="2.189"/>
	</g>
	<path fill="#7DB5DB" d="M166.329,91.704l5.298-8.91c0.182-0.306,0.104-0.7-0.182-0.911l-0.096-0.069
		c-0.33-0.246-0.805-0.147-1.012,0.209l-5.218,8.971c-0.196,0.338-0.077,0.769,0.263,0.955l0.014,0.009
		C165.723,92.139,166.137,92.027,166.329,91.704z"/>
	<g>
		<path fill="#F7F7F7" d="M156.303,64.553c-0.02,5.718-2.097,11.26-5.873,15.559c-3.727,4.243-8.915,6.984-14.495,7.774
			c-5.708,0.81-11.597-0.638-16.366-3.836c-4.643-3.113-8.031-7.918-9.518-13.294c-1.541-5.574-0.903-11.655,1.693-16.813
			c2.502-4.97,6.805-8.969,11.934-11.116c5.357-2.244,11.436-2.379,16.91-0.483c5.273,1.827,9.752,5.622,12.558,10.424
			C155.23,56.335,156.289,60.43,156.303,64.553c0.004,0.816,1.27,0.816,1.267,0c-0.021-5.728-2.003-11.243-5.6-15.696
			c-3.513-4.345-8.545-7.383-13.997-8.561c-5.654-1.22-11.633-0.369-16.754,2.299c-4.924,2.563-8.893,6.856-11.141,11.922
			c-2.349,5.293-2.736,11.337-1.156,16.903c1.528,5.378,4.943,10.082,9.463,13.343c4.645,3.352,10.451,4.924,16.15,4.531
			c5.652-0.39,11.029-2.779,15.174-6.626c5.006-4.646,7.835-11.305,7.86-18.115C157.572,63.736,156.307,63.736,156.303,64.553z"/>
	</g>
</g>
</svg>
