<?xml version="1.0" encoding="utf-8"?>
<!-- Generator: Adobe Illustrator 16.0.0, SVG Export Plug-In . SVG Version: 6.00 Build 0)  -->
<!DOCTYPE svg PUBLIC "-//W3C//DTD SVG 1.1//EN" "http://www.w3.org/Graphics/SVG/1.1/DTD/svg11.dtd">
<svg version="1.1" id="Layer_1" xmlns="http://www.w3.org/2000/svg" xmlns:xlink="http://www.w3.org/1999/xlink" x="0px" y="0px"
	 width="200px" height="188.665px" viewBox="0 0 200 188.665" enable-background="new 0 0 200 188.665" xml:space="preserve">
<path fill="#DFE2E6" d="M195.173,185.478H4.827c-1.332,0-2.411-1.079-2.411-2.411v-0.004c0-1.331,1.08-2.411,2.411-2.411h190.346
	c1.332,0,2.411,1.08,2.411,2.411v0.004C197.584,184.398,196.505,185.478,195.173,185.478z"/>
<path fill="#5DB6DE" d="M100.574,149.615c1.245-1.245,5.294,0.562,7.04,0.871c3.836,0.678,7.052-3.157,7.052-7.052v-0.003
	c0-3.895-3.216-7.73-7.052-7.052c-1.746,0.309-5.795,2.115-7.04,0.871c-4.45-4.451,0-26.046,0-26.046s-21.596-4.451-26.046,0
	c-1.247,1.247,0.686,5.301,0.871,7.054c0.411,3.873-3.157,7.052-7.052,7.052h-0.003c-3.895,0-7.462-3.179-7.051-7.052
	c0.186-1.753,2.118-5.807,0.871-7.054c-4.451-4.451-26.046,0-26.046,0v59.23c0,2.886,2.34,5.226,5.226,5.226h59.23
	C100.574,175.661,96.124,154.065,100.574,149.615z"/>
<path fill="#EAC1A4" d="M96.538,28.118c0,0,5.338,4.814,8.169,3.965c3.004-0.901,5.991-9.559,8.417-9.833
	c1.694-0.191,3.729,0.52,2.823,2.612c-0.906,2.092-7.996,11.84-10.759,11.666c-2.764-0.175-10.753-6.067-10.753-6.067L96.538,28.118
	z"/>
<path fill="#FF5555" d="M112.937,21.541c-0.967,0.18-2.739,3.445-4.668,6.334c1.554,0.974,2.978,2.356,4.148,3.883
	c2.243-2.544,4.291-5.484,4.634-6.464C117.805,23.142,114.613,21.228,112.937,21.541z"/>
<g>
	<g>
		<rect x="14.545" y="109.282" fill="#27415A" width="24.688" height="1.321"/>
		<rect x="14.545" y="121.585" fill="#27415A" width="24.688" height="1.321"/>
		<rect x="14.545" y="96.762" fill="#27415A" width="24.688" height="1.321"/>
	</g>
	<rect x="14.545" y="133.888" fill="#27415A" width="24.688" height="1.321"/>
	<rect x="14.545" y="146.189" fill="#27415A" width="24.688" height="1.322"/>
	<rect x="14.545" y="158.493" fill="#27415A" width="24.688" height="1.321"/>
	<rect x="14.545" y="170.796" fill="#27415A" width="24.688" height="1.321"/>
	<rect x="13.764" y="85.964" fill="#27415A" width="1.607" height="95.809"/>
	<rect x="38.587" y="85.964" fill="#27415A" width="1.607" height="95.809"/>
</g>
<path fill="#27415A" d="M40.194,94.895v-8.931h-1.607v8.954C39.123,94.909,39.659,94.902,40.194,94.895z"/>
<path fill="#304961" d="M141.231,45.706c0,0,1.832-1.3,2.746-0.783c0.914,0.516,3.144,7.2,2.026,7.794
	c-1.116,0.593-4.64-3.694-4.64-3.694L141.231,45.706z"/>
<path fill="#304961" d="M114.679,50.313c0,0-5.075,1.622-4.655,2.403c0.198,0.367,8.652,0.396,8.8-0.12
	c0.148-0.518-0.811-2.703-0.811-2.703L114.679,50.313z"/>
<path fill="#305399" d="M126.633,44.156c0,0-11.623-3.367-11.623-2.702c0,0.664,3.693,8.89,3.693,8.89l-5.074,0.288
	c0,0-5.438-11.642-4.597-13.022c1.568-2.576,14.177-1.321,14.177-1.321l6.263-1.609L126.633,44.156z"/>
<path fill="#305399" d="M127.034,33.349c0,0-7.55,15.794-5.567,19.037c1.33,2.177,20.243-2.583,20.243-2.583s1.201-4.685-0.36-5.045
	c-3.733-0.862-13.186,3.634-13.186,3.634s5.316-6.758,5.739-8.839c0.656-3.226-1.864-6.929-1.864-6.929L127.034,33.349z"/>
<path fill="#FF5555" d="M127.773,36.107c1.828-0.692,3.397-1.688,4.761-2.943c-0.351-0.678-0.926-1.658-1.396-2.509
	c-1.619-2.927-5.563-8.165-9.698-10.603c-4.136-2.438-10.477-0.756-10.477-0.756l-0.479,1.245
	c-1.072,2.784,0.424,8.713,2.904,10.371c1.213,0.811,2.453,0.674,3.514,1.757c1.673,1.707,2.373,2.619,2.883,3.919
	C122.969,37.369,125.299,37.045,127.773,36.107z"/>
<path fill="#EAC1A4" d="M110.387,23.653c-1.091-1.038-4.606-3.849-4.606-3.849l2.757-3.485c0,0,2.662,2.599,3.52,3.346
	C113.406,20.839,111.934,24.069,110.387,23.653z"/>
<path fill="#EAC1A4" d="M109.908,19.909l-4.512,1.569c-1.571,0.546-3.287-0.284-3.833-1.855l-1.696-6.942
	c-0.204-0.589-0.066-1.332,0.522-1.537l5.144-0.377c0.589-0.205,1.232,0.106,1.438,0.695L109.908,19.909z"/>
<g>
	<path fill="#FFBCA1" d="M101.521,41.524c-0.37-0.826-1.015-1.527-1.286-2.384c-0.331,0.098-0.637,0.189-0.913,0.28
		c-1.841-0.823-3.691-1.206-3.995-0.876c-0.279,0.303,0.441,0.365,1.41,1.11c-0.765,0.227-2.77,0.979-3.22,1.259
		c-0.366,0.227-0.794,0.494-0.688,0.747c0.098,0.234,1.9-0.685,2.312-0.626c-0.598,0.382-2.661,0.968-2.498,1.393
		c0.15,0.391,2.696-0.75,2.919-0.697c-0.656,0.382-2.631,0.891-2.391,1.253c0.24,0.36,2.096-0.372,2.654-0.46
		c-0.157,0.262-1.625,0.51-1.733,0.891c-0.026,0.092,0.215,0.183,0.548,0.15c0.699-0.068,1.137-0.195,2.233-0.561
		c0.752-0.25,2.742-1.33,2.742-1.33S100.545,41.551,101.521,41.524z"/>
</g>
<path fill="#EAC1A4" d="M99.128,39.393c0,0,8.756-2.414,10.766-4.582c2.01-2.169,3.975-10.395,5.297-11.471
	c1.323-1.077,3.803-0.975,4.17,1.275c0.368,2.25-4.838,13.53-7.348,14.699s-12.758,2.491-12.758,2.491L99.128,39.393z"/>
<path fill="#304961" d="M103.923,7.992c-1.136-0.158-2.338-0.052-3.344,0.499c-1.005,0.551-1.776,1.595-1.814,2.74
	c-0.011,0.336,0.043,0.684,0.215,0.973c0.445,0.745,1.498,0.854,2.339,0.641s1.627-0.691,2.494-0.717
	c1.41-0.042,1.708,0.751,2.154,1.52c0.358,0.618,1.165,1.339,1.785,0.645c0.42,1.171,0.602,1.752,1.021,2.923
	c0.281,0.782,0.585,1.599,1.209,2.146c1.39,1.219,3.573,0.554,5.345,1.085c0.594,0.178,1.139,0.493,1.729,0.687
	c0.742,0.244,1.531,0.29,2.312,0.333c0.592,0.033,1.229,0.055,1.725-0.271c0.479-0.314,0.725-0.926,0.647-1.492
	c-0.078-0.567-0.455-1.072-0.952-1.355c-0.925-0.526-2.085-0.616-1.986-1.978c0.038-0.54,0.129-0.727,0.257-1.253
	c0.225-0.929,0.229-2.098-0.377-2.886c-1.364-1.777-4.082-1.074-5.52-2.713c-0.337-0.385-0.6-0.83-0.936-1.215
	c-1.15-1.321-3.479-1.98-5.027-0.959C106.055,8.098,105.268,8.18,103.923,7.992z"/>
<g>
	<path fill="#EAC1A4" d="M97.226,28.49c-0.158-0.825-0.48-0.802-1.165-0.905c-0.985-0.148-2.104,0.105-2.953,0.62
		c-0.379,0.229-0.97,0.63-0.939,1.114c0.036,0.572,0.807,1.001,1.255,1.202c0.997,0.445,2.603,1.071,3.322,0.007
		C97.088,30.021,97.34,29.094,97.226,28.49z"/>
</g>
<path fill="#FF5555" d="M116.43,32.356c0.148,0.098,0.298,0.19,0.446,0.285c1.631-3.328,2.897-6.847,2.699-8.062
	c-0.256-1.565-1.452-2.123-2.486-2.123c-0.736,0-1.479,0.26-2.035,0.713c-0.663,0.54-1.411,2.573-2.276,4.926
	c-0.253,0.688-0.515,1.399-0.783,2.095C113.609,30.627,115.025,31.441,116.43,32.356z"/>
<circle fill="#EAC1A4" cx="108.58" cy="15.041" r="1.116"/>
<polygon fill="#4BB5FF" points="30.372,43.855 35.1,51.111 38.177,56.989 37.051,59.267 32.958,58.122 "/>
<polygon fill="#3B455A" points="24.708,69.482 24.708,73.156 29.607,89.08 28.382,105.616 31.444,106.228 36.343,86.017 
	36.156,80.071 33.894,67.944 "/>
<polygon fill="#3C3C3C" points="30.937,105.912 33.274,108.388 32.599,109.642 27.776,107.326 28.664,105.493 "/>
<path fill="#4BB5FF" d="M30.388,43.836l-7.289-2.892c0,0-2.591,6.434-5.536,16.742c-2.945,10.306,1.368,23.426,1.368,23.426
	s16.698-3.969,20.032-4.623l-4.183-18.84L30.388,43.836z"/>
<polygon fill="#3B455A" points="27.049,72.738 26.347,92.229 19.594,107.255 16.729,107.167 18.979,91.36 15.07,71.624 "/>
<g>
	<path fill="#EAC1A4" d="M30.629,33.724c-1.985,0.146-3.841-1.483-5.793-1.08c-1.271,0.264-2.273,1.39-2.66,2.661
		c-0.181,0.591-0.246,1.235-0.069,1.824c0.115,0.382,0.327,0.727,0.576,1.033c0.333,0.407,0.74,0.748,1.193,1.009
		c-0.249,0.399-0.534,0.778-0.85,1.128c0.915,0.35,1.831,0.7,2.746,1.051c0.202-0.526,0.404-1.052,0.607-1.578
		c0.274-0.015,0.549-0.055,0.818-0.124c1.625-0.421,2.973-1.845,3.334-3.523C30.702,35.339,30.669,34.524,30.629,33.724z"/>
	<polygon fill="#3B455A" points="30.127,34.324 23.991,33.593 22.801,38.281 21.067,36.905 21.961,29.235 30.622,29.049 
		34.371,31.25 34.212,33.453 30.859,35.71 	"/>
</g>
<path fill="#FFFFFF" d="M27.746,42.075l-7.289-2.892c0,0-2.59,6.435-5.535,16.742c-2.945,10.308,1.367,23.427,1.367,23.427
	s14.938-7.381,18.272-8.036L32.14,55.887L27.746,42.075z"/>
<path fill="#4BB5FF" d="M14.812,56.145c2.944-10.307,5.495-16.752,5.495-16.752l7.328,2.903l0.012,0.037
	c-0.161,0.42-0.33,0.84-0.475,1.267c-0.578,1.685-1.005,3.42-1.268,5.181c-0.461,3.099-0.508,6.282-0.41,9.407
	c0.096,2.999,0.404,5.991,0.938,8.943c0.704,3.904,1.827,7.708,3.274,11.39c-6.78,1.377-14.758,3.006-14.758,3.006
	S11.867,66.452,14.812,56.145z"/>
<polygon fill="#7DB5DB" points="34.974,54.171 49.355,53.021 49.825,56.185 36.815,59.267 "/>
<polygon fill="#EAC1A4" points="49.431,53.531 50.595,52.33 51.771,52.155 52.44,53.918 50.878,56.081 49.825,56.185 "/>
<polygon fill="#4BB5FF" points="26.331,44.508 25.115,54.341 34.938,61.944 33.601,65.123 19.771,59.134 18.848,56.801 
	20.069,43.437 "/>
<polygon fill="#3C3C3C" points="19.188,106.707 22.061,108.113 21.859,109.282 16.551,109.282 16.781,106.89 "/>
<path fill="#587BC9" d="M63.134,93.656c1.245,1.244-0.562,5.294-0.871,7.04c-0.678,3.835,3.157,7.052,7.052,7.052h0.003
	c3.895,0,7.729-3.217,7.052-7.052c-0.309-1.746-2.115-5.796-0.871-7.04c4.45-4.45,26.046,0,26.046,0s4.45-21.596,0-26.046
	c-1.247-1.247-5.301,0.685-7.055,0.871c-3.873,0.411-7.052-3.157-7.052-7.052v-0.003c0-3.895,3.179-7.463,7.052-7.052
	c1.754,0.186,5.808,2.118,7.055,0.871c4.45-4.451,0-26.047,0-26.047h-59.23c-2.886,0-5.226,2.34-5.226,5.227v59.23
	C37.088,93.656,58.684,89.206,63.134,93.656z"/>
<path fill="#EAC1A4" d="M33.704,64.878c0,0,0.755-1.797,0.857-2.038c0.101-0.242,4.074-0.479,4.074-0.479l-0.458,2l-2.661,1.253
	L33.704,64.878z"/>
<polygon fill="#8C99E0" points="182.348,109.287 177.219,110.19 168.123,117.235 155.978,114.065 154.569,116.983 165.862,122.417 
	170.781,123.658 177.173,121.572 "/>
<polygon fill="#EAC1A4" points="155.647,115.976 153.747,116.926 152.39,116.772 152.382,116.309 153.177,115.992 150.601,115.433 
	150.364,114.189 153.451,113.456 156.251,114.271 "/>
<path fill="#333743" d="M176.664,176.239l-2.396,1.696l-0.798,1.298c0,0,0.897,0.399,1.396,0.499s4.392-0.499,4.392-0.499v-2.296
	L176.664,176.239z"/>
<path fill="#333743" d="M195.276,176.962l-0.885,1.607c0,0-0.553,2.031-0.074,1.893c0.48-0.139,3.15-0.604,3.259-0.947
	c0.108-0.343,1.268-1.719,1.403-1.966c0.137-0.248-0.44-1.902-0.44-1.902L195.276,176.962z"/>
<path fill="#40495F" d="M178.893,139.121l7.735,23.089l8.648,14.752l3.354-0.975l-5.734-16.826c0,0-0.692-16.901-1.825-21.873
	L178.893,139.121z"/>
<polygon fill="#40495F" points="172.771,142.604 175.766,176.938 179.358,176.938 180.456,159.373 182.519,143.821 174.668,134.621 
	"/>
<path fill="#8C99E0" d="M172.656,120.637c0.371-1.77,0.519-3.675,1.395-5.325c0.877-1.649,2.532-2.899,3.81-4.303
	c0.542-0.594,1.119-1.212,1.924-1.496c0.552-0.193,1.161-0.211,1.755-0.226c1.803-0.046,3.604-0.091,5.407-0.136
	c0.657-0.018,1.34-0.029,1.938,0.207c0.898,0.356,1.406,1.184,1.85,1.955c1.133,1.969,1.342,4.154,1.443,6.381
	c-0.004,0.021,1.405,27.965,0.287,27.44c-1.392-0.653-2.984-1-4.546-1.243c-2.202-0.354-4.451-0.578-6.695-0.634l-3.951,0.268
	h-2.385c-1.432,0.139-1.313,0.569-2.784,0.479C171.163,143.947,172.23,122.664,172.656,120.637z"/>
<g>
	<path fill="#EAC1A4" d="M183.009,110.19c0.895-0.039,1.789-0.077,2.684-0.116c0.048-0.713,0.04-1.429-0.026-2.14
		c0.756-0.22,1.634-0.563,1.807-1.331c0.054-0.241,0.025-0.494-0.003-0.74c-0.118-1.018-0.237-2.036-0.355-3.055
		c-0.04-0.352-0.085-0.714-0.258-1.023c-0.304-0.543-0.937-0.808-1.543-0.948c-1.547-0.357-3.267-0.114-4.534,0.842
		c-0.338,0.254-0.647,0.565-0.812,0.954c-0.252,0.602-0.127,1.285,0.004,1.924c0.121,0.589,0.241,1.178,0.361,1.767
		c0.138,0.678,0.349,1.451,0.979,1.737c0.334,0.151,0.74,0.136,1.038,0.35C182.876,108.787,182.758,109.595,183.009,110.19z"/>
	<path fill="#3B455A" d="M178.053,97.252c0.199-0.036,0.401-0.077,0.607-0.167c0.647-0.282,1.102-0.848,1.79-1.112
		c1.392-0.535,3.137-0.458,4.504,0.117c1.309,0.551,3.094,0.763,4.265,1.502c0.489,0.309,0.867,0.77,1.154,1.272
		c0.994,1.738,0.871,4.055-0.301,5.679c-0.263,0.365-0.571,0.694-0.895,1.008c-0.667,0.647-1.467,1.45-2.347,1.654
		c0.021-0.776,0.863-3.18,0.304-3.849c-0.743-0.886-2.2-0.862-3.244-0.765c-1.244,0.116-2.269-0.284-3.509-0.221
		c-0.632,0.031-1.348,0.158-1.832-0.249c-0.56-0.471-1.744-1.965-2.025-2.62c-0.246-0.574-0.082-1.282,0.346-1.737
		C177.238,97.371,177.637,97.326,178.053,97.252z"/>
</g>
<g>
	<path fill="#445365" d="M177.341,127.877c0-0.277,0.053-0.552,0.158-0.808c0.474-1.146,5.457-15.503,5.457-15.503
		s0.201-0.743,0.295-1.398l1.597-0.1l-0.263,1.631l-0.748,0.643c0,0-3.063,15.811-3.081,16.087l-2.271,2.808L177.341,127.877z"/>
</g>
<path fill="#4BB5FF" d="M106.379,79.157c-1.239,1.25-5.292-0.663-7.043-0.842c-3.875-0.395-7.038,3.188-7.022,7.081V85.4
	c0.017,3.895,3.211,7.449,7.081,7.021c1.75-0.192,5.787-2.14,7.037-0.9c4.469,4.432,0.108,26.046,0.108,26.046
	s21.614,4.359,26.046-0.109c1.242-1.253-0.584-5.303-0.9-7.051c-0.693-3.832,3.128-7.065,7.021-7.081h0.004
	c3.895-0.017,7.742,3.184,7.081,7.021c-0.302,1.751-2.094,5.816-0.842,7.059c4.47,4.432,26.046-0.109,26.046-0.109l-0.248-59.23
	c-0.013-2.886-2.362-5.216-5.248-5.204l-59.23,0.249C106.27,53.111,110.811,74.688,106.379,79.157z"/>
<path fill="#7DB5DB" d="M144.943,117.331c-1.245-1.244,0.562-5.293,0.87-7.039c0.679-3.835-3.156-7.052-7.051-7.052h-0.004
	c-3.894,0-7.729,3.217-7.051,7.052c0.309,1.746,2.115,5.795,0.871,7.039c-4.451,4.451-26.047,0-26.047,0s-4.45,20.726,0,25.176
	c1.248,1.247,5.302,0.186,7.056,0c3.872-0.411,7.051,3.157,7.051,7.051v0.004c0,3.895-3.179,7.463-7.051,7.052
	c-1.754-0.187-5.808-1.247-7.056,0c-4.45,4.45,0,25.175,0,25.175h59.231c2.886,0,5.226-2.34,5.226-5.227v-59.23
	C170.989,117.331,149.394,121.782,144.943,117.331z"/>
<polygon fill="#8C99E0" points="184.111,115.809 184.413,125.776 170.188,128.856 170.826,132.086 186.562,131.107 189.477,128.39 
	191.43,118.817 "/>
<polygon fill="#EAC1A4" points="170.77,131.795 168.663,133.005 166.356,131.886 168.648,128.233 170.188,128.856 "/>
<path fill="#27415A" d="M60.973,180.727c-0.091,0.421-0.071,0.821,0.201,1.122c0.799,0.887,8.099,2.104,7.833,0.905
	c-0.281-1.27-2.752-2.193-2.917-2.788c-0.166-0.6,0.209-1.403,0.453-1.716c-0.988-0.547-2.544-1.751-3.729-1.433
	c-0.487,0.131-1.021,1.838-1.188,2.252C61.446,179.515,61.101,180.141,60.973,180.727z"/>
<path fill="#0A529E" d="M64.282,137.772c0,0,0.056,16.709-0.721,23.788c-0.811,7.388-1.857,16.992-1.857,16.992l4.595,1.388
	c0,0,2.503-9.604,3.84-17.119c1.441-8.109,4.595-24.598,4.595-24.598l-6.979-2.262L64.282,137.772z"/>
<path fill="#27415A" d="M81.192,181.538c0.047,0.427,0.193,0.8,0.547,1c1.039,0.585,8.348-0.579,7.716-1.63
	c-0.671-1.115-3.44-1.25-3.785-1.761c-0.348-0.516-0.115-1.354,0.017-1.729c-1.109-0.204-2.969-0.852-3.99-0.173
	c-0.42,0.278-0.385,2.067-0.411,2.512C81.256,180.237,81.127,180.94,81.192,181.538z"/>
<path fill="#EAC1A4" d="M56.029,108.604c0.016-0.096,0.033-0.196,0.005-0.289c-0.044-0.151-0.188-0.248-0.328-0.322
	c-1.054-0.56-2.392-0.541-3.43,0.046c-0.1,0.057-0.2,0.121-0.269,0.213c-0.074,0.099-0.107,0.222-0.131,0.343
	c-0.127,0.648-0.022,1.341,0.292,1.923c0.038,0.069,0.082,0.141,0.152,0.178c0.062,0.031,0.134,0.032,0.204,0.031
	c0.898-0.01,1.797-0.112,2.673-0.308c0.347-0.077,0.5-0.103,0.596-0.447C55.916,109.533,55.952,109.051,56.029,108.604z"/>
<path fill="#FFC107" d="M51.442,110.247c0,0,1.246-0.496,2.748-0.496c1.502,0,2.103,0.181,2.103,0.181s0.03,4.835,3.935,5.136
	c3.904,0.3,7.718-0.511,7.718-0.511l-1.501,9.431c0,0-7.659-1.366-11.443-3.289C51.217,118.776,51.442,110.247,51.442,110.247z"/>
<path fill="#EAC1A4" d="M90.621,109.04c0.004-0.097,0.008-0.198,0.053-0.284c0.073-0.139,0.235-0.204,0.386-0.249
	c1.145-0.338,2.452-0.052,3.352,0.731c0.087,0.076,0.171,0.158,0.221,0.263c0.054,0.111,0.062,0.238,0.061,0.362
	c-0.006,0.661-0.247,1.317-0.672,1.824c-0.051,0.062-0.108,0.122-0.185,0.145c-0.066,0.019-0.138,0.005-0.206-0.01
	c-0.878-0.189-1.737-0.47-2.558-0.837c-0.324-0.146-0.469-0.2-0.494-0.558C90.546,109.975,90.607,109.494,90.621,109.04z"/>
<path fill="#FFC107" d="M94.691,111.283c0,0-0.568-0.526-2.253-0.946c-1.457-0.363-2.345,0.03-2.345,0.03s-1.364,4.31-5.269,4.609
	c-3.904,0.301-10.092-1.381-10.092-1.381l3.244,10.212c0,0,6.757-1.412,10.542-3.334C92.304,118.552,94.691,111.283,94.691,111.283z
	"/>
<path fill="#0A529E" d="M72.211,145.342c0,0,4.71,8.914,6.938,15.678c2.229,6.764,2.211,18.188,2.211,18.188l4.376-0.159
	c0,0,1.012-15.055-0.01-20.011c-1.604-7.788-6.499-22.21-6.499-22.21l-6.127,0.159L72.211,145.342z"/>
<path fill="#EAC1A4" d="M76.746,111.238c0,0-0.691,3.604-0.781,4.64s-0.841,1.622-0.841,1.622l-3.244-0.676l-0.766-5.947
	L76.746,111.238z"/>
<path fill="#FFC107" d="M64.942,120.144c-0.432,2.992-1.011,9.024-0.931,12.764c0.08,3.74,0.18,5.947,0.18,5.947
	s3.324,0.798,8.988,0.798c4.894,0,7.042-0.717,7.042-0.717s-0.458-11.706-1.074-15.556c-0.38-2.37-1.351-7.472-1.711-8.854
	c-1.909-0.795-7.679-1.014-9.509-1.252S65.22,118.219,64.942,120.144z"/>
<path fill="#EAC1A4" d="M70.202,111.948l5.297,0.205c2.058,0.127,3.327-1.786,3.454-3.844l-0.16-7.167
	c0.047-0.771-0.54-1.436-1.312-1.482l-5.114-0.087c-0.771-0.048-1.436,0.539-1.483,1.311L70.202,111.948z"/>
<path fill="#27415A" d="M77.193,103.045c0.769-1.448,1.313-1.442,2.105-2.439c1.217-1.531-0.616-2.973-3.725-3.288
	c-3.057-0.311-5.426,0.613-7.417,3.514c-1.115,1.624-0.606,3.302-1.462,4.203c-1.24,1.305-1.983,3.073-1.646,5.348
	c0.284,1.912-0.192,2.031-0.647,3.784c-0.631,2.433,0.318,4.671,3.063,5.587c3.334,1.111,7.75,0.087,8.2-2.884
	c0.449-2.971-0.091-10.271,0.45-10.451C76.486,105.303,76.8,103.786,77.193,103.045z"/>
<path fill="#FFC6AF" d="M77.301,106.16c-0.019,0.764-0.548,1.365-1.182,1.343c-0.634-0.021-1.133-0.659-1.115-1.423
	c0.019-0.764,0.548-1.365,1.182-1.343C76.819,104.759,77.318,105.396,77.301,106.16z"/>
</svg>
