<?xml version="1.0" encoding="utf-8"?>
<!-- Generator: Adobe Illustrator 16.0.0, SVG Export Plug-In . SVG Version: 6.00 Build 0)  -->
<!DOCTYPE svg PUBLIC "-//W3C//DTD SVG 1.1//EN" "http://www.w3.org/Graphics/SVG/1.1/DTD/svg11.dtd">
<svg version="1.1" xmlns="http://www.w3.org/2000/svg" xmlns:xlink="http://www.w3.org/1999/xlink" x="0px" y="0px" width="200px"
	 height="147.997px" viewBox="0 0 200 147.997" enable-background="new 0 0 200 147.997" xml:space="preserve">
<g id="Background">
</g>
<g id="Shadow">
	<g>
		<path fill="#D7E8F4" d="M92.042,123.152c-5.797,0.017-11.593,0.156-17.379,0.8c-2.182,0.243-4.318,0.776-6.504,0.991
			c-4.368,0.43-8.658,1.232-13.041,1.604c-3.53,0.297-7.074,0.474-10.594,0.852c-3.299,0.354-6.953,0.271-10.227-0.313
			c-2.424-0.434-4.858-0.678-7.242-1.374c-2.666-0.779-5.563-1.336-8.341-1.316c-3.961,0.029-7.818,0.033-11.608,1.408
			c-1.332,0.482-2.96,1.276-3.971,2.289c-2.313,2.32-2.626,8.107-0.316,10.514c3.89,4.049,12.193,5.638,17.646,5.713
			c5.976,0.082,11.78-0.361,17.765-0.623c5.561-0.242,11.107-0.587,16.677-0.574c11.376,0.024,22.753,0,34.108-0.76
			c10.668-0.715,21.363-0.47,32.055-0.47c10.964,0,21.854,0.087,32.738,1.544c4.743,0.635,9.575,0.856,14.342,1.301
			c4.269,0.399,8.37-0.007,12.622-0.375c3.57-0.31,7.117-1.227,10.361-2.776c2.567-1.227,7.144-5.038,7.932-7.968
			c2.208-8.21-31.108-8.013-36.223-7.994c-5.723,0.021-11.49,0.209-17.208-0.01c-2.405-0.092-4.775-0.562-7.122-1.076
			c-2.339-0.514-4.694-0.384-7.064-0.599c-9.889-0.899-19.799-0.769-29.718-0.769C98.501,123.17,95.271,123.143,92.042,123.152z"/>
	</g>
</g>
<g id="Object">
	<polygon fill="#7DB5DB" points="163.625,96.252 164.27,111.221 162.378,136.672 159.548,136.873 156.107,113.758 151.35,94.196 	
		"/>
	<polygon fill="#262B33" points="159.648,138.066 162.818,139.379 164.241,137.74 162.601,136.318 159.54,136.535 	"/>
	<polygon fill="#7DB5DB" points="143.585,90.955 142.964,102.27 144.808,135.912 147.642,136.055 151.89,113.988 155.638,89.791 	
		"/>
	<polygon fill="#262B33" points="147.565,137.248 144.424,138.628 142.968,137.018 144.578,135.563 147.643,135.716 	"/>
	<g>
		<path fill="#305399" d="M160.065,57.623l-8.845-0.947c0,0-4.92,0.525-8.26,12.211c-1.857,6.502-2.422,16.745-2.559,24.555
			c0.21,1.113,1.423,5.993,6.554,5.166c8.813-1.422,13.505-2.844,17.341-2.133c3.271,0.711,2.994-3.79,2.635-7.225l-1.303-10.629
			L160.065,57.623z"/>
	</g>
	<g>
		<path fill="#AA6755" d="M158.358,46.613c-2.229-0.491-4.524-0.932-6.756-0.49c-0.488,0.098-1.014,0.268-1.279,0.689
			c-0.103,0.162-0.157,0.352-0.207,0.538c-0.563,2.093-1.277,5.197,0.101,7.126c0.262,0.367,0.616,0.659,0.995,0.896
			c0.507,0.316,1.069,0.533,1.649,0.647c-0.12,0.521-0.287,1.03-0.5,1.521c0.511,0.77,2.892,0.861,3.332,0.124
			c0.024-0.64,0.049-1.277,0.074-1.915c0.289-0.117,0.569-0.26,0.832-0.434c1.019-0.67,1.688-1.687,2.078-2.824
			c0.424-1.238,1.021-2.416,1.407-3.68c0.142-0.459,0.253-0.984,0.012-1.4c-0.259-0.442-0.814-0.594-1.314-0.704
			C158.641,46.676,158.499,46.645,158.358,46.613z"/>
		<path fill="#4F4B47" d="M150.938,47.811c1.102-0.709,2.755-1.014,3.791-0.939c3.133,0.228,4.28,2.527,4.447,5.408
			c0.863-1.098,2.482-2.477,2.58-3.889c0.081-1.154-0.078-2.729-0.727-3.729c-0.605-0.932-2.154-1.445-3.074-1.986
			c-0.869-0.51-1.736-1.02-2.604-1.529c-0.181-0.106-0.366-0.215-0.572-0.25c-0.245-0.043-0.493,0.02-0.733,0.082
			c-2.051,0.529-4.103,1.061-6.154,1.591c-0.395,0.102-0.844,0.25-0.989,0.63c-0.089,0.232-0.035,0.49,0.017,0.732
			c0.233,1.064,0.681,2.154,0.791,3.232c0.126,0.627,0.5,3.84,1.609,3.469c0.326-0.533,0.374-1.189,0.629-1.76
			C150.135,48.451,150.49,48.098,150.938,47.811z"/>
	</g>
	<polygon fill="#A9B4B9" points="151.221,56.676 147.952,57.67 136.012,70.179 135.302,74.301 141.01,83.725 142.551,80.271 
		140.135,73.307 143.972,70.605 149.089,59.092 	"/>
	<path fill="#FFFFFF" d="M166.076,53.17c-0.217-0.107-0.438-0.215-0.66-0.319c2.217-3.22,3.418-7.172,3.418-11.36
		c0-10.104-7.125-18.324-15.885-18.324c-8.758,0-15.884,8.22-15.884,18.324c0,4.191,1.2,8.143,3.418,11.361
		c-0.345,0.158-0.574,0.273-0.674,0.326c-9.31,4.273-15.322,13.61-15.322,23.802v6.351c0,2.732,2.224,4.957,4.959,4.957h47.008
		c2.734,0,4.958-2.225,4.958-4.957v-6.351C181.412,66.783,175.395,57.441,166.076,53.17z"/>
	<g>
		<path fill="#FFC107" d="M165.334,54.719c-0.086,0.105-0.168,0.213-0.255,0.314c-3.212,3.765-7.52,5.838-12.13,5.838
			c-4.608,0-8.916-2.073-12.128-5.838c-0.089-0.102-0.171-0.209-0.256-0.314c-8.45,3.862-14.36,12.404-14.36,22.261v6.351
			c0,1.789,1.451,3.24,3.241,3.24h47.008c1.79,0,3.241-1.451,3.241-3.24v-6.351C179.695,67.123,173.785,58.581,165.334,54.719z"/>
		<path fill="#FFC107" d="M152.949,58.096c3.723,0,7.108-1.685,9.636-4.436c2.787-3.033,4.532-7.361,4.532-12.17
			c0-9.172-6.343-16.606-14.168-16.606c-7.823,0-14.166,7.435-14.166,16.606c0,4.809,1.745,9.137,4.531,12.17
			C145.843,56.411,149.228,58.096,152.949,58.096z"/>
	</g>
	<polygon fill="#AA6755" points="127.205,65.602 128.96,64.602 130.555,67.502 128.88,70.48 126.205,69.242 	"/>
	<polygon fill="#AA6755" points="178.696,64.24 176.939,63.238 175.344,66.139 177.02,69.117 179.695,67.879 	"/>
	<polygon fill="#5B5B5B" points="47.958,97.458 35.661,92.935 38.195,114.479 36.727,133.064 36.688,133.189 36.717,133.192 
		36.714,133.232 39.14,133.464 39.14,133.461 39.23,133.471 44.646,116.912 47.514,99.272 47.514,99.272 	"/>
	<polygon fill="#292949" points="39.013,134.311 36.497,134.248 35.854,136.37 35.918,136.39 35.902,136.391 40.062,138.855 
		42.04,139.076 42.291,136.814 41.756,136.424 	"/>
	<polygon fill="#5B5B5B" points="56.335,97.828 52.645,134.715 50.21,134.824 47.765,114.908 43.525,95.071 	"/>
	<polygon fill="#292949" points="52.639,135.57 55.862,137.398 55.561,138.92 49.8,138.052 50.138,135.859 	"/>
	<g>
		<path fill="#4BB5FF" d="M62.101,107.092c0.778-0.541,0.795-1.481,0.793-2.424c-0.003-1.77-0.321-3.578-0.726-5.297
			c-0.772-3.227-1.648-7.111-2.033-11.291c-0.995-10.803-4.406-18.052-4.406-18.052l-1.101-2.936
			c-0.22-0.382-0.446-0.759-0.683-1.132c-1.375-2.157-3.762-5.823-6.315-6.423c-0.053-0.013-0.107-0.024-0.161-0.036
			c-2.685-0.59-6.124-0.316-8.549,0.988c-0.46,0.248-0.87,0.577-1.276,0.905c-1.186,0.956-2.153,1.476-2.665,2.933
			c-0.444,1.266-0.547,2.648-0.792,3.959c-0.498,2.667-0.794,5.363-1.191,8.045c-0.745,5.027-1.377,10.071-2.174,15.091
			c-0.41,2.583-0.823,5.171-1.017,7.782c-0.171,2.307-2.253,4.652-3.423,6.719c-0.407,0.721,5.44,2.586,5.964,2.708
			c2.426,0.565,5.006,0.421,7.507,0.432c5.479,0.025,10.96-0.144,16.429-0.507c1.816-0.119,4.056-0.467,5.668-1.372
			C62.004,107.156,62.054,107.125,62.101,107.092z"/>
	</g>
	<path fill="#4BB5FF" d="M44.46,59.207c0,0-3.087-0.834-3.513,6.131s-1.137,24.59-2.132,29.422
		c-0.995,4.834-2.487,14.313-2.487,14.313l9.452,0.328l10.803-0.853c0,0-3.696-6.823-4.264-11.655
		c-0.569-4.833,0.426-23.027-1.99-29.85C47.912,60.22,47.404,59.328,44.46,59.207z"/>
	<g>
		<polygon fill="#826656" points="58.43,74.719 59.141,75.572 61.699,72.019 51.465,60.646 47.627,59.51 49.475,64.484 		"/>
	</g>
	<polygon fill="#EAC1A4" points="49.876,71.777 47.63,70.064 48.32,69.072 50.118,69.904 50.226,69.283 51.97,70.982 51.392,72.111 
			"/>
	<g>
		<polygon fill="#826656" points="58.674,71.34 58.573,71.561 51.572,70.209 50.54,72.506 59.141,75.572 		"/>
	</g>
	<g>
		<g>
			<path fill="#3B3631" d="M48.765,53.688c0.468,1.403-0.208,2.898-0.802,4.176c-0.526,1.134-0.709,1.88,0.627,2.186
				c0.752,0.173,2.088,0.494,2.748-0.082c0.5-0.438,0.219-1.785-0.024-2.321c-0.186-0.408-0.677-0.616-0.852-1.03
				c-0.072-0.17-0.083-0.36-0.085-0.545c-0.01-0.756,0.094-1.514,0.309-2.239c0.146-0.492,0.344-0.976,0.388-1.487
				c0.064-0.742-0.46-1.605-0.736-2.287c-0.513-1.269-2.298-2.969-3.792-1.975c-0.341,0.228-0.539,0.61-0.704,0.984
				c-0.099,0.223-0.193,0.457-0.196,0.699c-0.011,0.975,0.878,1.139,1.492,1.603C47.893,51.939,48.467,52.793,48.765,53.688z"/>
			<path fill="#D5C6AB" d="M45.922,59.16c1.296-0.305,2.31-1.395,2.797-2.634c0.487-1.239,0.513-2.614,0.377-3.938
				c-0.448-4.41-5.933-4.127-7.791-0.748C39.688,54.786,42.153,60.047,45.922,59.16z"/>
		</g>
		<path fill="#D5C6AB" d="M45.921,58.686c-0.021,0.502-0.043,1.004-0.065,1.506c-0.003,0.074-0.009,0.154-0.061,0.207
			c-0.059,0.061-0.153,0.062-0.237,0.059c-0.41-0.015-0.819-0.028-1.228-0.043c-0.203-0.008-0.414-0.016-0.592-0.111
			c-0.392-0.21-0.473-0.741-0.41-1.182c0.062-0.439,0.22-0.883,0.126-1.317c0.845,0.417,1.648-0.524,2.494-0.108L45.921,58.686z"/>
	</g>
	<path fill="#3B3631" d="M44.152,44.943c-1.44,0.488-2.364,1.945-3.77,2.527c-0.806,0.334-1.76,0.377-2.417,0.949
		c-1.475,1.284-0.29,3.979-1.5,5.516c-0.251,0.318-0.591,0.56-0.844,0.878c-0.545,0.687-0.616,1.624-0.665,2.499
		c-0.011,0.197-0.013,0.411,0.021,0.609c0.189,2.021,3.124,1.894,4.29,1.764c1.279-0.143,0.853-0.854,0.853-0.854l-0.047-0.057
		c-0.122-0.82,0.215-1.695,0.86-2.219c0.239-0.193,0.522-0.349,0.691-0.606c0.378-0.577,0.017-1.345,0.073-2.034
		c0.224-2.775,4.883-2.181,6.197-4.156C49.507,47.336,46.872,44.02,44.152,44.943z"/>
	<path fill="#FFFFFF" d="M58.111,53.17c-0.218-0.107-0.438-0.215-0.661-0.319c2.217-3.22,3.418-7.172,3.418-11.36
		c0-10.104-7.125-18.324-15.884-18.324S29.1,31.386,29.1,41.49c0,4.191,1.2,8.143,3.418,11.361
		c-0.344,0.158-0.574,0.273-0.674,0.326c-9.309,4.273-15.321,13.61-15.321,23.802v6.351c0,2.732,2.224,4.957,4.958,4.957h47.009
		c2.733,0,4.957-2.225,4.957-4.957v-6.351C73.446,66.783,67.428,57.441,58.111,53.17z"/>
	<g>
		<path fill="#8C99E0" d="M57.369,54.719c-0.085,0.105-0.167,0.213-0.255,0.314c-3.212,3.765-7.52,5.838-12.129,5.838
			s-8.917-2.073-12.129-5.838c-0.088-0.102-0.17-0.209-0.255-0.314c-8.451,3.862-14.361,12.404-14.361,22.261v6.351
			c0,1.789,1.451,3.24,3.241,3.24h47.009c1.789,0,3.24-1.451,3.24-3.24v-6.351C71.729,67.123,65.819,58.581,57.369,54.719z"/>
		<path fill="#8C99E0" d="M44.984,58.096c3.722,0,7.107-1.685,9.636-4.436c2.786-3.033,4.531-7.361,4.531-12.17
			c0-9.172-6.343-16.606-14.167-16.606S30.817,32.318,30.817,41.49c0,4.809,1.745,9.137,4.532,12.17
			C37.877,56.411,41.262,58.096,44.984,58.096z"/>
	</g>
	<polygon fill="#EAC1A4" points="19.239,65.602 20.994,64.602 22.59,67.502 20.914,70.48 18.239,69.242 	"/>
	<polygon fill="#EAC1A4" points="70.73,64.24 68.975,63.238 67.379,66.139 69.055,69.117 71.729,67.879 	"/>
	<polygon fill="#1B1B30" points="111.166,134.793 111.396,136.588 108.036,138.846 106.01,137.281 107.574,135.254 110.935,132.997 
			"/>
	<g>
		<polygon fill="#587BC9" points="111.279,134.189 108.688,111.289 111.806,85.651 111.104,80.198 97.177,79.669 96.675,88.545 
			99.013,111.324 107.809,135.359 		"/>
	</g>
	<polygon fill="#BABCBE" points="95.87,54.331 88.865,56.238 80.763,70.595 84.601,74.148 90.002,67.752 	"/>
	<polygon fill="#587BC9" points="86.958,82.234 86.921,105.346 91.573,135.096 94.922,135.062 96.762,107.55 101.069,80.014 	"/>
	<polygon fill="#1B1B30" points="94.916,136.475 91.313,138.32 89.485,136.527 91.277,134.699 94.898,134.664 	"/>
	<g>
		<path fill="#BABCBE" d="M113.247,90.096c-0.032-1.002-0.088-1.838-0.096-2.137c-0.071-2.686-0.312-5.366-0.647-8.034
			c-0.301-2.39-0.682-8.323-1.091-10.7c-0.338-1.961-1.515-6.856-2.365-8.676c-2.114-4.524-1.461-4.942-10.751-6.285
			c-4.071-0.59-5.033,1.947-8.361,4.865c-0.329,0.289-0.311,2.002-0.387,2.455c-0.134,0.799-0.278,1.598-0.442,2.391
			c-0.13,0.625-0.272,1.246-0.433,1.865c-1.656,6.395-3.562,12.545-3.95,19.176c-0.11,1.871-0.686,3.687-0.635,5.574
			c0.006,0.217,0.023,0.449,0.159,0.619c0.562,0.709,3.666-0.374,4.608-0.467c2.397-0.235,4.844-0.384,7.254-0.365
			c2.474,0.018,4.957,0.269,7.389,0.688c1.626,0.271,3.285,0.667,4.74,1.427c1.388,0.726,2.39,1.791,3.798,2.542
			c0.134,0.07,0.279,0.145,0.431,0.123C113.276,95.045,113.314,92.203,113.247,90.096z"/>
	</g>
	<g>
		<path fill="#D5C6AB" d="M98.287,55.539c0.468,0.231,1.575,0.314,2.729-0.137c0.232-0.092,0.389-0.316,0.386-0.566
			c-0.009-0.701-0.065-1.4-0.168-2.094c0.865-0.305,1.865-0.762,2.017-1.666c0.047-0.285-0.002-0.576-0.052-0.861
			c-0.203-1.177-0.406-2.355-0.61-3.531c-0.07-0.408-0.145-0.826-0.366-1.176c-0.389-0.612-1.143-0.88-1.856-1.004
			c-1.823-0.316-3.81,0.078-5.224,1.272c-0.376,0.317-0.716,0.7-0.882,1.163c-0.256,0.716-0.064,1.504,0.128,2.238
			c0.178,0.678,0.356,1.355,0.534,2.033c0.205,0.78,0.5,1.666,1.251,1.959c0.399,0.154,0.87,0.109,1.231,0.339
			C98.041,53.914,97.955,54.861,98.287,55.539z"/>
		<path fill="#3B3631" d="M88.232,43.746c-0.313-2.923,0.964-6.002,3.369-5.389c1.456,0.37,2.76,0.984,4.226,0.437
			c1.378-0.515,2.373-0.305,3.813,0.21c1.559,0.555,3.65,0.686,5.061,1.472c0.589,0.327,1.059,0.839,1.425,1.405
			c1.27,1.96,1.276,4.664,0.018,6.631c-0.282,0.439-0.62,0.844-0.976,1.229c-0.735,0.797-1.614,1.783-2.626,2.078
			c-0.023-0.905,0.801-3.758,0.105-4.499c-1.103-1.177-3.595-0.767-4.963-0.476c-1.492,0.315-2.821,1.371-4.301,1.598
			C90.117,48.939,88.517,46.407,88.232,43.746z"/>
	</g>
	<path fill="#FFFFFF" d="M115.275,37.523c-0.256-0.127-0.513-0.252-0.773-0.374c2.594-3.765,3.997-8.388,3.997-13.284
		c0-11.814-8.332-21.426-18.573-21.426s-18.573,9.611-18.573,21.426c0,4.9,1.403,9.521,3.996,13.285
		c-0.402,0.184-0.671,0.32-0.788,0.381c-10.885,4.997-17.916,15.916-17.916,27.832v7.424c0,3.197,2.601,5.799,5.797,5.799h54.967
		c3.197,0,5.798-2.602,5.798-5.799v-7.424C133.207,53.44,126.169,42.518,115.275,37.523z"/>
	<g>
		<path fill="#FF5555" d="M114.406,39.334c-0.1,0.122-0.195,0.248-0.298,0.367c-3.756,4.402-8.792,6.826-14.183,6.826
			c-5.39,0-10.427-2.424-14.182-6.826c-0.103-0.119-0.199-0.245-0.299-0.367c-9.881,4.516-16.792,14.504-16.792,26.029v7.426
			c0,2.092,1.697,3.789,3.79,3.789h54.967c2.093,0,3.79-1.697,3.79-3.789v-7.426C131.199,53.838,124.288,43.85,114.406,39.334z"/>
		<path fill="#FF5555" d="M99.926,43.283c4.353,0,8.311-1.971,11.267-5.188c3.258-3.547,5.3-8.607,5.3-14.23
			c0-10.725-7.417-19.418-16.566-19.418c-9.149,0-16.565,8.693-16.565,19.418c0,5.623,2.041,10.684,5.299,14.23
			C91.615,41.313,95.574,43.283,99.926,43.283z"/>
	</g>
	<polygon fill="#EAC1A4" points="81.198,78.496 80.433,76.625 83.515,75.418 86.251,77.466 84.678,79.958 	"/>
	<polygon fill="#EAC1A4" points="115.619,78.485 116.378,76.611 113.291,75.416 110.563,77.475 112.146,79.959 	"/>
</g>
</svg>
